SplineFontDB: 3.0
FontName: Keraleeyam-Regular
FullName: Keraleeyam Regular
FamilyName: Keraleeyam
Weight: Regular
Copyright: Digitized data copyright (c) 2015-2016 by Hussain KH, Kavya Manohar, Rajeesh K Nambiar, Santhosh Thottingal, Swathanthra Malayalam Computing (http://smc.org.in)
UComments: "Keraleeyam font was first designed as an ASCII font in 2005 and distributed with Rachana editor. This Unicode Keraleeyam font based on Rachana's exhaustive character set of traditional Malayalam Lipi is totally redesigned as a part of the Fellowship (2014-2015) granted by India Foundation for the Arts, Bangalore under Arts Research and Documentation Programme. The font is dedicated to the environmental activism in Kerala."
Version: 3.0
ItalicAngle: 0
UnderlinePosition: -723
UnderlineWidth: 20
Ascent: 1304
Descent: 744
InvalidEm: 0
sfntRevision: 0x00050000
LayerCount: 2
Layer: 0 1 "Back" 1
Layer: 1 1 "Fore" 0
XUID: [1021 73 915813246 2519838]
FSType: 0
OS2Version: 3
OS2_WeightWidthSlopeOnly: 0
OS2_UseTypoMetrics: 1
CreationTime: 1418347145
ModificationTime: 1496301170
PfmFamily: 33
TTFWeight: 400
TTFWidth: 5
LineGap: 0
VLineGap: 0
Panose: 2 11 8 3 0 0 0 0 0 0
OS2TypoAscent: 1304
OS2TypoAOffset: 0
OS2TypoDescent: -744
OS2TypoDOffset: 0
OS2TypoLinegap: 0
OS2WinAscent: 1304
OS2WinAOffset: 0
OS2WinDescent: 744
OS2WinDOffset: 0
HheadAscent: 1304
HheadAOffset: 0
HheadDescent: -744
HheadDOffset: 0
OS2SubXSize: 700
OS2SubYSize: 650
OS2SubXOff: 0
OS2SubYOff: 140
OS2SupXSize: 700
OS2SupYSize: 650
OS2SupXOff: 0
OS2SupYOff: 477
OS2StrikeYSize: 50
OS2StrikeYPos: 250
OS2Vendor: 'SMC '
OS2CodePages: 00000001.00000000
OS2UnicodeRanges: 80800001.00002002.00000000.00000000
MarkAttachClasses: 2
"nomark" 0 
DEI: 91125
LangName: 1100 "" "" "" "" "" "" "" "" "" "" "" "" "" "" "" "" "" "" "+DRUNRw0wDTMNQA0vDQIA"

StartChar: .notdef
Encoding: 65536 -1 0
Width: 602
GlyphClass: 2
Flags: W
LayerCount: 2
Fore
SplineSet
92 884 m 1,0,-1
 92 46 l 1,1,-1
 466 46 l 1,2,-1
 466 884 l 1,3,-1
 92 884 l 1,0,-1
512 0 m 1,4,-1
 46 0 l 1,5,-1
 46 932 l 1,6,-1
 512 932 l 1,7,-1
 512 0 l 1,4,-1
EndSplineSet
EndChar

StartChar: exclam
Encoding: 33 33 4
Width: 279
GlyphClass: 2
Flags: W
LayerCount: 2
Fore
SplineSet
276 1284 m 1,0,-1
 258 393 l 1,1,-1
 72 393 l 1,2,-1
 55 1284 l 1,3,-1
 276 1284 l 1,0,-1
269 2 m 1,4,-1
 63 2 l 1,5,-1
 63 233 l 1,6,-1
 269 233 l 1,7,-1
 269 2 l 1,4,-1
EndSplineSet
EndChar

StartChar: quotedbl
Encoding: 34 34 5
Width: 486
GlyphClass: 2
Flags: W
LayerCount: 2
Fore
SplineSet
486 823 m 1,0,-1
 330 823 l 1,1,-1
 330 1304 l 1,2,-1
 486 1304 l 1,3,-1
 486 823 l 1,0,-1
208 823 m 1,4,-1
 54 823 l 1,5,-1
 54 1304 l 1,6,-1
 208 1304 l 1,7,-1
 208 823 l 1,4,-1
EndSplineSet
EndChar

StartChar: numbersign
Encoding: 35 35 6
Width: 1074
GlyphClass: 2
Flags: W
LayerCount: 2
Fore
SplineSet
54 368 m 1,0,-1
 57 552 l 1,1,-1
 267 552 l 1,2,-1
 287 786 l 1,3,-1
 88 786 l 1,4,-1
 88 974 l 1,5,-1
 301 974 l 1,6,-1
 324 1252 l 1,7,-1
 485 1252 l 1,8,-1
 462 974 l 1,9,-1
 727 974 l 1,10,-1
 748 1252 l 1,11,-1
 911 1252 l 1,12,-1
 890 974 l 1,13,-1
 1074 974 l 1,14,-1
 1074 786 l 1,15,-1
 874 786 l 1,16,-1
 858 552 l 1,17,-1
 1040 552 l 1,18,-1
 1040 368 l 1,19,-1
 842 368 l 1,20,-1
 819 44 l 1,21,-1
 656 44 l 1,22,-1
 679 368 l 1,23,-1
 416 368 l 1,24,-1
 393 44 l 1,25,-1
 228 44 l 1,26,-1
 253 368 l 1,27,-1
 54 368 l 1,0,-1
713 786 m 1,28,-1
 450 786 l 1,29,-1
 430 552 l 1,30,-1
 695 552 l 1,31,-1
 713 786 l 1,28,-1
EndSplineSet
EndChar

StartChar: dollar
Encoding: 36 36 7
Width: 826
GlyphClass: 2
Flags: W
LayerCount: 2
Fore
SplineSet
298 547 m 1,0,1
 56 624 56 624 56 854 c 0,2,3
 56 980 56 980 143.5 1063.5 c 128,-1,4
 231 1147 231 1147 386 1167 c 1,5,-1
 386 1287 l 1,6,-1
 510 1287 l 1,7,-1
 510 1171 l 1,8,9
 660 1168 660 1168 781 1117 c 1,10,-1
 781 940 l 1,11,12
 660 997 660 997 510 999 c 1,13,-1
 510 683 l 1,14,15
 689 617 689 617 755.5 547 c 128,-1,16
 822 477 822 477 822 340 c 0,17,18
 822 146 822 146 648 46 c 0,19,20
 590 12 590 12 510 -4 c 1,21,-1
 510 -203 l 1,22,-1
 386 -203 l 1,23,-1
 386 -18 l 1,24,-1
 354 -18 l 2,25,26
 199 -18 199 -18 71 14 c 1,27,-1
 71 209 l 1,28,29
 190 175 190 175 327 175 c 2,30,-1
 355 175 l 1,31,-1
 386 177 l 1,32,-1
 386 519 l 1,33,-1
 300 547 l 1,34,-1
 298 547 l 1,0,1
386 989 m 1,35,36
 259 958 259 958 259 856 c 0,37,38
 259 785 259 785 336 745 c 0,39,40
 359 733 359 733 386 723 c 1,41,-1
 386 989 l 1,35,36
510 200 m 1,42,43
 610 241 610 241 610 338 c 0,44,45
 610 384 610 384 588 415 c 128,-1,46
 566 446 566 446 510 474 c 1,47,-1
 510 200 l 1,42,43
EndSplineSet
EndChar

StartChar: percent
Encoding: 37 37 8
Width: 868
GlyphClass: 2
Flags: W
LayerCount: 2
Fore
SplineSet
435 896 m 128,-1,1
 435 841 435 841 424 792 c 128,-1,2
 413 743 413 743 389.5 706 c 128,-1,3
 366 669 366 669 330 647.5 c 128,-1,4
 294 626 294 626 244 626 c 128,-1,5
 194 626 194 626 158.5 647.5 c 128,-1,6
 123 669 123 669 100 706 c 128,-1,7
 77 743 77 743 66.5 792 c 128,-1,8
 56 841 56 841 56 896 c 128,-1,9
 56 951 56 951 67 1000 c 128,-1,10
 78 1049 78 1049 101 1085 c 128,-1,11
 124 1121 124 1121 160.5 1142 c 128,-1,12
 197 1163 197 1163 247 1163 c 128,-1,13
 297 1163 297 1163 333 1142 c 128,-1,14
 369 1121 369 1121 391.5 1084.5 c 128,-1,15
 414 1048 414 1048 424.5 999.5 c 128,-1,0
 435 951 435 951 435 896 c 128,-1,1
868 246 m 128,-1,17
 868 191 868 191 857 142 c 128,-1,18
 846 93 846 93 822.5 56.5 c 128,-1,19
 799 20 799 20 763 -1.5 c 128,-1,20
 727 -23 727 -23 677 -23 c 128,-1,21
 627 -23 627 -23 591.5 -1.5 c 128,-1,22
 556 20 556 20 533 56.5 c 128,-1,23
 510 93 510 93 499.5 142 c 128,-1,24
 489 191 489 191 489 246 c 128,-1,25
 489 301 489 301 500 350 c 128,-1,26
 511 399 511 399 534 435 c 128,-1,27
 557 471 557 471 593.5 492 c 128,-1,28
 630 513 630 513 680 513 c 128,-1,29
 730 513 730 513 766 492 c 128,-1,30
 802 471 802 471 824.5 435 c 128,-1,31
 847 399 847 399 857.5 350 c 128,-1,16
 868 301 868 301 868 246 c 128,-1,17
689 881 m 1,32,-1
 169 -27 l 1,33,-1
 89 35 l 1,34,-1
 609 944 l 1,35,-1
 689 881 l 1,32,-1
244 729 m 128,-1,37
 323 729 323 729 323 893.5 c 128,-1,38
 323 1058 323 1058 244 1058 c 128,-1,39
 165 1058 165 1058 165 893.5 c 128,-1,36
 165 729 165 729 244 729 c 128,-1,37
679 80 m 0,40,41
 757 80 757 80 757 245 c 128,-1,42
 757 410 757 410 678 410 c 128,-1,43
 599 410 599 410 599 247 c 0,44,45
 598 120 598 120 648 89 c 0,46,47
 662 80 662 80 679 80 c 0,40,41
EndSplineSet
EndChar

StartChar: ampersand
Encoding: 38 38 9
Width: 964
GlyphClass: 2
Flags: W
LayerCount: 2
Fore
SplineSet
457 629 m 2,0,1
 241 629 241 629 241 398 c 0,2,3
 241 278 241 278 299.5 231 c 128,-1,4
 358 184 358 184 463.5 184 c 128,-1,5
 569 184 569 184 614 205 c 128,-1,6
 659 226 659 226 681.5 274.5 c 128,-1,7
 704 323 704 323 704 429 c 2,8,-1
 704 738 l 1,9,-1
 964 738 l 1,10,-1
 964 568 l 1,11,-1
 866 568 l 1,12,-1
 866 431 l 2,13,14
 866 187 866 187 778 84.5 c 128,-1,15
 690 -18 690 -18 490.5 -18 c 0,16,17
 290 -18 290 -18 186 48 c 0,18,19
 48 134 48 134 49 341 c 0,20,21
 49 620 49 620 233 707 c 1,22,23
 165 750 165 750 141 791 c 0,24,25
 96 867 96 867 96 965 c 0,26,27
 96 1141 96 1141 186.5 1223 c 128,-1,28
 277 1305 277 1305 408.5 1305 c 128,-1,29
 540 1305 540 1305 640 1253 c 1,30,-1
 640 1082 l 1,31,32
 554 1130 554 1130 460 1130 c 0,33,34
 324 1130 324 1130 278 1045 c 0,35,36
 262 1014 262 1014 262 971 c 0,37,38
 262 886 262 886 303.5 852 c 128,-1,39
 345 818 345 818 451 818 c 2,40,-1
 589 818 l 1,41,-1
 589 629 l 1,42,-1
 457 629 l 2,0,1
EndSplineSet
EndChar

StartChar: quotesingle
Encoding: 39 39 10
Width: 230
GlyphClass: 2
Flags: W
LayerCount: 2
Fore
SplineSet
228 823 m 1,0,-1
 54 823 l 1,1,-1
 54 1304 l 1,2,-1
 228 1304 l 1,3,-1
 228 823 l 1,0,-1
EndSplineSet
EndChar

StartChar: parenleft
Encoding: 40 40 11
Width: 472
GlyphClass: 2
Flags: W
LayerCount: 2
Fore
SplineSet
64 435 m 0,0,1
 64 950 64 950 271 1304 c 1,2,-1
 470 1304 l 1,3,4
 314 1026 314 1026 270 646 c 0,5,6
 257 534 257 534 257 432 c 0,7,8
 257 216 257 216 314.5 -25 c 128,-1,9
 372 -266 372 -266 470 -443 c 1,10,-1
 271 -443 l 1,11,12
 130 -209 130 -209 82 150 c 0,13,14
 64 282 64 282 64 435 c 0,0,1
EndSplineSet
EndChar

StartChar: parenright
Encoding: 41 41 12
Width: 472
GlyphClass: 2
Flags: W
LayerCount: 2
Fore
SplineSet
263 1304 m 1,0,1
 470 950 470 950 470 424.5 c 128,-1,2
 470 -101 470 -101 263 -443 c 1,3,-1
 64 -443 l 1,4,5
 216 -170 216 -170 264 215 c 0,6,7
 278 330 278 330 278 432 c 0,8,9
 278 647 278 647 223 882.5 c 128,-1,10
 168 1118 168 1118 64 1304 c 1,11,-1
 263 1304 l 1,0,1
EndSplineSet
EndChar

StartChar: asterisk
Encoding: 42 42 13
Width: 739
GlyphClass: 2
Flags: W
LayerCount: 2
Fore
SplineSet
742 1007 m 1,0,-1
 541 923 l 1,1,-1
 493 1072 l 1,2,-1
 706 1122 l 1,3,-1
 742 1007 l 1,0,-1
476 1084 m 1,4,-1
 320 1084 l 1,5,-1
 339 1304 l 1,6,-1
 460 1304 l 1,7,-1
 476 1084 l 1,4,-1
654 710 m 1,8,-1
 556 639 l 1,9,-1
 412 804 l 1,10,-1
 539 898 l 1,11,-1
 654 710 l 1,8,-1
305 1072 m 1,12,-1
 255 923 l 1,13,-1
 54 1007 l 1,14,-1
 94 1120 l 1,15,-1
 305 1072 l 1,12,-1
389 804 m 1,16,-1
 247 639 l 1,17,-1
 148 710 l 1,18,-1
 261 894 l 1,19,-1
 389 804 l 1,16,-1
EndSplineSet
EndChar

StartChar: plus
Encoding: 43 43 14
Width: 826
GlyphClass: 2
Flags: W
LayerCount: 2
Fore
SplineSet
826 367 m 1,0,-1
 543 367 l 1,1,-1
 543 30 l 1,2,-1
 369 30 l 1,3,-1
 369 367 l 1,4,-1
 58 367 l 1,5,-1
 58 541 l 1,6,-1
 369 541 l 1,7,-1
 369 879 l 1,8,-1
 543 879 l 1,9,-1
 543 541 l 1,10,-1
 826 541 l 1,11,-1
 826 367 l 1,0,-1
EndSplineSet
EndChar

StartChar: comma
Encoding: 44 44 15
Width: 379
GlyphClass: 2
Flags: W
LayerCount: 2
Fore
SplineSet
378 71 m 1,0,-1
 247 -398 l 1,1,-1
 54 -398 l 1,2,-1
 176 71 l 1,3,-1
 378 71 l 1,0,-1
EndSplineSet
EndChar

StartChar: hyphen
Encoding: 45 45 16
Width: 593
GlyphClass: 2
Flags: W
LayerCount: 2
Fore
SplineSet
593 272 m 1,0,-1
 55 272 l 1,1,-1
 55 440 l 1,2,-1
 593 440 l 1,3,-1
 593 272 l 1,0,-1
EndSplineSet
EndChar

StartChar: period
Encoding: 46 46 17
Width: 266
GlyphClass: 2
Flags: W
LayerCount: 2
Fore
SplineSet
270 -7 m 1,0,-1
 54 -7 l 1,1,-1
 54 259 l 1,2,-1
 270 259 l 1,3,-1
 270 -7 l 1,0,-1
EndSplineSet
EndChar

StartChar: slash
Encoding: 47 47 18
Width: 646
GlyphClass: 2
Flags: W
LayerCount: 2
Fore
SplineSet
667 1280 m 1,0,-1
 219 -281 l 1,1,-1
 53 -281 l 1,2,-1
 499 1280 l 1,3,-1
 667 1280 l 1,0,-1
EndSplineSet
EndChar

StartChar: zero
Encoding: 48 48 19
Width: 928
GlyphClass: 2
Flags: W
LayerCount: 2
Fore
SplineSet
814.5 143 m 128,-1,1
 709 -20 709 -20 505 -20 c 128,-1,2
 301 -20 301 -20 198 143.5 c 128,-1,3
 95 307 95 307 95 574 c 0,4,5
 95 988 95 988 325 1118 c 0,6,7
 403 1162 403 1162 510 1162 c 128,-1,8
 617 1162 617 1162 694.5 1118 c 128,-1,9
 772 1074 772 1074 822 996 c 0,10,11
 920 843 920 843 920 574.5 c 128,-1,0
 920 306 920 306 814.5 143 c 128,-1,1
725 574 m 128,-1,13
 725 786 725 786 668 886.5 c 128,-1,14
 611 987 611 987 507 987 c 128,-1,15
 403 987 403 987 342.5 886.5 c 128,-1,16
 282 786 282 786 282 575 c 128,-1,17
 282 364 282 364 343.5 257.5 c 128,-1,18
 405 151 405 151 508.5 151 c 128,-1,19
 612 151 612 151 668.5 256.5 c 128,-1,12
 725 362 725 362 725 574 c 128,-1,13
EndSplineSet
EndChar

StartChar: one
Encoding: 49 49 20
Width: 482
GlyphClass: 2
Flags: W
LayerCount: 2
Fore
SplineSet
483 -2 m 1,0,-1
 315 -2 l 1,1,-1
 315 957 l 1,2,-1
 94 870 l 1,3,-1
 94 1051 l 1,4,-1
 315 1145 l 1,5,-1
 483 1145 l 1,6,-1
 483 -2 l 1,0,-1
EndSplineSet
EndChar

StartChar: two
Encoding: 50 50 21
Width: 793
GlyphClass: 2
Flags: W
LayerCount: 2
Fore
SplineSet
97 1101 m 1,0,1
 213 1159 213 1159 376.5 1159 c 128,-1,2
 540 1159 540 1159 651.5 1071.5 c 128,-1,3
 763 984 763 984 763 819 c 0,4,5
 762 620 762 620 574 408 c 0,6,7
 542 372 542 372 510 339 c 2,8,-1
 347 176 l 1,9,-1
 795 176 l 1,10,-1
 795 1 l 1,11,-1
 97 1 l 1,12,-1
 97 170 l 1,13,14
 120 193 120 193 152.5 224.5 c 128,-1,15
 185 256 185 256 222 294 c 128,-1,16
 259 332 259 332 298.5 375 c 128,-1,17
 338 418 338 418 376 463 c 0,18,19
 571 694 571 694 571 810 c 0,20,21
 571 910 571 910 490 954 c 0,22,23
 428 988 428 988 330 988.5 c 128,-1,24
 232 989 232 989 97 925 c 1,25,-1
 97 1101 l 1,0,1
EndSplineSet
EndChar

StartChar: three
Encoding: 51 51 22
Width: 824
GlyphClass: 2
Flags: W
LayerCount: 2
Fore
SplineSet
537 680 m 1,0,1
 822 636 822 636 822 353 c 0,2,3
 822 281 822 281 791 209 c 128,-1,4
 760 137 760 137 702 86 c 0,5,6
 581 -21 581 -21 382 -21 c 0,7,8
 230 -21 230 -21 96 26 c 1,9,-1
 96 217 l 1,10,11
 258 167 258 167 371 167 c 0,12,13
 634 167 634 167 634 378 c 0,14,15
 634 538 634 538 388 538 c 0,16,17
 347 538 347 538 298 529 c 1,18,-1
 298 663 l 1,19,-1
 528 970 l 1,20,-1
 114 970 l 1,21,-1
 114 1147 l 1,22,-1
 764 1147 l 1,23,-1
 764 973 l 1,24,-1
 537 680 l 1,0,1
EndSplineSet
EndChar

StartChar: four
Encoding: 52 52 23
Width: 883
GlyphClass: 2
Flags: W
LayerCount: 2
Fore
SplineSet
883 229 m 1,0,-1
 771 229 l 1,1,-1
 771 1 l 1,2,-1
 590 1 l 1,3,-1
 590 229 l 1,4,-1
 97 229 l 1,5,-1
 97 392 l 1,6,-1
 555 1143 l 1,7,-1
 771 1143 l 1,8,-1
 771 413 l 1,9,-1
 883 413 l 1,10,-1
 883 229 l 1,0,-1
590 413 m 1,11,-1
 590 927 l 1,12,-1
 295 413 l 1,13,-1
 590 413 l 1,11,-1
EndSplineSet
EndChar

StartChar: five
Encoding: 53 53 24
Width: 795
GlyphClass: 2
Flags: W
LayerCount: 2
Fore
SplineSet
296 703 m 1,0,1
 376 719 376 719 446.5 719 c 128,-1,2
 517 719 517 719 586.5 691.5 c 128,-1,3
 656 664 656 664 702 617 c 0,4,5
 794 523 794 523 794 374 c 0,6,7
 794 189 794 189 673 84 c 0,8,9
 552 -20 552 -20 328 -20 c 0,10,11
 232 -20 232 -20 96 18 c 1,12,-1
 96 210 l 1,13,14
 228 172 228 172 330 172 c 0,15,16
 609 172 609 172 609 368 c 0,17,18
 609 545 609 545 368 545 c 0,19,20
 264 545 264 545 176 508 c 1,21,-1
 109 609 l 1,22,-1
 181 1146 l 1,23,-1
 727 1146 l 1,24,-1
 727 965 l 1,25,-1
 334 965 l 1,26,-1
 296 703 l 1,0,1
EndSplineSet
EndChar

StartChar: six
Encoding: 54 54 25
Width: 847
GlyphClass: 2
Flags: W
LayerCount: 2
Fore
SplineSet
752 983 m 1,0,1
 694 989 694 989 640 989 c 128,-1,2
 586 989 586 989 522 963 c 0,3,4
 329 885 329 885 269 610 c 1,5,6
 339 680 339 680 395 705.5 c 128,-1,7
 451 731 451 731 518 731 c 0,8,9
 661 731 661 731 754.5 636 c 128,-1,10
 848 541 848 541 848 362 c 128,-1,11
 848 183 848 183 737.5 81 c 128,-1,12
 627 -21 627 -21 476 -21 c 0,13,14
 286 -21 286 -21 191.5 107 c 128,-1,15
 97 235 97 235 97 511 c 0,16,17
 97 786 97 786 238 964 c 0,18,19
 396 1164 396 1164 691 1164 c 2,20,-1
 718 1164 l 1,21,-1
 752 1162 l 1,22,-1
 752 983 l 1,0,1
470 157 m 0,23,24
 667 157 667 157 667 354 c 0,25,26
 667 518 667 518 549 550 c 0,27,28
 512 560 512 560 470 559 c 0,29,30
 379 559 379 559 332 513.5 c 128,-1,31
 285 468 285 468 285 362 c 0,32,33
 284 198 284 198 392 167 c 0,34,35
 426 157 426 157 470 157 c 0,23,24
EndSplineSet
EndChar

StartChar: seven
Encoding: 55 55 26
Width: 769
GlyphClass: 2
Flags: W
LayerCount: 2
Fore
SplineSet
765 988 m 1,0,-1
 371 1 l 1,1,-1
 180 1 l 1,2,-1
 556 969 l 1,3,-1
 97 969 l 1,4,-1
 97 1146 l 1,5,-1
 765 1146 l 1,6,-1
 765 988 l 1,0,-1
EndSplineSet
EndChar

StartChar: eight
Encoding: 56 56 27
Width: 852
GlyphClass: 2
Flags: W
LayerCount: 2
Fore
SplineSet
846 397 m 0,0,1
 856 354 856 354 855.5 289.5 c 128,-1,2
 855 225 855 225 831.5 170 c 0,3,4
 808 114 808 114 771 78 c 0,5,6
 708 16 708 16 584.5 -13.5 c 128,-1,7
 461 -43 461 -43 324.5 0 c 128,-1,8
 188 43 188 43 126 165 c 0,9,10
 95 226 95 226 95 290 c 0,11,12
 95 406 95 406 137 480.5 c 128,-1,13
 179 555 179 555 281 611 c 1,14,15
 203 667 203 667 174.5 731 c 128,-1,16
 146 795 146 795 146 868 c 128,-1,17
 146 941 146 941 172 995.5 c 128,-1,18
 198 1050 198 1050 243 1087.5 c 128,-1,19
 288 1125 288 1125 348 1144 c 128,-1,20
 408 1163 408 1163 476 1163 c 0,21,22
 617 1163 617 1163 711 1085 c 128,-1,23
 805 1007 805 1007 805 871 c 0,24,25
 805 795 805 795 776.5 731 c 128,-1,26
 748 667 748 667 670 611 c 1,27,28
 817 529 817 529 846 397 c 0,0,1
628.5 790.5 m 128,-1,30
 642 820 642 820 642 860.5 c 128,-1,31
 642 901 642 901 628 929 c 128,-1,32
 614 957 614 957 591 975 c 128,-1,33
 568 993 568 993 538 1001.5 c 128,-1,34
 508 1010 508 1010 476 1010 c 0,35,36
 406 1010 406 1010 357 972.5 c 128,-1,37
 308 935 308 935 308 862 c 0,38,39
 308 754 308 754 413 704 c 0,40,41
 443 690 443 690 476 679 c 1,42,43
 553 705 553 705 584 733 c 128,-1,29
 615 761 615 761 628.5 790.5 c 128,-1,30
659 242 m 0,44,45
 675 276 675 276 675 324 c 0,46,47
 675 408 675 408 612 460 c 0,48,49
 577 488 577 488 476 526 c 1,50,51
 373 486 373 486 342 461 c 0,52,53
 276 409 276 409 276 321.5 c 128,-1,54
 276 234 276 234 333 187.5 c 128,-1,55
 390 141 390 141 476 141 c 0,56,57
 612 140 612 140 659 242 c 0,44,45
EndSplineSet
EndChar

StartChar: nine
Encoding: 57 57 28
Width: 844
GlyphClass: 2
Flags: W
LayerCount: 2
Fore
SplineSet
467 1163 m 0,0,1
 842 1163 842 1163 842 680 c 128,-1,2
 842 197 842 197 518 47 c 0,3,4
 406 -5 406 -5 250 -5 c 2,5,-1
 224 -5 l 1,6,-1
 191 -3 l 1,7,-1
 191 175 l 1,8,9
 239 170 239 170 277 170 c 0,10,11
 596 170 596 170 673 527 c 1,12,13
 602 456 602 456 547 430.5 c 128,-1,14
 492 405 492 405 425 405 c 0,15,16
 280 405 280 405 187.5 502.5 c 128,-1,17
 95 600 95 600 95 778.5 c 128,-1,18
 95 957 95 957 204.5 1060 c 128,-1,19
 314 1163 314 1163 467 1163 c 0,0,1
463 576 m 0,20,21
 651 576 651 576 651 779 c 0,22,23
 651 943 651 943 541 974 c 0,24,25
 506 984 506 984 463 984 c 0,26,27
 268 984 268 984 268 780 c 128,-1,28
 268 576 268 576 463 576 c 0,20,21
EndSplineSet
EndChar

StartChar: colon
Encoding: 58 58 29
Width: 271
GlyphClass: 2
Flags: W
LayerCount: 2
Fore
SplineSet
274 541 m 1,0,-1
 58 541 l 1,1,-1
 58 799 l 1,2,-1
 274 799 l 1,3,-1
 274 541 l 1,0,-1
274 62 m 1,4,-1
 58 62 l 1,5,-1
 58 319 l 1,6,-1
 274 319 l 1,7,-1
 274 62 l 1,4,-1
EndSplineSet
EndChar

StartChar: semicolon
Encoding: 59 59 30
Width: 381
GlyphClass: 2
Flags: W
LayerCount: 2
Fore
SplineSet
380 191 m 1,0,-1
 164 191 l 1,1,-1
 164 439 l 1,2,-1
 380 439 l 1,3,-1
 380 191 l 1,0,-1
378 71 m 1,4,-1
 247 -398 l 1,5,-1
 54 -398 l 1,6,-1
 176 71 l 1,7,-1
 378 71 l 1,4,-1
EndSplineSet
EndChar

StartChar: less
Encoding: 60 60 31
Width: 605
GlyphClass: 2
Flags: W
LayerCount: 2
Fore
SplineSet
605 25 m 1,0,-1
 54 341 l 1,1,-1
 54 571 l 1,2,-1
 605 885 l 1,3,-1
 605 685 l 1,4,-1
 230 454 l 1,5,-1
 605 228 l 1,6,-1
 605 25 l 1,0,-1
EndSplineSet
EndChar

StartChar: equal
Encoding: 61 61 32
Width: 711
GlyphClass: 2
Flags: W
LayerCount: 2
Fore
SplineSet
711 479 m 1,0,-1
 54 479 l 1,1,-1
 54 659 l 1,2,-1
 711 659 l 1,3,-1
 711 479 l 1,0,-1
711 146 m 1,4,-1
 54 146 l 1,5,-1
 54 333 l 1,6,-1
 711 333 l 1,7,-1
 711 146 l 1,4,-1
EndSplineSet
EndChar

StartChar: greater
Encoding: 62 62 33
Width: 605
GlyphClass: 2
Flags: W
LayerCount: 2
Fore
SplineSet
605 341 m 1,0,-1
 54 15 l 1,1,-1
 54 218 l 1,2,-1
 429 454 l 1,3,-1
 54 695 l 1,4,-1
 54 895 l 1,5,-1
 605 571 l 1,6,-1
 605 341 l 1,0,-1
EndSplineSet
EndChar

StartChar: question
Encoding: 63 63 34
Width: 754
GlyphClass: 2
Flags: W
LayerCount: 2
Fore
SplineSet
54 1256 m 1,0,1
 196 1306 196 1306 316 1306 c 0,2,3
 536 1306 536 1306 644 1199.5 c 128,-1,4
 752 1093 752 1093 752 912 c 0,5,6
 752 783 752 783 681.5 687 c 128,-1,7
 611 591 611 591 526 561 c 1,8,-1
 508 551 l 1,9,-1
 492 536 l 1,10,-1
 479 512 l 1,11,-1
 474 476 l 1,12,-1
 474 315 l 1,13,-1
 278 315 l 1,14,-1
 278 551 l 2,15,16
 278 674 278 674 339 704 c 0,17,18
 354 712 354 712 376 720 c 0,19,20
 437 742 437 742 482 790.5 c 128,-1,21
 527 839 527 839 527 895 c 0,22,23
 527 991 527 991 457 1040 c 128,-1,24
 387 1089 387 1089 276.5 1089 c 128,-1,25
 166 1089 166 1089 54 1049 c 1,26,-1
 54 1256 l 1,0,1
476 -17 m 1,27,-1
 269 -17 l 1,28,-1
 269 201 l 1,29,-1
 476 201 l 1,30,-1
 476 -17 l 1,27,-1
EndSplineSet
EndChar

StartChar: at
Encoding: 64 64 35
Width: 1512
GlyphClass: 2
Flags: W
LayerCount: 2
Fore
SplineSet
915 201 m 1,0,1
 842 77 842 77 654 77 c 0,2,3
 602 76 602 76 556 102 c 0,4,5
 426 172 426 172 426 370 c 0,6,7
 426 609 426 609 550 770 c 128,-1,8
 674 931 674 931 891 931 c 0,9,10
 1010 931 1010 931 1111 901 c 1,11,-1
 1039 384 l 2,12,13
 1036 363 1036 363 1036 334 c 0,14,15
 1036 259 1036 259 1105 259 c 0,16,17
 1272 258 1272 258 1341 516 c 0,18,19
 1366 609 1366 609 1366 707 c 0,20,21
 1366 910 1366 910 1248.5 1025.5 c 128,-1,22
 1131 1141 1131 1141 919 1141 c 0,23,24
 606 1141 606 1141 410.5 938 c 128,-1,25
 215 735 215 735 215 422 c 0,26,27
 215 188 215 188 362.5 35 c 128,-1,28
 510 -118 510 -118 746 -118 c 0,29,30
 879 -118 879 -118 1003 -60 c 1,31,-1
 1052 -202 l 1,32,33
 892 -278 892 -278 734 -278 c 0,34,35
 431 -278 431 -278 245.5 -80.5 c 128,-1,36
 60 117 60 117 60 413 c 0,37,38
 60 801 60 801 304 1053 c 0,39,40
 550 1307 550 1307 942 1307 c 0,41,42
 1207 1307 1207 1307 1359.5 1140 c 128,-1,43
 1512 973 1512 973 1512 700 c 0,44,45
 1512 478 1512 478 1408.5 310 c 0,46,47
 1306 142 1306 142 1130 98 c 0,48,49
 1096 90 1096 90 1062 90 c 0,50,51
 945 90 945 90 915 201 c 1,0,1
596 425 m 0,52,53
 596 251 596 251 734 251 c 0,54,55
 794 251 794 251 835.5 281 c 128,-1,56
 877 311 877 311 885 373 c 2,57,-1
 936 747 l 1,58,59
 903 757 903 757 849.5 757 c 128,-1,60
 796 757 796 757 745 728.5 c 128,-1,61
 694 700 694 700 661 654 c 0,62,63
 596 562 596 562 596 425 c 0,52,53
EndSplineSet
EndChar

StartChar: A
Encoding: 65 65 36
Width: 1114
GlyphClass: 2
Flags: W
LayerCount: 2
Fore
SplineSet
1114 0 m 1,0,-1
 896 0 l 1,1,-1
 824 278 l 1,2,-1
 384 278 l 1,3,-1
 310 0 l 1,4,-1
 100 0 l 1,5,-1
 480 1284 l 1,6,-1
 738 1284 l 1,7,-1
 1114 0 l 1,0,-1
771 473 m 1,8,-1
 600 1109 l 1,9,-1
 433 473 l 1,10,-1
 771 473 l 1,8,-1
EndSplineSet
EndChar

StartChar: B
Encoding: 66 66 37
Width: 902
GlyphClass: 2
Flags: W
LayerCount: 2
Fore
SplineSet
876 494 m 0,0,1
 900 434 900 434 900 354.5 c 128,-1,2
 900 275 900 275 882 219.5 c 128,-1,3
 864 164 864 164 832 126 c 0,4,5
 729 1 729 1 459 0 c 2,6,-1
 97 0 l 1,7,-1
 97 1284 l 1,8,-1
 422 1284 l 2,9,10
 708 1284 708 1284 788 1114 c 0,11,12
 817 1052 817 1052 817 978 c 0,13,14
 817 849 817 849 767.5 770 c 128,-1,15
 718 691 718 691 641 679 c 1,16,17
 811 660 811 660 876 494 c 0,0,1
609 841.5 m 128,-1,19
 626 875 626 875 626 927 c 0,20,21
 626 1022 626 1022 573.5 1054 c 128,-1,22
 521 1086 521 1086 416 1086 c 2,23,-1
 291 1086 l 1,24,-1
 291 753 l 1,25,-1
 414 753 l 2,26,27
 511 753 511 753 551.5 780.5 c 128,-1,18
 592 808 592 808 609 841.5 c 128,-1,19
635 515.5 m 128,-1,29
 578 558 578 558 474 558 c 2,30,-1
 291 558 l 1,31,-1
 291 202 l 1,32,-1
 459 202 l 2,33,34
 577 202 577 202 616 222 c 0,35,36
 692 262 692 262 692 367.5 c 128,-1,28
 692 473 692 473 635 515.5 c 128,-1,29
EndSplineSet
EndChar

StartChar: C
Encoding: 67 67 38
Width: 857
GlyphClass: 2
Flags: W
LayerCount: 2
Fore
SplineSet
493 202 m 128,-1,1
 559 179 559 179 661 179 c 128,-1,2
 763 179 763 179 854 208 c 1,3,-1
 854 15 l 1,4,5
 739 -22 739 -22 614 -22 c 0,6,7
 363 -22 363 -22 230 154 c 128,-1,8
 97 330 97 330 97 648 c 0,9,10
 98 1138 98 1138 394 1265 c 0,11,12
 490 1306 490 1306 617 1306 c 128,-1,13
 744 1306 744 1306 840 1269 c 1,14,-1
 840 1078 l 1,15,16
 750 1105 750 1105 651.5 1105 c 128,-1,17
 553 1105 553 1105 489.5 1084 c 128,-1,18
 426 1063 426 1063 382.5 1011 c 128,-1,19
 339 959 339 959 316.5 870.5 c 128,-1,20
 294 782 294 782 294 648 c 128,-1,21
 294 514 294 514 316 424 c 128,-1,22
 338 334 338 334 382.5 279.5 c 128,-1,0
 427 225 427 225 493 202 c 128,-1,1
EndSplineSet
EndChar

StartChar: D
Encoding: 68 68 39
Width: 961
GlyphClass: 2
Flags: W
LayerCount: 2
Fore
SplineSet
828.5 146 m 128,-1,1
 699 0 699 0 406 0 c 2,2,-1
 97 0 l 1,3,-1
 97 1282 l 1,4,-1
 410 1282 l 2,5,6
 694 1282 694 1282 826 1119.5 c 128,-1,7
 958 957 958 957 958 624.5 c 128,-1,0
 958 292 958 292 828.5 146 c 128,-1,1
658 992.5 m 128,-1,9
 570 1086 570 1086 376 1086 c 2,10,-1
 296 1086 l 1,11,-1
 296 202 l 1,12,-1
 373 202 l 2,13,14
 572 202 572 202 659 294.5 c 128,-1,15
 746 387 746 387 746 643 c 128,-1,8
 746 899 746 899 658 992.5 c 128,-1,9
EndSplineSet
EndChar

StartChar: E
Encoding: 69 69 40
Width: 800
GlyphClass: 2
Flags: W
LayerCount: 2
Fore
SplineSet
798 0 m 1,0,-1
 96 0 l 1,1,-1
 96 1284 l 1,2,-1
 798 1284 l 1,3,-1
 798 1088 l 1,4,-1
 295 1088 l 1,5,-1
 295 763 l 1,6,-1
 738 763 l 1,7,-1
 738 558 l 1,8,-1
 295 558 l 1,9,-1
 295 202 l 1,10,-1
 798 202 l 1,11,-1
 798 0 l 1,0,-1
EndSplineSet
EndChar

StartChar: F
Encoding: 70 70 41
Width: 800
GlyphClass: 2
Flags: W
LayerCount: 2
Fore
SplineSet
798 1088 m 1,0,-1
 295 1088 l 1,1,-1
 295 733 l 1,2,-1
 738 733 l 1,3,-1
 738 528 l 1,4,-1
 295 528 l 1,5,-1
 295 2 l 1,6,-1
 96 0 l 1,7,-1
 96 1284 l 1,8,-1
 798 1284 l 1,9,-1
 798 1088 l 1,0,-1
EndSplineSet
EndChar

StartChar: G
Encoding: 71 71 42
Width: 932
GlyphClass: 2
Flags: W
LayerCount: 2
Fore
SplineSet
496 193.5 m 128,-1,1
 553 179 553 179 643.5 180.5 c 128,-1,2
 734 182 734 182 734 239 c 2,3,-1
 734 497 l 1,4,-1
 606 497 l 1,5,-1
 606 683 l 1,6,-1
 934 683 l 1,7,8
 932 417 932 417 932 155 c 0,9,10
 932 108 932 108 908 73 c 0,11,12
 863 8 863 8 816 -2 c 0,13,14
 730 -19 730 -19 612.5 -19 c 128,-1,15
 495 -19 495 -19 416 6 c 0,16,17
 336 31 336 31 280 76 c 0,18,19
 175 160 175 160 133.5 303.5 c 128,-1,20
 92 447 92 447 92 589 c 128,-1,21
 92 731 92 731 103 813 c 0,22,23
 114 894 114 894 138 968 c 0,24,25
 190 1123 190 1123 305 1213 c 128,-1,26
 420 1303 420 1303 592 1303 c 128,-1,27
 764 1303 764 1303 864 1256 c 1,28,-1
 864 1067 l 1,29,30
 747 1102 747 1102 634 1102 c 0,31,32
 430 1102 430 1102 351 969 c 0,33,34
 290 867 290 867 290 675 c 128,-1,35
 290 483 290 483 304 416 c 128,-1,36
 318 349 318 349 340.5 307 c 128,-1,37
 363 265 363 265 401 236.5 c 128,-1,0
 439 208 439 208 496 193.5 c 128,-1,1
EndSplineSet
EndChar

StartChar: H
Encoding: 72 72 43
Width: 851
GlyphClass: 2
Flags: W
LayerCount: 2
Fore
SplineSet
849 0 m 1,0,-1
 648 0 l 1,1,-1
 648 564 l 1,2,-1
 298 564 l 1,3,-1
 298 0 l 1,4,-1
 97 0 l 1,5,-1
 97 1284 l 1,6,-1
 298 1284 l 1,7,-1
 298 772 l 1,8,-1
 648 772 l 1,9,-1
 648 1284 l 1,10,-1
 849 1284 l 1,11,-1
 849 0 l 1,0,-1
EndSplineSet
EndChar

StartChar: I
Encoding: 73 73 44
Width: 296
GlyphClass: 2
Flags: W
LayerCount: 2
Fore
SplineSet
297 0 m 1,0,-1
 96 0 l 1,1,-1
 96 1284 l 1,2,-1
 297 1284 l 1,3,-1
 297 0 l 1,0,-1
EndSplineSet
EndChar

StartChar: J
Encoding: 74 74 45
Width: 602
GlyphClass: 2
Flags: W
LayerCount: 2
Fore
SplineSet
94 208 m 1,0,1
 168 180 168 180 213 180 c 0,2,3
 300 180 300 180 352.5 230.5 c 128,-1,4
 405 281 405 281 405 383 c 2,5,-1
 405 1284 l 1,6,-1
 603 1284 l 1,7,-1
 603 373 l 2,8,9
 603 189 603 189 508.5 86.5 c 128,-1,10
 414 -16 414 -16 260 -16 c 0,11,12
 182 -16 182 -16 94 12 c 1,13,-1
 94 208 l 1,0,1
EndSplineSet
EndChar

StartChar: K
Encoding: 75 75 46
Width: 960
GlyphClass: 2
Flags: W
LayerCount: 2
Fore
SplineSet
961 0 m 1,0,-1
 731 0 l 1,1,-1
 370 555 l 1,2,-1
 295 449 l 1,3,-1
 295 0 l 1,4,-1
 96 0 l 1,5,-1
 96 1284 l 1,6,-1
 295 1284 l 1,7,-1
 295 741 l 1,8,-1
 702 1284 l 1,9,-1
 930 1284 l 1,10,-1
 521 713 l 1,11,-1
 961 0 l 1,0,-1
EndSplineSet
EndChar

StartChar: L
Encoding: 76 76 47
Width: 696
GlyphClass: 2
Flags: W
LayerCount: 2
Fore
SplineSet
692 0 m 1,0,-1
 95 0 l 1,1,-1
 95 1284 l 1,2,-1
 290 1284 l 1,3,-1
 290 208 l 1,4,-1
 692 208 l 1,5,-1
 692 0 l 1,0,-1
EndSplineSet
EndChar

StartChar: M
Encoding: 77 77 48
Width: 1160
GlyphClass: 2
Flags: W
LayerCount: 2
Fore
SplineSet
1158 0 m 1,0,-1
 975 0 l 1,1,-1
 975 1018 l 1,2,-1
 717 60 l 1,3,-1
 534 60 l 1,4,-1
 278 1018 l 1,5,-1
 278 0 l 1,6,-1
 93 0 l 1,7,-1
 93 1284 l 1,8,-1
 389 1284 l 1,9,-1
 624 373 l 1,10,-1
 862 1284 l 1,11,-1
 1158 1284 l 1,12,-1
 1158 0 l 1,0,-1
EndSplineSet
EndChar

StartChar: N
Encoding: 78 78 49
Width: 947
GlyphClass: 2
Flags: W
LayerCount: 2
Fore
SplineSet
763 309 m 1,0,1
 757 411 757 411 757 438 c 2,2,-1
 757 1284 l 1,3,-1
 946 1284 l 1,4,-1
 946 0 l 1,5,-1
 703 0 l 1,6,-1
 280 977 l 1,7,-1
 284 860 l 1,8,-1
 284 0 l 1,9,-1
 95 0 l 1,10,-1
 95 1284 l 1,11,-1
 327 1284 l 1,12,-1
 763 309 l 1,0,1
EndSplineSet
EndChar

StartChar: O
Encoding: 79 79 50
Width: 1035
GlyphClass: 2
Flags: W
LayerCount: 2
Fore
SplineSet
96 644 m 0,0,1
 96 1301 96 1301 565 1301 c 128,-1,2
 1034 1301 1034 1301 1034 644 c 0,3,4
 1034 170 1034 170 783 33 c 0,5,6
 692 -16 692 -16 564 -16 c 0,7,8
 318 -16 318 -16 202 170 c 0,9,10
 96 337 96 337 96 644 c 0,0,1
828 651 m 128,-1,12
 828 892 828 892 770.5 999.5 c 128,-1,13
 713 1107 713 1107 567.5 1107 c 128,-1,14
 422 1107 422 1107 362 1000 c 128,-1,15
 302 893 302 893 302 650.5 c 128,-1,16
 302 408 302 408 361.5 296.5 c 128,-1,17
 421 185 421 185 563.5 185 c 128,-1,18
 706 185 706 185 767 297.5 c 128,-1,11
 828 410 828 410 828 651 c 128,-1,12
EndSplineSet
EndChar

StartChar: P
Encoding: 80 80 51
Width: 881
GlyphClass: 2
Flags: W
LayerCount: 2
Fore
SplineSet
429 1284 m 2,0,1
 882 1284 882 1284 882 873 c 0,2,3
 882 532 882 532 642 447 c 0,4,5
 555 416 555 416 429 416 c 2,6,-1
 295 416 l 1,7,-1
 295 0 l 1,8,-1
 96 0 l 1,9,-1
 96 1284 l 1,10,-1
 429 1284 l 2,0,1
676 854 m 0,11,12
 676 1006 676 1006 594 1060 c 0,13,14
 539 1096 539 1096 411 1097 c 2,15,-1
 295 1097 l 1,16,-1
 295 615 l 1,17,-1
 411 615 l 2,18,19
 540 615 540 615 585.5 644 c 128,-1,20
 631 673 631 673 653.5 721 c 128,-1,21
 676 769 676 769 676 854 c 0,11,12
EndSplineSet
EndChar

StartChar: Q
Encoding: 81 81 52
Width: 1141
GlyphClass: 2
Flags: W
LayerCount: 2
Fore
SplineSet
564 -16 m 0,0,1
 96 -16 96 -16 96 639.5 c 128,-1,2
 96 1295 96 1295 565 1295 c 128,-1,3
 1034 1295 1034 1295 1034 638 c 0,4,5
 1034 393 1034 393 967 238 c 1,6,-1
 1150 186 l 1,7,-1
 1055 2 l 1,8,-1
 875 99 l 1,9,10
 762 -16 762 -16 564 -16 c 0,0,1
774 307 m 1,11,12
 828 413 828 413 828 649.5 c 128,-1,13
 828 886 828 886 770.5 993.5 c 128,-1,14
 713 1101 713 1101 567.5 1101 c 128,-1,15
 422 1101 422 1101 362 994 c 128,-1,16
 302 887 302 887 302 644.5 c 128,-1,17
 302 402 302 402 361.5 293.5 c 128,-1,18
 421 185 421 185 564 185 c 0,19,20
 634 185 634 185 684 211 c 1,21,-1
 572 269 l 1,22,-1
 612 352 l 1,23,-1
 774 307 l 1,11,12
EndSplineSet
EndChar

StartChar: R
Encoding: 82 82 53
Width: 904
GlyphClass: 2
Flags: W
LayerCount: 2
Fore
SplineSet
894 887 m 0,0,1
 894 580 894 580 647 512 c 1,2,-1
 923 0 l 1,3,-1
 691 0 l 1,4,-1
 442 475 l 1,5,-1
 293 475 l 1,6,-1
 293 0 l 1,7,-1
 94 0 l 1,8,-1
 94 1284 l 1,9,-1
 444 1284 l 2,10,11
 766 1284 766 1284 860 1078 c 0,12,13
 894 1002 894 1002 894 887 c 0,0,1
604 1070 m 0,14,15
 553 1096 553 1096 425 1097 c 2,16,-1
 293 1097 l 1,17,-1
 293 677 l 1,18,-1
 425 677 l 2,19,20
 556 678 556 678 600 700 c 0,21,22
 690 747 690 747 688.5 887 c 128,-1,23
 687 1027 687 1027 604 1070 c 0,14,15
EndSplineSet
EndChar

StartChar: S
Encoding: 83 83 54
Width: 874
GlyphClass: 2
Flags: W
LayerCount: 2
Fore
SplineSet
547 1114 m 0,0,1
 308 1114 308 1114 308 965 c 0,2,3
 308 871 308 871 414 826 c 0,4,5
 444 813 444 813 513 786 c 0,6,7
 700 712 700 712 784 628.5 c 128,-1,8
 868 545 868 545 868 370.5 c 128,-1,9
 868 196 868 196 752.5 88 c 128,-1,10
 637 -20 637 -20 418 -20 c 0,11,12
 265 -20 265 -20 208 -1 c 128,-1,13
 151 18 151 18 111 39 c 1,14,-1
 111 262 l 1,15,16
 193 198 193 198 324 192 c 0,17,18
 359 190 359 190 390 190 c 0,19,20
 644 190 644 190 644 372 c 0,21,22
 644 454 644 454 571 504 c 0,23,24
 525 536 525 536 404.5 581.5 c 0,25,26
 284 626 284 626 238 656 c 0,27,28
 94 749 94 749 95 967 c 0,29,30
 95 1126 95 1126 211 1218 c 128,-1,31
 327 1310 327 1310 518 1310 c 0,32,33
 647 1310 647 1310 707.5 1289.5 c 128,-1,34
 768 1269 768 1269 806 1248 c 1,35,-1
 806 1036 l 1,36,37
 716 1114 716 1114 547 1114 c 0,0,1
EndSplineSet
EndChar

StartChar: T
Encoding: 84 84 55
Width: 936
GlyphClass: 2
Flags: W
LayerCount: 2
Fore
SplineSet
935 1076 m 1,0,-1
 620 1076 l 1,1,-1
 620 0 l 1,2,-1
 410 0 l 1,3,-1
 410 1076 l 1,4,-1
 93 1076 l 1,5,-1
 93 1284 l 1,6,-1
 935 1284 l 1,7,-1
 935 1076 l 1,0,-1
EndSplineSet
EndChar

StartChar: U
Encoding: 85 85 56
Width: 955
GlyphClass: 2
Flags: W
LayerCount: 2
Fore
SplineSet
956 529 m 2,0,1
 956 256 956 256 871 128 c 0,2,3
 771 -24 771 -24 525 -24 c 0,4,5
 172 -24 172 -24 112 303 c 0,6,7
 94 405 94 405 93 529 c 2,8,-1
 93 1283 l 1,9,-1
 296 1283 l 1,10,-1
 296 531 l 2,11,12
 296 342 296 342 342 265 c 0,13,14
 388 188 388 188 524 188 c 0,15,16
 661 188 661 188 706 265 c 0,17,18
 751 342 751 342 751 531 c 2,19,-1
 751 1283 l 1,20,-1
 956 1283 l 1,21,-1
 956 529 l 2,0,1
EndSplineSet
EndChar

StartChar: V
Encoding: 86 86 57
Width: 1064
GlyphClass: 2
Flags: W
LayerCount: 2
Fore
SplineSet
1067 1284 m 1,0,-1
 696 0 l 1,1,-1
 459 0 l 1,2,-1
 89 1284 l 1,3,-1
 304 1284 l 1,4,-1
 584 262 l 1,5,-1
 855 1284 l 1,6,-1
 1067 1284 l 1,0,-1
EndSplineSet
EndChar

StartChar: W
Encoding: 87 87 58
Width: 1259
GlyphClass: 2
Flags: W
LayerCount: 2
Fore
SplineSet
1258 1284 m 1,0,-1
 1208 0 l 1,1,-1
 932 0 l 1,2,-1
 674 840 l 1,3,-1
 419 0 l 1,4,-1
 143 0 l 1,5,-1
 93 1284 l 1,6,-1
 278 1284 l 1,7,-1
 328 265 l 1,8,-1
 584 1174 l 1,9,-1
 767 1174 l 1,10,-1
 1025 265 l 1,11,-1
 1075 1284 l 1,12,-1
 1258 1284 l 1,0,-1
EndSplineSet
EndChar

StartChar: X
Encoding: 88 88 59
Width: 1098
GlyphClass: 2
Flags: W
LayerCount: 2
Fore
SplineSet
1113 0 m 1,0,-1
 880 0 l 1,1,-1
 597 490 l 1,2,-1
 314 0 l 1,3,-1
 81 0 l 1,4,-1
 480 692 l 1,5,-1
 138 1284 l 1,6,-1
 371 1284 l 1,7,-1
 605 874 l 1,8,-1
 840 1284 l 1,9,-1
 1063 1284 l 1,10,-1
 713 692 l 1,11,-1
 1113 0 l 1,0,-1
EndSplineSet
EndChar

StartChar: Y
Encoding: 89 89 60
Width: 1039
GlyphClass: 2
Flags: W
LayerCount: 2
Fore
SplineSet
1043 1284 m 1,0,-1
 668 475 l 1,1,-1
 668 0 l 1,2,-1
 467 0 l 1,3,-1
 467 475 l 1,4,-1
 89 1284 l 1,5,-1
 296 1284 l 1,6,-1
 576 654 l 1,7,-1
 851 1284 l 1,8,-1
 1043 1284 l 1,0,-1
EndSplineSet
EndChar

StartChar: Z
Encoding: 90 90 61
Width: 807
GlyphClass: 2
Flags: W
LayerCount: 2
Fore
SplineSet
809 0 m 1,0,-1
 95 0 l 1,1,-1
 93 209 l 1,2,-1
 581 1086 l 1,3,-1
 114 1086 l 1,4,-1
 114 1284 l 1,5,-1
 806 1284 l 1,6,-1
 806 1066 l 1,7,-1
 306 189 l 1,8,-1
 809 189 l 1,9,-1
 809 0 l 1,0,-1
EndSplineSet
EndChar

StartChar: bracketleft
Encoding: 91 91 62
Width: 484
GlyphClass: 2
Flags: W
LayerCount: 2
Fore
SplineSet
484 -441 m 1,0,-1
 97 -441 l 1,1,-1
 97 1301 l 1,2,-1
 484 1301 l 1,3,-1
 484 1112 l 1,4,-1
 292 1112 l 1,5,-1
 292 -253 l 1,6,-1
 484 -253 l 1,7,-1
 484 -441 l 1,0,-1
EndSplineSet
EndChar

StartChar: backslash
Encoding: 92 92 63
Width: 646
GlyphClass: 2
Flags: W
LayerCount: 2
Fore
SplineSet
657 -281 m 1,0,-1
 491 -281 l 1,1,-1
 43 1280 l 1,2,-1
 211 1280 l 1,3,-1
 657 -281 l 1,0,-1
EndSplineSet
EndChar

StartChar: bracketright
Encoding: 93 93 64
Width: 484
GlyphClass: 2
Flags: W
LayerCount: 2
Fore
SplineSet
483 -441 m 1,0,-1
 96 -441 l 1,1,-1
 96 -253 l 1,2,-1
 288 -253 l 1,3,-1
 288 1112 l 1,4,-1
 96 1112 l 1,5,-1
 96 1301 l 1,6,-1
 483 1301 l 1,7,-1
 483 -441 l 1,0,-1
EndSplineSet
EndChar

StartChar: asciicircum
Encoding: 94 94 65
Width: 819
GlyphClass: 2
Flags: W
LayerCount: 2
Fore
SplineSet
827 632 m 1,0,-1
 635 632 l 1,1,-1
 435 1074 l 1,2,-1
 247 630 l 1,3,4
 192 630 192 630 149 631 c 128,-1,5
 106 632 106 632 54 632 c 1,6,-1
 343 1282 l 1,7,-1
 543 1282 l 1,8,-1
 827 632 l 1,0,-1
EndSplineSet
EndChar

StartChar: underscore
Encoding: 95 95 66
Width: 793
GlyphClass: 2
Flags: W
LayerCount: 2
Fore
SplineSet
795 -257 m 1,0,-1
 54 -257 l 1,1,-1
 54 -89 l 1,2,-1
 795 -89 l 1,3,-1
 795 -257 l 1,0,-1
EndSplineSet
EndChar

StartChar: grave
Encoding: 96 96 67
Width: 302
GlyphClass: 2
Flags: W
LayerCount: 2
Fore
SplineSet
298 823 m 1,0,-1
 184 823 l 1,1,-1
 44 1304 l 1,2,-1
 268 1304 l 1,3,-1
 298 823 l 1,0,-1
EndSplineSet
EndChar

StartChar: a
Encoding: 97 97 68
Width: 767
GlyphClass: 2
Flags: W
LayerCount: 2
Fore
SplineSet
117 882 m 1,0,1
 238 926 238 926 350 926 c 0,2,3
 562 926 562 926 662.5 841.5 c 128,-1,4
 763 757 763 757 763 560 c 2,5,-1
 763 -7 l 1,6,-1
 572 -7 l 1,7,-1
 568 73 l 1,8,9
 507 -20 507 -20 353 -20 c 0,10,11
 144 -20 144 -20 76 132 c 0,12,13
 50 188 50 188 50 278 c 0,14,15
 50 574 50 574 449 573 c 0,16,17
 519 573 519 573 568 566 c 1,18,-1
 568 600 l 2,19,20
 568 750 568 750 349 750 c 0,21,22
 260 750 260 750 117 694 c 1,23,-1
 117 882 l 1,0,1
480 428 m 0,24,25
 236 428 236 428 236 278 c 0,26,27
 236 178 236 178 326 162 c 0,28,29
 357 156 357 156 399 157 c 0,30,31
 528 157 528 157 568 238 c 1,32,-1
 568 422 l 1,33,34
 530 428 530 428 480 428 c 0,24,25
EndSplineSet
EndChar

StartChar: b
Encoding: 98 98 69
Width: 844
GlyphClass: 2
Flags: W
LayerCount: 2
Fore
SplineSet
240 802 m 1,0,1
 303 930 303 930 476 930 c 0,2,3
 738 930 738 930 816 674 c 0,4,5
 842 588 842 588 842 478 c 0,6,7
 842 256 842 256 742.5 118 c 128,-1,8
 643 -20 643 -20 458 -20 c 0,9,10
 307 -20 307 -20 234 73 c 1,11,-1
 228 -7 l 1,12,-1
 52 -7 l 1,13,-1
 52 1282 l 1,14,-1
 240 1282 l 1,15,-1
 240 802 l 1,0,1
414 182 m 0,16,17
 642 182 642 182 642 464 c 0,18,19
 642 599 642 599 593.5 668.5 c 128,-1,20
 545 738 545 738 420 738 c 128,-1,21
 295 738 295 738 254 624 c 0,22,23
 240 584 240 584 240 529 c 2,24,-1
 240 247 l 1,25,26
 305 182 305 182 414 182 c 0,16,17
EndSplineSet
EndChar

StartChar: c
Encoding: 99 99 70
Width: 702
GlyphClass: 2
Flags: W
LayerCount: 2
Fore
SplineSet
498 165 m 0,0,1
 611 165 611 165 701 207 c 1,2,-1
 701 15 l 1,3,4
 599 -20 599 -20 483 -20 c 0,5,6
 268 -20 268 -20 162 109.5 c 128,-1,7
 56 239 56 239 56 452 c 128,-1,8
 56 665 56 665 165 796.5 c 128,-1,9
 274 928 274 928 478 928 c 0,10,11
 584 928 584 928 691 890 c 1,12,-1
 691 708 l 1,13,14
 602 746 602 746 527 746 c 0,15,16
 384 746 384 746 316 674.5 c 128,-1,17
 248 603 248 603 248 451 c 0,18,19
 248 165 248 165 498 165 c 0,0,1
EndSplineSet
EndChar

StartChar: d
Encoding: 100 100 71
Width: 852
GlyphClass: 2
Flags: W
LayerCount: 2
Fore
SplineSet
426 930 m 0,0,1
 602 930 602 930 662 802 c 1,2,-1
 662 1295 l 1,3,-1
 852 1295 l 1,4,-1
 852 -7 l 1,5,-1
 675 -7 l 1,6,-1
 666 98 l 1,7,8
 589 -28 589 -28 420.5 -28 c 128,-1,9
 252 -28 252 -28 156.5 100 c 128,-1,10
 61 228 61 228 61 464 c 0,11,12
 60 813 60 813 276 902 c 0,13,14
 344 930 344 930 426 930 c 0,0,1
662 272 m 1,15,-1
 662 529 l 2,16,17
 662 687 662 687 548 726 c 0,18,19
 514 738 514 738 472 738 c 0,20,21
 358 738 358 738 309.5 668.5 c 128,-1,22
 261 599 261 599 261 493 c 0,23,24
 262 388 262 388 278 334 c 0,25,26
 325 183 325 183 483 182 c 0,27,28
 536 182 536 182 586 204 c 128,-1,29
 636 226 636 226 662 272 c 1,15,-1
EndSplineSet
EndChar

StartChar: e
Encoding: 101 101 72
Width: 850
GlyphClass: 2
Flags: W
LayerCount: 2
Fore
SplineSet
789 27 m 1,0,1
 662 -20 662 -20 523 -20 c 0,2,3
 274 -20 274 -20 164 105.5 c 128,-1,4
 54 231 54 231 54 448 c 128,-1,5
 54 665 54 665 163 796.5 c 128,-1,6
 272 928 272 928 456.5 928 c 128,-1,7
 641 928 641 928 742 807 c 128,-1,8
 843 686 843 686 843 497 c 0,9,10
 843 425 843 425 837 387 c 1,11,-1
 252 387 l 1,12,13
 252 199 252 199 432 168 c 0,14,15
 484 159 484 159 538 159 c 0,16,17
 667 159 667 159 789 211 c 1,18,-1
 789 27 l 1,0,1
659 541 m 1,19,20
 659 637 659 637 602 692.5 c 128,-1,21
 545 748 545 748 457.5 748 c 128,-1,22
 370 748 370 748 311 694 c 128,-1,23
 252 640 252 640 252 541 c 1,24,-1
 659 541 l 1,19,20
EndSplineSet
EndChar

StartChar: f
Encoding: 102 102 73
Width: 645
GlyphClass: 2
Flags: W
LayerCount: 2
Fore
SplineSet
568 1119 m 0,0,1
 391 1119 391 1119 391 948 c 2,2,-1
 391 903 l 1,3,-1
 605 903 l 1,4,-1
 605 730 l 1,5,-1
 391 730 l 1,6,-1
 391 4 l 1,7,-1
 206 4 l 1,8,-1
 206 730 l 1,9,-1
 55 730 l 1,10,-1
 55 903 l 1,11,-1
 206 903 l 1,12,-1
 206 955 l 2,13,14
 206 1118 206 1118 294 1210 c 128,-1,15
 382 1302 382 1302 524 1302 c 0,16,17
 590 1302 590 1302 646 1290 c 1,18,-1
 646 1107 l 1,19,20
 608 1119 608 1119 568 1119 c 0,0,1
EndSplineSet
EndChar

StartChar: g
Encoding: 103 103 74
Width: 946
GlyphClass: 2
Flags: W
LayerCount: 2
Fore
SplineSet
734 840 m 1,0,1
 833 847 833 847 951 924 c 1,2,-1
 951 727 l 1,3,4
 898 695 898 695 814 688 c 1,5,6
 824 656 824 656 824 598 c 0,7,8
 824 468 824 468 726.5 379.5 c 128,-1,9
 629 291 629 291 463 291 c 0,10,11
 400 291 400 291 320 309 c 1,12,13
 260 269 260 269 260 225.5 c 128,-1,14
 260 182 260 182 278 169 c 0,15,16
 312 144 312 144 375.5 143.5 c 128,-1,17
 439 143 439 143 600.5 140.5 c 128,-1,18
 762 138 762 138 839 69.5 c 128,-1,19
 916 1 916 1 916 -120 c 0,20,21
 916 -267 916 -267 777 -356.5 c 128,-1,22
 638 -446 638 -446 427 -446 c 0,23,24
 55 -446 55 -446 55 -214 c 0,25,26
 55 -81 55 -81 195 9 c 1,27,28
 107 68 107 68 107 165 c 0,29,30
 107 231 107 231 135.5 274.5 c 128,-1,31
 164 318 164 318 216 357 c 1,32,33
 95 448 95 448 95 598.5 c 128,-1,34
 95 749 95 749 195 839.5 c 128,-1,35
 295 930 295 930 463.5 930 c 128,-1,36
 632 930 632 930 734 840 c 1,0,1
630 610 m 0,37,38
 630 775 630 775 461.5 775 c 128,-1,39
 293 775 293 775 293 609 c 128,-1,40
 293 443 293 443 465 443 c 0,41,42
 554 443 554 443 592 487.5 c 128,-1,43
 630 532 630 532 630 610 c 0,37,38
425 -275 m 0,44,45
 636 -276 636 -276 696 -194 c 0,46,47
 715 -168 715 -168 715 -144 c 0,48,49
 715 -94 715 -94 686 -66 c 128,-1,50
 657 -38 657 -38 577 -36 c 2,51,-1
 391 -32 l 2,52,53
 268 -29 268 -29 244 -109 c 0,54,55
 238 -132 238 -132 237 -160 c 0,56,57
 237 -220 237 -220 290.5 -247.5 c 128,-1,58
 344 -275 344 -275 425 -275 c 0,44,45
EndSplineSet
EndChar

StartChar: h
Encoding: 104 104 75
Width: 814
GlyphClass: 2
Flags: W
LayerCount: 2
Fore
SplineSet
248 782 m 1,0,1
 337 922 337 922 499 922 c 0,2,3
 712 922 712 922 782 716 c 0,4,5
 808 642 808 642 808 533 c 2,6,-1
 808 0 l 1,7,-1
 616 0 l 1,8,-1
 616 535 l 2,9,10
 616 747 616 747 439 747 c 0,11,12
 349 747 349 747 298.5 695.5 c 128,-1,13
 248 644 248 644 248 535 c 2,14,-1
 248 0 l 1,15,-1
 61 0 l 1,16,-1
 61 1284 l 1,17,-1
 248 1284 l 1,18,-1
 248 782 l 1,0,1
EndSplineSet
EndChar

StartChar: i
Encoding: 105 105 76
Width: 253
GlyphClass: 2
Flags: W
LayerCount: 2
Fore
SplineSet
252 1026 m 1,0,-1
 61 1026 l 1,1,-1
 61 1221 l 1,2,-1
 252 1221 l 1,3,-1
 252 1026 l 1,0,-1
252 0 m 1,4,-1
 61 0 l 1,5,-1
 61 906 l 1,6,-1
 252 906 l 1,7,-1
 252 0 l 1,4,-1
EndSplineSet
EndChar

StartChar: j
Encoding: 106 106 77
Width: 497
GlyphClass: 2
Flags: W
LayerCount: 2
Fore
SplineSet
498 1014 m 1,0,-1
 299 1014 l 1,1,-1
 299 1218 l 1,2,-1
 498 1218 l 1,3,-1
 498 1014 l 1,0,-1
325 -332 m 0,4,5
 268 -350 268 -350 205.5 -350 c 128,-1,6
 143 -350 143 -350 57 -337 c 1,7,-1
 57 -168 l 1,8,9
 196 -186 196 -186 234.5 -165.5 c 128,-1,10
 273 -145 273 -145 288 -104.5 c 128,-1,11
 303 -64 303 -64 303 11 c 2,12,-1
 303 905 l 1,13,-1
 498 905 l 1,14,-1
 498 -32 l 2,15,16
 498 -277 498 -277 325 -332 c 0,4,5
EndSplineSet
EndChar

StartChar: k
Encoding: 107 107 78
Width: 752
GlyphClass: 2
Flags: W
LayerCount: 2
Fore
SplineSet
767 0 m 1,0,-1
 565 0 l 1,1,-1
 334 375 l 1,2,-1
 241 255 l 1,3,-1
 241 0 l 1,4,-1
 54 0 l 1,5,-1
 54 1284 l 1,6,-1
 241 1284 l 1,7,-1
 241 514 l 1,8,-1
 562 899 l 1,9,-1
 744 899 l 1,10,-1
 466 511 l 1,11,-1
 767 0 l 1,0,-1
EndSplineSet
EndChar

StartChar: l
Encoding: 108 108 79
Width: 262
GlyphClass: 2
Flags: W
LayerCount: 2
Fore
SplineSet
260 0 m 1,0,-1
 61 0 l 1,1,-1
 61 1284 l 1,2,-1
 260 1284 l 1,3,-1
 260 0 l 1,0,-1
EndSplineSet
EndChar

StartChar: m
Encoding: 109 109 80
Width: 1264
GlyphClass: 2
Flags: W
LayerCount: 2
Fore
SplineSet
993 931 m 0,0,1
 1261 931 1261 931 1261 560 c 2,2,-1
 1261 0 l 1,3,-1
 1075 0 l 1,4,-1
 1075 544 l 2,5,6
 1075 649 1075 649 1049.5 689.5 c 128,-1,7
 1024 730 1024 730 994 745 c 128,-1,8
 964 760 964 760 927 760 c 0,9,10
 845 760 845 760 807 725 c 0,11,12
 752 675 752 675 752 544 c 2,13,-1
 752 0 l 1,14,-1
 565 0 l 1,15,-1
 565 544 l 2,16,17
 565 656 565 656 539.5 694 c 128,-1,18
 514 732 514 732 483.5 746 c 0,19,20
 454 760 454 760 414 760 c 0,21,22
 332 760 332 760 288 714.5 c 128,-1,23
 244 669 244 669 244 544 c 2,24,-1
 244 0 l 1,25,-1
 57 0 l 1,26,-1
 57 910 l 1,27,-1
 232 910 l 1,28,-1
 240 760 l 1,29,30
 263 839 263 839 330.5 885 c 128,-1,31
 398 931 398 931 485 931 c 0,32,33
 673 931 673 931 730 745 c 1,34,35
 794 931 794 931 993 931 c 0,0,1
EndSplineSet
EndChar

StartChar: n
Encoding: 110 110 81
Width: 800
GlyphClass: 2
Flags: W
LayerCount: 2
Fore
SplineSet
611 543 m 2,0,1
 611 755 611 755 434 755 c 0,2,3
 344 755 344 755 293.5 703.5 c 128,-1,4
 243 652 243 652 243 543 c 2,5,-1
 243 0 l 1,6,-1
 56 0 l 1,7,-1
 56 901 l 1,8,-1
 241 901 l 1,9,-1
 239 757 l 1,10,11
 261 840 261 840 331 886 c 128,-1,12
 401 932 401 932 481 932 c 0,13,14
 797 932 797 932 797 557 c 2,15,-1
 797 0 l 1,16,-1
 611 0 l 1,17,-1
 611 543 l 2,0,1
EndSplineSet
EndChar

StartChar: o
Encoding: 111 111 82
Width: 830
GlyphClass: 2
Flags: W
LayerCount: 2
Fore
SplineSet
726.5 112.5 m 128,-1,1
 630 -17 630 -17 441 -17 c 128,-1,2
 252 -17 252 -17 154 112 c 128,-1,3
 56 241 56 241 56 457 c 0,4,5
 56 792 56 792 271 896 c 0,6,7
 343 930 343 930 440.5 930 c 128,-1,8
 538 930 538 930 610 895.5 c 0,9,10
 682 860 682 860 729 798 c 0,11,12
 823 673 823 673 823 457.5 c 128,-1,0
 823 242 823 242 726.5 112.5 c 128,-1,1
587.5 235.5 m 128,-1,14
 632 311 632 311 632 423 c 128,-1,15
 632 535 632 535 621 589.5 c 128,-1,16
 610 644 610 644 587 679 c 128,-1,17
 564 714 564 714 528.5 730 c 128,-1,18
 493 746 493 746 443 746 c 0,19,20
 341 746 341 746 296 678.5 c 128,-1,21
 251 611 251 611 251 461 c 128,-1,22
 251 311 251 311 296.5 235.5 c 128,-1,23
 342 160 342 160 442.5 160 c 128,-1,13
 543 160 543 160 587.5 235.5 c 128,-1,14
EndSplineSet
EndChar

StartChar: p
Encoding: 112 112 83
Width: 842
GlyphClass: 2
Flags: W
LayerCount: 2
Fore
SplineSet
241 804 m 1,0,1
 304 932 304 932 477 932 c 0,2,3
 740 932 740 932 817 672 c 0,4,5
 843 584 843 584 843 466 c 0,6,7
 843 230 843 230 748 104 c 128,-1,8
 653 -22 653 -22 486.5 -22 c 128,-1,9
 320 -22 320 -22 241 104 c 1,10,-1
 241 -425 l 1,11,-1
 53 -425 l 1,12,-1
 53 911 l 1,13,-1
 237 911 l 1,14,-1
 241 804 l 1,0,1
241 278 m 1,15,16
 299 186 299 186 423 186 c 0,17,18
 581 186 581 186 628 334 c 0,19,20
 645 388 645 388 645 494 c 128,-1,21
 645 600 645 600 596.5 668.5 c 128,-1,22
 548 737 548 737 423 737 c 128,-1,23
 298 737 298 737 256 624 c 0,24,25
 242 585 242 585 241 531 c 2,26,-1
 241 278 l 1,15,16
EndSplineSet
EndChar

StartChar: q
Encoding: 113 113 84
Width: 845
GlyphClass: 2
Flags: W
LayerCount: 2
Fore
SplineSet
658 108 m 1,0,1
 584 -18 584 -18 410 -18 c 0,2,3
 246 -18 246 -18 151 106.5 c 128,-1,4
 56 231 56 231 56 464 c 128,-1,5
 56 697 56 697 153 814.5 c 128,-1,6
 250 932 250 932 422.5 932 c 128,-1,7
 595 932 595 932 658 804 c 1,8,-1
 662 911 l 1,9,-1
 846 911 l 1,10,-1
 846 -423 l 1,11,-1
 658 -423 l 1,12,-1
 658 108 l 1,0,1
658 531 m 2,13,14
 658 737 658 737 458 737 c 0,15,16
 355 737 355 737 306 670.5 c 128,-1,17
 257 604 257 604 257 466 c 0,18,19
 257 190 257 190 478 190 c 0,20,21
 600 190 600 190 658 282 c 1,22,-1
 658 531 l 2,13,14
EndSplineSet
EndChar

StartChar: r
Encoding: 114 114 85
Width: 559
GlyphClass: 2
Flags: W
LayerCount: 2
Fore
SplineSet
444 924 m 0,0,1
 480 932 480 932 506 932 c 128,-1,2
 532 932 532 932 559 927 c 1,3,-1
 559 731 l 1,4,5
 529 739 529 739 485 739 c 0,6,7
 390 739 390 739 324 683.5 c 128,-1,8
 258 628 258 628 258 528 c 2,9,-1
 258 2 l 1,10,-1
 59 2 l 1,11,-1
 59 908 l 1,12,-1
 252 908 l 1,13,-1
 260 785 l 1,14,15
 311 897 311 897 444 924 c 0,0,1
EndSplineSet
EndChar

StartChar: s
Encoding: 115 115 86
Width: 656
GlyphClass: 2
Flags: W
LayerCount: 2
Fore
SplineSet
61 636 m 0,0,1
 62 840 62 840 268 906 c 0,2,3
 332 926 332 926 440.5 926 c 128,-1,4
 549 926 549 926 633 884 c 1,5,-1
 633 711 l 1,6,7
 553 760 553 760 508 764.5 c 128,-1,8
 463 769 463 769 433 769 c 0,9,10
 363 769 363 769 307 742.5 c 128,-1,11
 251 716 251 716 251 671.5 c 0,12,13
 250 627 250 627 282 607 c 0,14,15
 333 576 333 576 421.5 552 c 128,-1,16
 510 528 510 528 546 502 c 0,17,18
 656 426 656 426 656 303 c 0,19,20
 656 157 656 157 559 68.5 c 128,-1,21
 462 -20 462 -20 290 -20 c 0,22,23
 170 -20 170 -20 73 11 c 1,24,-1
 73 194 l 1,25,26
 169 157 169 157 286 157 c 128,-1,27
 403 157 403 157 453 212 c 0,28,29
 472 232 472 232 472 260 c 0,30,31
 472 310 472 310 432.5 335 c 128,-1,32
 393 360 393 360 272 396 c 128,-1,33
 151 432 151 432 106 495 c 128,-1,34
 61 558 61 558 61 636 c 0,0,1
EndSplineSet
EndChar

StartChar: t
Encoding: 116 116 87
Width: 645
GlyphClass: 2
Flags: W
LayerCount: 2
Fore
SplineSet
569 162 m 0,0,1
 609 162 609 162 647 174 c 1,2,-1
 647 -8 l 1,3,4
 590 -20 590 -20 524 -20 c 0,5,6
 383 -20 383 -20 295 71.5 c 128,-1,7
 207 163 207 163 207 327 c 2,8,-1
 207 733 l 1,9,-1
 56 733 l 1,10,-1
 56 906 l 1,11,-1
 207 906 l 1,12,-1
 207 1284 l 1,13,-1
 392 1284 l 1,14,-1
 392 906 l 1,15,-1
 606 906 l 1,16,-1
 606 733 l 1,17,-1
 392 733 l 1,18,-1
 392 333 l 2,19,20
 392 162 392 162 569 162 c 0,0,1
EndSplineSet
EndChar

StartChar: u
Encoding: 117 117 88
Width: 788
GlyphClass: 2
Flags: W
LayerCount: 2
Fore
SplineSet
421 155 m 0,0,1
 599 155 599 155 599 370 c 2,2,-1
 599 910 l 1,3,-1
 789 910 l 1,4,-1
 789 0 l 1,5,-1
 601 0 l 1,6,-1
 601 144 l 1,7,8
 553 -20 553 -20 335 -20 c 0,9,10
 116 -20 116 -20 70 186 c 0,11,12
 54 254 54 254 55 347 c 2,13,-1
 55 910 l 1,14,-1
 245 910 l 1,15,-1
 245 370 l 2,16,17
 245 260 245 260 287 207.5 c 128,-1,18
 329 155 329 155 421 155 c 0,0,1
EndSplineSet
EndChar

StartChar: v
Encoding: 118 118 89
Width: 844
GlyphClass: 2
Flags: W
LayerCount: 2
Fore
SplineSet
847 899 m 1,0,-1
 543 0 l 1,1,-1
 344 0 l 1,2,-1
 46 899 l 1,3,-1
 240 899 l 1,4,-1
 451 247 l 1,5,-1
 661 899 l 1,6,-1
 847 899 l 1,0,-1
EndSplineSet
EndChar

StartChar: w
Encoding: 119 119 90
Width: 1127
GlyphClass: 2
Flags: W
LayerCount: 2
Fore
SplineSet
1137 899 m 1,0,-1
 933 0 l 1,1,-1
 734 0 l 1,2,-1
 585 530 l 1,3,-1
 433 0 l 1,4,-1
 234 0 l 1,5,-1
 36 899 l 1,6,-1
 220 899 l 1,7,-1
 341 297 l 1,8,-1
 494 804 l 1,9,-1
 682 804 l 1,10,-1
 841 297 l 1,11,-1
 951 899 l 1,12,-1
 1137 899 l 1,0,-1
EndSplineSet
EndChar

StartChar: x
Encoding: 120 120 91
Width: 827
GlyphClass: 2
Flags: W
LayerCount: 2
Fore
SplineSet
820 909 m 1,0,-1
 547 459 l 1,1,-1
 811 0 l 1,2,-1
 616 0 l 1,3,-1
 435 312 l 1,4,-1
 254 0 l 1,5,-1
 59 0 l 1,6,-1
 338 480 l 1,7,-1
 88 909 l 1,8,-1
 284 909 l 1,9,-1
 456 616 l 1,10,-1
 626 909 l 1,11,-1
 820 909 l 1,0,-1
EndSplineSet
EndChar

StartChar: y
Encoding: 121 121 92
Width: 920
GlyphClass: 2
Flags: W
LayerCount: 2
Fore
SplineSet
358 -432.5 m 128,-1,1
 311 -456 311 -456 243 -456 c 128,-1,2
 175 -456 175 -456 109 -440 c 1,3,-1
 109 -277 l 1,4,5
 223 -310 223 -310 285 -273 c 128,-1,6
 347 -236 347 -236 376 -133 c 2,7,-1
 412 -7 l 1,8,-1
 53 905 l 1,9,-1
 270 905 l 1,10,-1
 498 197 l 1,11,-1
 719 905 l 1,12,-1
 928 905 l 1,13,-1
 535 -153 l 2,14,15
 511 -217 511 -217 489.5 -272.5 c 128,-1,16
 468 -328 468 -328 436.5 -368.5 c 128,-1,0
 405 -409 405 -409 358 -432.5 c 128,-1,1
EndSplineSet
EndChar

StartChar: z
Encoding: 122 122 93
Width: 751
GlyphClass: 2
Flags: W
LayerCount: 2
Fore
SplineSet
751 0 m 1,0,-1
 60 0 l 1,1,-1
 60 173 l 1,2,-1
 535 730 l 1,3,-1
 80 730 l 1,4,-1
 80 899 l 1,5,-1
 751 899 l 1,6,-1
 751 726 l 1,7,-1
 276 169 l 1,8,-1
 751 169 l 1,9,-1
 751 0 l 1,0,-1
EndSplineSet
EndChar

StartChar: braceleft
Encoding: 123 123 94
Width: 626
GlyphClass: 2
Flags: W
LayerCount: 2
Fore
SplineSet
625 -288 m 1,0,1
 407 -288 407 -288 328 -198 c 0,2,3
 249 -108 249 -108 249 101 c 2,4,-1
 249 196 l 2,5,6
 249 339 249 339 228.5 388.5 c 128,-1,7
 208 438 208 438 175 462 c 128,-1,8
 142 486 142 486 84 487 c 1,9,-1
 84 533 l 1,10,11
 228 532 228 532 244 710 c 0,12,13
 248 762 248 762 249 819 c 2,14,-1
 249 916 l 2,15,16
 249 1124 249 1124 328 1215 c 0,17,18
 407 1307 407 1307 625 1307 c 1,19,-1
 625 1106 l 1,20,21
 506 1106 506 1106 470 1049 c 0,22,23
 442 1006 442 1006 443 870 c 2,24,-1
 443 785 l 2,25,26
 443 658 443 658 420.5 610 c 128,-1,27
 398 562 398 562 375.5 542 c 128,-1,28
 353 522 353 522 323 510 c 1,29,30
 416 467 416 467 436 349 c 0,31,32
 444 304 444 304 443 240 c 2,33,-1
 443 147 l 2,34,35
 443 10 443 10 466 -26 c 128,-1,36
 489 -62 489 -62 525.5 -76 c 128,-1,37
 562 -90 562 -90 625 -90 c 1,38,-1
 625 -288 l 1,0,1
EndSplineSet
EndChar

StartChar: bar
Encoding: 124 124 95
Width: 295
GlyphClass: 2
Flags: W
LayerCount: 2
Fore
SplineSet
293 -282 m 1,0,-1
 94 -282 l 1,1,-1
 94 1300 l 1,2,-1
 293 1300 l 1,3,-1
 293 -282 l 1,0,-1
EndSplineSet
EndChar

StartChar: braceright
Encoding: 125 125 96
Width: 637
GlyphClass: 2
Flags: W
LayerCount: 2
Fore
SplineSet
635 487 m 1,0,1
 489 484 489 484 475 306 c 0,2,3
 471 254 471 254 471 196 c 2,4,-1
 471 101 l 2,5,6
 471 -108 471 -108 391 -198 c 0,7,8
 311 -288 311 -288 94 -288 c 1,9,-1
 94 -90 l 1,10,11
 214 -90 214 -90 245 -40 c 0,12,13
 276 10 276 10 276 147 c 2,14,-1
 276 240 l 2,15,16
 276 363 276 363 298.5 409.5 c 128,-1,17
 321 456 321 456 343.5 476 c 128,-1,18
 366 496 366 496 396 510 c 1,19,20
 304 546 304 546 284 672 c 0,21,22
 276 718 276 718 276 785 c 2,23,-1
 276 870 l 2,24,25
 276 1006 276 1006 253.5 1042 c 128,-1,26
 231 1078 231 1078 194.5 1092 c 128,-1,27
 158 1106 158 1106 94 1106 c 1,28,-1
 94 1307 l 1,29,30
 311 1307 311 1307 391 1216 c 0,31,32
 471 1125 471 1125 471 916 c 2,33,-1
 471 819 l 2,34,35
 471 681 471 681 492 630.5 c 128,-1,36
 513 580 513 580 545.5 556.5 c 128,-1,37
 578 533 578 533 635 533 c 1,38,-1
 635 487 l 1,0,1
EndSplineSet
EndChar

StartChar: asciitilde
Encoding: 126 126 97
Width: 837
GlyphClass: 2
Flags: W
LayerCount: 2
Fore
SplineSet
58 1093 m 1,0,1
 150 1283 150 1283 328 1283 c 0,2,3
 399 1283 399 1283 450.5 1256 c 128,-1,4
 502 1229 502 1229 528.5 1217 c 128,-1,5
 555 1205 555 1205 586 1205 c 0,6,7
 640 1205 640 1205 672 1222.5 c 128,-1,8
 704 1240 704 1240 755 1286 c 1,9,-1
 839 1268 l 1,10,11
 765 1064 765 1064 598 1064 c 0,12,13
 533 1064 533 1064 477 1092 c 128,-1,14
 421 1120 421 1120 389 1132.5 c 0,15,16
 356 1145 356 1145 322 1145 c 0,17,18
 262 1145 262 1145 228 1127 c 128,-1,19
 194 1109 194 1109 143 1065 c 1,20,-1
 58 1093 l 1,0,1
EndSplineSet
EndChar

StartChar: uni0D02
Encoding: 3330 3330 99
Width: 581
Flags: W
LayerCount: 2
Fore
SplineSet
445.5 7.5 m 0,0,1
 396 -20 396 -20 322.5 -20 c 0,2,3
 185.333333333 -20 185.333333333 -20 122.166666667 74.75 c 128,-1,4
 59 169.5 59 169.5 59 312 c 256,5,6
 59 537.72 59 537.72 197 615 c 0,7,8
 247 643 247 643 320 643 c 256,9,10
 455.8 643 455.8 643 518.9 546.314516129 c 128,-1,11
 582 449.629032258 582 449.629032258 582 307 c 0,12,13
 582 83.3333333333 582 83.3333333333 445.5 7.5 c 0,0,1
234 303 m 256,14,15
 234 139 234 139 319 139 c 256,16,17
 405 139 405 139 405 307 c 256,18,19
 405 417.6875 405 417.6875 362 458 c 0,20,21
 346 473 346 473 321 473 c 0,22,23
 276.5625 473 276.5625 473 255.28125 424.357142857 c 128,-1,24
 234 375.714285714 234 375.714285714 234 303 c 256,14,15
EndSplineSet
EndChar

StartChar: uni0D03
Encoding: 3331 3331 100
Width: 384
Flags: W
LayerCount: 2
Fore
SplineSet
60 663 m 256,0,1
 60 859 60 859 215 859 c 256,2,3
 374 859 374 859 374 664 c 256,4,5
 374 530.14516129 374 530.14516129 292 486.5 c 0,6,7
 261 470 261 470 215 470 c 0,8,9
 60 470 60 470 60 663 c 256,0,1
60 193 m 256,10,11
 60 389 60 389 215 389 c 256,12,13
 374 389 374 389 374 193 c 256,14,15
 374 60.1451612903 374 60.1451612903 292 16.5 c 0,16,17
 261 0 261 0 215 0 c 0,18,19
 60 0 60 0 60 193 c 256,10,11
216 753 m 256,20,21
 171 753 171 753 171 664.5 c 128,-1,22
 171 576 171 576 218 576 c 256,23,24
 266 576 266 576 266 664 c 256,25,26
 266 719.75 266 719.75 248.5 736.375 c 128,-1,27
 231 753 231 753 216 753 c 256,20,21
216 283 m 256,28,29
 171 283 171 283 171 194.5 c 128,-1,30
 171 106 171 106 218 106 c 256,31,32
 266 106 266 106 266 194 c 256,33,34
 266 249.75 266 249.75 248.5 266.375 c 128,-1,35
 231 283 231 283 216 283 c 256,28,29
EndSplineSet
EndChar

StartChar: uni0D05
Encoding: 3333 3333 101
Width: 1736
Flags: W
LayerCount: 2
Fore
SplineSet
1065 829 m 1,0,1
 1178.625 930 1178.625 930 1333 930 c 0,2,3
 1530.34848485 930 1530.34848485 930 1632.17424243 792.846938776 c 128,-1,4
 1734 655.693877551 1734 655.693877551 1734 452 c 0,5,6
 1734 94.1463414634 1734 94.1463414634 1580 4 c 0,7,8
 1539 -20 1539 -20 1475.5 -20 c 0,9,10
 1352.3877551 -20 1352.3877551 -20 1281.69387755 83.4029850745 c 128,-1,11
 1211 186.805970149 1211 186.805970149 1211 322 c 0,12,13
 1211 550.222222222 1211 550.222222222 1326 632 c 0,14,15
 1371 664 1371 664 1434.5 664 c 128,-1,16
 1498 664 1498 664 1528 634 c 1,17,18
 1490.1875 744 1490.1875 744 1339.93703358 744 c 128,-1,19
 1189.68656716 744 1189.68656716 744 1145.5 648.5 c 0,20,21
 1130 615 1130 615 1130 569 c 2,22,-1
 1130 0 l 1,23,-1
 946 0 l 1,24,-1
 946 612 l 1,25,26
 951.406099518 722.825040128 951.406099518 722.825040128 849.5 750 c 0,27,28
 827 756 827 756 796 756 c 1,29,30
 876 673.837837838 876 673.837837838 876 570.23599209 c 128,-1,31
 876 466.634146341 876 466.634146341 803 415 c 1,32,33
 894 367.68 894 367.68 894 250.332307693 c 128,-1,34
 894 132.984615385 894 132.984615385 824.614864865 53.9923076925 c 128,-1,35
 755.22972973 -25 755.22972973 -25 656.614864865 -25 c 0,36,37
 486.395348837 -25 486.395348837 -25 407.5 122.5 c 0,38,39
 345 239.347826087 345 239.347826087 345 394.602484472 c 128,-1,40
 345 549.857142857 345 549.857142857 420 694.5 c 0,41,42
 441 735 441 735 464 759 c 1,43,-1
 450 760 l 1,44,-1
 421.5 760 l 2,45,46
 370.230769231 760 370.230769231 760 322 703 c 0,47,48
 281.399232246 655.017274472 281.399232246 655.017274472 260.699616123 581.533637236 c 128,-1,49
 240 508.05 240 508.05 240 443 c 0,50,51
 240 176.696969697 240 176.696969697 359 0 c 1,52,-1
 155 0 l 1,53,54
 56 225.97826087 56 225.97826087 56 443 c 0,55,56
 56 726.444444444 56 726.444444444 207.5 855.5 c 0,57,58
 293.782608696 929 293.782608696 929 406.235054348 929 c 128,-1,59
 518.6875 929 518.6875 929 634 888 c 1,60,61
 803.042264444 970.642884839 803.042264444 970.642884839 971 897.5 c 0,62,63
 1031.83699871 871.006468305 1031.83699871 871.006468305 1065 829 c 1,0,1
1541 321 m 256,64,65
 1541 413.032258065 1541 413.032258065 1498.5 466.5 c 0,66,67
 1483 486 1483 486 1460.5 486 c 0,68,69
 1421.55555556 486 1421.55555556 486 1404.77777778 429.375 c 128,-1,70
 1388 372.75 1388 372.75 1388 321 c 256,71,72
 1388 225.642857143 1388 225.642857143 1424 175.5 c 0,73,74
 1438 156 1438 156 1460.5 156 c 0,75,76
 1500.01886792 156 1500.01886792 156 1520.50943396 213.157894737 c 128,-1,77
 1541 270.315789474 1541 270.315789474 1541 321 c 256,64,65
656 492 m 2,78,79
 712 492 712 492 712 577.075757576 c 128,-1,80
 712 662.151515152 712 662.151515152 648 699 c 1,81,82
 519 616.071428571 519 616.071428571 519 413 c 0,83,84
 519 333.857142857 519 333.857142857 539 272.428571429 c 128,-1,85
 559 211 559 211 583.5 179.5 c 128,-1,86
 608 148 608 148 634.5 148 c 0,87,88
 674.451612903 148 674.451612903 148 697.725806452 182.357142857 c 128,-1,89
 721 216.714285714 721 216.714285714 721 251 c 0,90,91
 721 331 721 331 657 331 c 2,92,-1
 614 331 l 1,93,-1
 614 492 l 1,94,-1
 656 492 l 2,78,79
EndSplineSet
EndChar

StartChar: uni0D06
Encoding: 3334 3334 102
Width: 2030
Flags: W
LayerCount: 2
Fore
SplineSet
1065 829 m 1,0,1
 1181.60377358 932 1181.60377358 932 1320.60902965 932 c 128,-1,2
 1459.61428571 932 1459.61428571 932 1566.05212085 858.231203367 c 128,-1,3
 1672.489956 784.462406734 1672.489956 784.462406734 1715 655 c 1,4,5
 1864.6764319 622.37821356 1864.6764319 622.37821356 1944.33821595 494.091704182 c 128,-1,6
 2024 365.805194805 2024 365.805194805 2024 196 c 0,7,8
 2024 -33 2024 -33 1888.28915663 -209 c 128,-1,9
 1752.57831325 -385 1752.57831325 -385 1519 -385 c 0,10,11
 1401.84 -385 1401.84 -385 1281 -332 c 1,12,-1
 1281 -121 l 1,13,14
 1393.16216216 -204 1393.16216216 -204 1495.08108108 -204 c 0,15,16
 1669.025 -204 1669.025 -204 1761.5 -67 c 0,17,18
 1840 49.2962962963 1840 49.2962962963 1840 198.350850851 c 128,-1,19
 1840 347.405405405 1840 347.405405405 1782.5 422 c 0,20,21
 1764 446 1764 446 1739 458 c 1,22,23
 1747.36842105 418.947368421 1747.36842105 418.947368421 1751 379 c 1,24,-1
 1751 349 l 2,25,26
 1751 98.0283018868 1751 98.0283018868 1605 8.5 c 0,27,28
 1552 -24 1552 -24 1480.5 -24 c 0,29,30
 1351.03225806 -24 1351.03225806 -24 1277.01612903 75.760869565 c 128,-1,31
 1203 175.52173913 1203 175.52173913 1203 308.083654375 c 128,-1,32
 1203 440.64556962 1203 440.64556962 1285.92015311 539.310055595 c 128,-1,33
 1368.84030621 637.97454157 1368.84030621 637.97454157 1507 660 c 1,34,35
 1452.27272727 746 1452.27272727 746 1334 746 c 0,36,37
 1251.13333333 746 1251.13333333 746 1190.56666666 698.184210527 c 128,-1,38
 1130 650.368421053 1130 650.368421053 1130 569 c 2,39,-1
 1130 0 l 1,40,-1
 946 0 l 1,41,-1
 946 621 l 2,42,43
 946 702.305084746 946 702.305084746 879.5 739.5 c 0,44,45
 850 756 850 756 799 756 c 2,46,-1
 796 756 l 1,47,48
 876 673.837837838 876 673.837837838 876 570.23599209 c 128,-1,49
 876 466.634146341 876 466.634146341 803 415 c 1,50,51
 894 367.68 894 367.68 894 250.332307693 c 128,-1,52
 894 132.984615385 894 132.984615385 824.614864865 53.9923076925 c 128,-1,53
 755.22972973 -25 755.22972973 -25 656.614864865 -25 c 0,54,55
 486.395348837 -25 486.395348837 -25 407.5 122.5 c 0,56,57
 345 239.347826087 345 239.347826087 345 394.602484472 c 128,-1,58
 345 549.857142857 345 549.857142857 420 694.5 c 0,59,60
 441 735 441 735 464 759 c 1,61,-1
 450 760 l 1,62,-1
 421.5 760 l 2,63,64
 370.230769231 760 370.230769231 760 322 703 c 0,65,66
 281.399232246 655.017274472 281.399232246 655.017274472 260.699616123 581.533637236 c 128,-1,67
 240 508.05 240 508.05 240 443 c 0,68,69
 240 176.696969697 240 176.696969697 359 0 c 1,70,-1
 155 0 l 1,71,72
 56 225.97826087 56 225.97826087 56 443 c 0,73,74
 56 726.444444444 56 726.444444444 207.5 855.5 c 0,75,76
 293.782608696 929 293.782608696 929 406.235054348 929 c 128,-1,77
 518.6875 929 518.6875 929 634 888 c 1,78,79
 722.15 931 722.15 931 807 931 c 0,80,81
 813 931 813 931 819 931 c 128,-1,82
 825 931 825 931 847 929.5 c 0,83,84
 906.896207585 925.416167665 906.896207585 925.416167665 969.366603147 898.211317985 c 128,-1,85
 1031.83699871 871.006468305 1031.83699871 871.006468305 1065 829 c 1,0,1
1476 163 m 0,86,87
 1572 163 1572 163 1572 401 c 2,88,-1
 1572 406 l 2,89,90
 1572 432 1572 432 1560 492 c 1,91,92
 1486.02839296 482.26689381 1486.02839296 482.26689381 1440.01419648 426.621818998 c 128,-1,93
 1394 370.976744186 1394 370.976744186 1394 294.085146286 c 128,-1,94
 1394 217.193548387 1394 217.193548387 1438.5 177 c 0,95,96
 1454 163 1454 163 1476 163 c 0,86,87
648 699 m 1,97,98
 519 616.071428571 519 616.071428571 519 413 c 0,99,100
 519 333.857142857 519 333.857142857 539 272.428571429 c 128,-1,101
 559 211 559 211 583.5 179.5 c 128,-1,102
 608 148 608 148 634.5 148 c 0,103,104
 674.451612903 148 674.451612903 148 697.725806452 182.357142857 c 128,-1,105
 721 216.714285714 721 216.714285714 721 251 c 0,106,107
 721 331 721 331 657 331 c 2,108,-1
 614 331 l 1,109,-1
 614 492 l 1,110,-1
 656 492 l 2,111,112
 712 492 712 492 712 577.075757576 c 128,-1,113
 712 662.151515152 712 662.151515152 648 699 c 1,97,98
EndSplineSet
EndChar

StartChar: uni0D07
Encoding: 3335 3335 103
Width: 1300
Flags: W
LayerCount: 2
Fore
SplineSet
239 575 m 1,0,1
 278.117647059 610 278.117647059 610 332.058823529 610 c 0,2,3
 436.076923077 610 436.076923077 610 493.538461538 527 c 128,-1,4
 551 444 551 444 551 334.6875 c 128,-1,5
 551 225.375 551 225.375 482.833333334 148.6875 c 128,-1,6
 414.666666667 72 414.666666667 72 320.833333333 72 c 128,-1,7
 227 72 227 72 176.5 107.5 c 128,-1,8
 126 143 126 143 88 219 c 128,-1,9
 50 295 50 295 50 424.5 c 0,10,11
 50 929 50 929 443 929 c 0,12,13
 585.176470588 929 585.176470588 929 673.5 857.5 c 0,14,15
 705 832 705 832 724 795 c 1,16,17
 752.175675676 856.986486486 752.175675676 856.986486486 817.887837838 893.493243243 c 128,-1,18
 883.6 930 883.6 930 953.8 930 c 128,-1,19
 1024 930 1024 930 1075 907.5 c 128,-1,20
 1126 885 1126 885 1165 847 c 0,21,22
 1238.29996707 775.579519262 1238.29996707 775.579519262 1273.64998354 660.172112572 c 128,-1,23
 1309 544.764705882 1309 544.764705882 1309 457.382352941 c 128,-1,24
 1309 370 1309 370 1300 307 c 128,-1,25
 1291 244 1291 244 1272 182 c 0,26,27
 1229.70295359 43.9780590717 1229.70295359 43.9780590717 1145.23078714 -43.5109704641 c 128,-1,28
 1060.75862069 -131 1060.75862069 -131 931 -131 c 2,29,-1
 280 -131 l 2,30,31
 263 -131 263 -131 251.5 -145 c 128,-1,32
 240 -159 240 -159 240 -175.5 c 128,-1,33
 240 -192 240 -192 251.5 -204.5 c 128,-1,34
 263 -217 263 -217 280 -217 c 2,35,-1
 1298 -217 l 1,36,-1
 1298 -380 l 1,37,-1
 250 -380 l 2,38,39
 169.254545455 -380 169.254545455 -380 113.127272727 -320.634615384 c 128,-1,40
 57 -261.269230769 57 -261.269230769 57 -181 c 256,41,42
 57 -98.2307692308 57 -98.2307692308 112.821428571 -38.1153846154 c 128,-1,43
 168.642857143 22 168.642857143 22 250 22 c 2,44,-1
 899 22 l 2,45,46
 977.75 22 977.75 22 1038.23773987 109.102345416 c 128,-1,47
 1098.72547974 196.204690832 1098.72547974 196.204690832 1116.5 370 c 0,48,49
 1121 414 1121 414 1121 449.5 c 0,50,51
 1121 559.666666667 1121 559.666666667 1091 643 c 0,52,53
 1047.8 763 1047.8 763 959 763 c 0,54,55
 893.636363636 763 893.636363636 763 857.318181818 704.25 c 128,-1,56
 821 645.5 821 645.5 821 578 c 2,57,-1
 821 93 l 1,58,-1
 637 94 l 1,59,-1
 637 537 l 2,60,61
 637 763 637 763 441 763 c 0,62,63
 313.173913043 763 313.173913043 763 261 650.5 c 0,64,65
 245 616 245 616 239 575 c 1,0,1
380 334 m 256,66,67
 380 397.615384615 380 397.615384615 343 427.5 c 0,68,69
 330 438 330 438 311 438 c 256,70,71
 277.516129032 438 277.516129032 438 259.758064516 405.617647059 c 128,-1,72
 242 373.235294118 242 373.235294118 242 334 c 256,73,74
 242 271.384615385 242 271.384615385 279 241.5 c 0,75,76
 292 231 292 231 311 231 c 256,77,78
 360.444444444 231 360.444444444 231 376 301 c 0,79,80
 380 319 380 319 380 334 c 256,66,67
EndSplineSet
EndChar

StartChar: uni0D08
Encoding: 3336 3336 104
Width: 2150
Flags: W
LayerCount: 2
Fore
SplineSet
1430 257 m 1,0,1
 1528.83928571 134 1528.83928571 134 1679 134 c 0,2,3
 1820.49494949 134 1820.49494949 134 1896.24747475 236.732876713 c 128,-1,4
 1972 339.465753425 1972 339.465753425 1972 474.732876713 c 128,-1,5
 1972 610 1972 610 1920 675 c 0,6,7
 1900 700 1900 700 1876 700 c 0,8,9
 1834.96428571 700 1834.96428571 700 1809.98214286 669.586956522 c 128,-1,10
 1785 639.173913043 1785 639.173913043 1785 601 c 2,11,-1
 1785 460 l 1,12,-1
 1635 460 l 1,13,-1
 1635 620 l 2,14,15
 1635 668.666666667 1635 668.666666667 1601.5 691 c 0,16,17
 1591 698 1591 698 1574 698 c 0,18,19
 1537.8 698 1537.8 698 1514.9 659.833333333 c 128,-1,20
 1492 621.666666667 1492 621.666666667 1492 574.833333333 c 128,-1,21
 1492 528 1492 528 1509 479 c 128,-1,22
 1526 430 1526 430 1543 378 c 1,23,-1
 1375 378 l 1,24,25
 1365 426 1365 426 1354.5 470 c 128,-1,26
 1344 514 1344 514 1344 568 c 128,-1,27
 1344 622 1344 622 1356 678.5 c 128,-1,28
 1368 735 1368 735 1396 779 c 128,-1,29
 1424 823 1424 823 1470.5 850 c 128,-1,30
 1517 877 1517 877 1591.91428571 877 c 128,-1,31
 1666.82857143 877 1666.82857143 877 1707 803 c 1,32,33
 1736.83712785 856.043782837 1736.83712785 856.043782837 1804.5 876.5 c 0,34,35
 1826 883 1826 883 1848 883 c 0,36,37
 1991.8 883 1991.8 883 2074 746 c 0,38,39
 2144 629.333333333 2144 629.333333333 2144 501.166666667 c 0,40,41
 2144 262.882352941 2144 262.882352941 2018.74242424 123.941176471 c 128,-1,42
 1893.48484848 -15 1893.48484848 -15 1698.4539627 -15 c 128,-1,43
 1503.42307692 -15 1503.42307692 -15 1430 68 c 1,44,-1
 1430 257 l 1,0,1
239 575 m 1,45,46
 278.117647059 610 278.117647059 610 332.058823529 610 c 0,47,48
 436.076923077 610 436.076923077 610 493.538461538 527 c 128,-1,49
 551 444 551 444 551 334.6875 c 128,-1,50
 551 225.375 551 225.375 482.833333334 148.6875 c 128,-1,51
 414.666666667 72 414.666666667 72 320.833333333 72 c 128,-1,52
 227 72 227 72 176.5 107.5 c 128,-1,53
 126 143 126 143 88 219 c 128,-1,54
 50 295 50 295 50 424.5 c 0,55,56
 50 929 50 929 443 929 c 0,57,58
 585.176470588 929 585.176470588 929 673.5 857.5 c 0,59,60
 705 832 705 832 724 795 c 1,61,62
 752.175675676 856.986486486 752.175675676 856.986486486 817.887837838 893.493243243 c 128,-1,63
 883.6 930 883.6 930 953.8 930 c 128,-1,64
 1024 930 1024 930 1075 907.5 c 128,-1,65
 1126 885 1126 885 1165 847 c 0,66,67
 1238.29996707 775.579519262 1238.29996707 775.579519262 1273.64998354 660.172112572 c 128,-1,68
 1309 544.764705882 1309 544.764705882 1309 457.382352941 c 128,-1,69
 1309 370 1309 370 1300 307 c 128,-1,70
 1291 244 1291 244 1272 182 c 0,71,72
 1229.70295359 43.9780590717 1229.70295359 43.9780590717 1145.23078714 -43.5109704641 c 128,-1,73
 1060.75862069 -131 1060.75862069 -131 931 -131 c 2,74,-1
 280 -131 l 2,75,76
 263 -131 263 -131 251.5 -145 c 128,-1,77
 240 -159 240 -159 240 -175.5 c 128,-1,78
 240 -192 240 -192 251.5 -204.5 c 128,-1,79
 263 -217 263 -217 280 -217 c 2,80,-1
 1298 -217 l 1,81,-1
 1298 -380 l 1,82,-1
 250 -380 l 2,83,84
 169.254545455 -380 169.254545455 -380 113.127272727 -320.634615384 c 128,-1,85
 57 -261.269230769 57 -261.269230769 57 -181 c 256,86,87
 57 -98.2307692308 57 -98.2307692308 112.821428571 -38.1153846154 c 128,-1,88
 168.642857143 22 168.642857143 22 250 22 c 2,89,-1
 899 22 l 2,90,91
 977.75 22 977.75 22 1038.23773987 109.102345416 c 128,-1,92
 1098.72547974 196.204690832 1098.72547974 196.204690832 1116.5 370 c 0,93,94
 1121 414 1121 414 1121 449.5 c 0,95,96
 1121 559.666666667 1121 559.666666667 1091 643 c 0,97,98
 1047.8 763 1047.8 763 959 763 c 0,99,100
 893.636363636 763 893.636363636 763 857.318181818 704.25 c 128,-1,101
 821 645.5 821 645.5 821 578 c 2,102,-1
 821 93 l 1,103,-1
 637 94 l 1,104,-1
 637 537 l 2,105,106
 637 763 637 763 441 763 c 0,107,108
 313.173913043 763 313.173913043 763 261 650.5 c 0,109,110
 245 616 245 616 239 575 c 1,45,46
380 334 m 256,111,112
 380 397.615384615 380 397.615384615 343 427.5 c 0,113,114
 330 438 330 438 311 438 c 256,115,116
 277.516129032 438 277.516129032 438 259.758064516 405.617647059 c 128,-1,117
 242 373.235294118 242 373.235294118 242 334 c 256,118,119
 242 271.384615385 242 271.384615385 279 241.5 c 0,120,121
 292 231 292 231 311 231 c 256,122,123
 360.444444444 231 360.444444444 231 376 301 c 0,124,125
 380 319 380 319 380 334 c 256,111,112
EndSplineSet
EndChar

StartChar: uni0D09
Encoding: 3337 3337 105
Width: 979
Flags: W
LayerCount: 2
Fore
SplineSet
239 585 m 1,0,1
 278.117647059 620 278.117647059 620 332.058823529 620 c 0,2,3
 434.448717949 620 434.448717949 620 492.724358974 537.354545454 c 128,-1,4
 551 454.709090909 551 454.709090909 551 345.521212121 c 128,-1,5
 551 236.333333333 551 236.333333333 482.615384616 151.666666667 c 128,-1,6
 414.230769231 67 414.230769231 67 308 67 c 0,7,8
 50 67 50 67 50 467 c 0,9,10
 50 673.226086957 50 673.226086957 170.459677419 803.113043479 c 128,-1,11
 290.919354839 933 290.919354839 933 507.267369727 933 c 128,-1,12
 723.615384615 933 723.615384615 933 849.307692308 784.454545455 c 128,-1,13
 975 635.909090909 975 635.909090909 975 424.583577713 c 128,-1,14
 975 213.258064516 975 213.258064516 883 53 c 0,15,16
 818.095952706 -60.0586630286 818.095952706 -60.0586630286 711.5 -107 c 0,17,18
 657 -131 657 -131 590 -131 c 2,19,-1
 280 -131 l 2,20,21
 263 -131 263 -131 251.5 -145 c 128,-1,22
 240 -159 240 -159 240 -175.5 c 128,-1,23
 240 -192 240 -192 251.5 -204.5 c 128,-1,24
 263 -217 263 -217 280 -217 c 2,25,-1
 958 -217 l 1,26,-1
 958 -380 l 1,27,-1
 250 -380 l 2,28,29
 170.01754386 -380 170.01754386 -380 113.50877193 -318.057692308 c 128,-1,30
 57 -256.115384615 57 -256.115384615 57 -175.047888386 c 128,-1,31
 57 -93.9803921569 57 -93.9803921569 112.387931034 -30.9901960784 c 128,-1,32
 167.775862069 32 167.775862069 32 250 32 c 2,33,-1
 568 32 l 2,34,35
 641.230769231 32 641.230769231 32 702.338367872 111.439878235 c 128,-1,36
 763.445966514 190.879756469 763.445966514 190.879756469 784.5 344 c 0,37,38
 790 384 790 384 790 434 c 0,39,40
 790 564.309859155 790 564.309859155 717.228723404 660.654929577 c 128,-1,41
 644.457446809 757 644.457446809 757 493.02417795 757 c 128,-1,42
 341.590909091 757 341.590909091 757 270.5 665 c 0,43,44
 245 632 245 632 239 585 c 1,0,1
311 448 m 256,45,46
 277.516129032 448 277.516129032 448 259.758064516 415.617647059 c 128,-1,47
 242 383.235294118 242 383.235294118 242 356.117647059 c 0,48,49
 242 305.764705882 242 305.764705882 259.758064516 273.382352941 c 128,-1,50
 277.516129032 241 277.516129032 241 311 241 c 256,51,52
 344.483870968 241 344.483870968 241 362.241935484 273.382352941 c 128,-1,53
 380 305.764705882 380 305.764705882 380 344.5 c 128,-1,54
 380 383.235294118 380 383.235294118 362.241935484 415.617647059 c 128,-1,55
 344.483870968 448 344.483870968 448 311 448 c 256,45,46
EndSplineSet
EndChar

StartChar: uni0D0A
Encoding: 3338 3338 106
Width: 1824
Flags: W
LayerCount: 2
Fore
SplineSet
1110 257 m 1,0,1
 1208.83928571 134 1208.83928571 134 1359 134 c 0,2,3
 1500.49494949 134 1500.49494949 134 1576.24747475 236.732876713 c 128,-1,4
 1652 339.465753425 1652 339.465753425 1652 474.732876713 c 128,-1,5
 1652 610 1652 610 1600 675 c 0,6,7
 1580 700 1580 700 1556 700 c 0,8,9
 1514.96428571 700 1514.96428571 700 1489.98214286 669.586956522 c 128,-1,10
 1465 639.173913043 1465 639.173913043 1465 601 c 2,11,-1
 1465 460 l 1,12,-1
 1315 460 l 1,13,-1
 1315 620 l 2,14,15
 1315 668.666666667 1315 668.666666667 1281.5 691 c 0,16,17
 1271 698 1271 698 1254 698 c 0,18,19
 1217.8 698 1217.8 698 1194.9 659.833333333 c 128,-1,20
 1172 621.666666667 1172 621.666666667 1172 574.833333333 c 128,-1,21
 1172 528 1172 528 1189 479 c 128,-1,22
 1206 430 1206 430 1223 378 c 1,23,-1
 1055 378 l 1,24,25
 1045 426 1045 426 1034.5 470 c 128,-1,26
 1024 514 1024 514 1024 568 c 128,-1,27
 1024 622 1024 622 1036 678.5 c 128,-1,28
 1048 735 1048 735 1076 779 c 128,-1,29
 1104 823 1104 823 1150.5 850 c 128,-1,30
 1197 877 1197 877 1271.91428571 877 c 128,-1,31
 1346.82857143 877 1346.82857143 877 1387 803 c 1,32,33
 1416.83712785 856.043782837 1416.83712785 856.043782837 1484.5 876.5 c 0,34,35
 1506 883 1506 883 1528 883 c 0,36,37
 1671.8 883 1671.8 883 1754 746 c 0,38,39
 1824 629.333333333 1824 629.333333333 1824 501.166666667 c 0,40,41
 1824 262.882352941 1824 262.882352941 1698.74242424 123.941176471 c 128,-1,42
 1573.48484848 -15 1573.48484848 -15 1378.4539627 -15 c 128,-1,43
 1183.42307692 -15 1183.42307692 -15 1110 68 c 1,44,-1
 1110 257 l 1,0,1
239 585 m 1,45,46
 278.117647059 620 278.117647059 620 332.058823529 620 c 0,47,48
 434.448717949 620 434.448717949 620 492.724358974 537.354545454 c 128,-1,49
 551 454.709090909 551 454.709090909 551 345.521212121 c 128,-1,50
 551 236.333333333 551 236.333333333 482.615384616 151.666666667 c 128,-1,51
 414.230769231 67 414.230769231 67 308 67 c 0,52,53
 50 67 50 67 50 467 c 0,54,55
 50 673.226086957 50 673.226086957 170.459677419 803.113043479 c 128,-1,56
 290.919354839 933 290.919354839 933 507.267369727 933 c 128,-1,57
 723.615384615 933 723.615384615 933 849.307692308 784.454545455 c 128,-1,58
 975 635.909090909 975 635.909090909 975 424.583577713 c 128,-1,59
 975 213.258064516 975 213.258064516 883 53 c 0,60,61
 818.095952706 -60.0586630286 818.095952706 -60.0586630286 711.5 -107 c 0,62,63
 657 -131 657 -131 590 -131 c 2,64,-1
 280 -131 l 2,65,66
 263 -131 263 -131 251.5 -145 c 128,-1,67
 240 -159 240 -159 240 -175.5 c 128,-1,68
 240 -192 240 -192 251.5 -204.5 c 128,-1,69
 263 -217 263 -217 280 -217 c 2,70,-1
 958 -217 l 1,71,-1
 958 -380 l 1,72,-1
 250 -380 l 2,73,74
 170.01754386 -380 170.01754386 -380 113.50877193 -318.057692308 c 128,-1,75
 57 -256.115384615 57 -256.115384615 57 -175.047888386 c 128,-1,76
 57 -93.9803921569 57 -93.9803921569 112.387931034 -30.9901960784 c 128,-1,77
 167.775862069 32 167.775862069 32 250 32 c 2,78,-1
 568 32 l 2,79,80
 641.230769231 32 641.230769231 32 702.338367872 111.439878235 c 128,-1,81
 763.445966514 190.879756469 763.445966514 190.879756469 784.5 344 c 0,82,83
 790 384 790 384 790 434 c 0,84,85
 790 564.309859155 790 564.309859155 717.228723404 660.654929577 c 128,-1,86
 644.457446809 757 644.457446809 757 493.02417795 757 c 128,-1,87
 341.590909091 757 341.590909091 757 270.5 665 c 0,88,89
 245 632 245 632 239 585 c 1,45,46
311 448 m 256,90,91
 277.516129032 448 277.516129032 448 259.758064516 415.617647059 c 128,-1,92
 242 383.235294118 242 383.235294118 242 356.117647059 c 0,93,94
 242 305.764705882 242 305.764705882 259.758064516 273.382352941 c 128,-1,95
 277.516129032 241 277.516129032 241 311 241 c 256,96,97
 344.483870968 241 344.483870968 241 362.241935484 273.382352941 c 128,-1,98
 380 305.764705882 380 305.764705882 380 344.5 c 128,-1,99
 380 383.235294118 380 383.235294118 362.241935484 415.617647059 c 128,-1,100
 344.483870968 448 344.483870968 448 311 448 c 256,90,91
EndSplineSet
EndChar

StartChar: uni0D0B
Encoding: 3339 3339 107
Width: 930
Flags: W
LayerCount: 2
Fore
SplineSet
299 543 m 1,0,1
 379.0625 482 379.0625 482 495.453125 482 c 128,-1,2
 611.84375 482 611.84375 482 690 543 c 1,3,4
 612.956120092 541.073903002 612.956120092 541.073903002 564.478060046 598.170284834 c 128,-1,5
 516 655.266666667 516 655.266666667 516 714.633333333 c 0,6,7
 516 819.941176471 516 819.941176471 569.433962264 875.470588235 c 128,-1,8
 622.867924528 931 622.867924528 931 694.433962264 931 c 0,9,10
 815.095890411 931 815.095890411 931 873.047945205 854.081818182 c 128,-1,11
 931 777.163636364 931 777.163636364 931 671.806818182 c 128,-1,12
 931 566.45 931 566.45 873 492.5 c 0,13,14
 853 467 853 467 826 449 c 1,15,16
 901 404 901 404 901 293 c 0,17,18
 901 146.4 901 146.4 765 66.5 c 0,19,20
 648.404255319 -2 648.404255319 -2 494.431294326 -2 c 128,-1,21
 340.458333333 -2 340.458333333 -2 224.5 67 c 0,22,23
 85 150.008264463 85 150.008264463 85 294 c 0,24,25
 85 402.8 85 402.8 162 449 c 1,26,27
 56 519.666666667 56 519.666666667 56 666 c 0,28,29
 56 773.888888889 56 773.888888889 112.56 852.444444445 c 128,-1,30
 169.12 931 169.12 931 274 931 c 0,31,32
 410.888888889 931 410.888888889 931 456 815 c 0,33,34
 470 779 470 779 470 740 c 0,35,36
 470 661 470 661 422.8 602 c 128,-1,37
 375.6 543 375.6 543 299 543 c 1,0,1
713 792 m 256,38,39
 678.434782609 792 678.434782609 792 665.5 749.5 c 0,40,41
 662 738 662 738 662 726 c 256,42,43
 662 681.736842105 662 681.736842105 691.5 660 c 0,44,45
 701 653 701 653 714 653 c 256,46,47
 750.153846154 653 750.153846154 653 761 700 c 0,48,49
 764 713 764 713 764 725 c 256,50,51
 764 767.368421053 764 767.368421053 734.5 786 c 0,52,53
 725 792 725 792 713 792 c 256,38,39
278 792 m 256,54,55
 243.434782609 792 243.434782609 792 230.5 749.5 c 0,56,57
 227 738 227 738 227 726 c 256,58,59
 227 681.736842105 227 681.736842105 256.5 660 c 0,60,61
 266 653 266 653 279 653 c 256,62,63
 315.153846154 653 315.153846154 653 326 700 c 0,64,65
 329 713 329 713 329 725 c 256,66,67
 329 767.368421053 329 767.368421053 299.5 786 c 0,68,69
 290 792 290 792 278 792 c 256,54,55
334 368 m 1,70,71
 279 335.916666667 279 335.916666667 279 287.458333333 c 0,72,73
 279 209.793650794 279 209.793650794 353.5 175.5 c 0,74,75
 411.068965517 149 411.068965517 149 490 149 c 256,76,77
 625.346938776 149 625.346938776 149 685.5 214.5 c 0,78,79
 708 239 708 239 708 271.5 c 0,80,81
 708 336.64 708 336.64 652 368 c 1,82,83
 572.545454545 345 572.545454545 345 494.045454545 345 c 128,-1,84
 415.545454545 345 415.545454545 345 334 368 c 1,70,71
EndSplineSet
EndChar

StartChar: l1
Encoding: 3340 3340 108
Width: 1476
GlyphClass: 2
Flags: W
LayerCount: 2
Fore
SplineSet
765 784 m 1,0,1
 871.818181818 925 871.818181818 925 1079.40909091 925 c 128,-1,2
 1287 925 1287 925 1388.5 765.5 c 0,3,4
 1474 631.142857143 1474 631.142857143 1474 444.214285714 c 128,-1,5
 1474 257.285714286 1474 257.285714286 1417 136.5 c 0,6,7
 1344.56179775 -17 1344.56179775 -17 1200 -17 c 0,8,9
 1080.04 -17 1080.04 -17 1015.52 88.7704918035 c 128,-1,10
 951 194.540983607 951 194.540983607 951 322 c 0,11,12
 951 544.337078652 951 544.337078652 1066.5 623.5 c 0,13,14
 1111 654 1111 654 1173.61764706 654 c 128,-1,15
 1236.23529412 654 1236.23529412 654 1268 624 c 1,16,17
 1250.63157895 676.105263158 1250.63157895 676.105263158 1200.31578947 707.552631579 c 128,-1,18
 1150 739 1150 739 1093 739 c 0,19,20
 985.342465753 739 985.342465753 739 921.671232877 661.533333333 c 128,-1,21
 858 584.066666667 858 584.066666667 858 478 c 2,22,-1
 858 0 l 1,23,-1
 673 0 l 1,24,-1
 673 478 l 2,25,26
 673 584.066666667 673 584.066666667 609.328767124 661.533333333 c 128,-1,27
 545.657534247 739 545.657534247 739 446.68923224 739 c 128,-1,28
 347.720930233 739 347.720930233 739 290.5 672.5 c 0,29,30
 272 651 272 651 262 624 c 1,31,32
 293.764705882 654 293.764705882 654 356.382352941 654 c 0,33,34
 474.958333333 654 474.958333333 654 534 545 c 0,35,36
 580 460.076923077 580 460.076923077 580 327.308953342 c 128,-1,37
 580 194.540983607 580 194.540983607 515.48 88.7704918035 c 128,-1,38
 450.96 -17 450.96 -17 342.17117647 -17 c 128,-1,39
 233.382352941 -17 233.382352941 -17 165 58 c 0,40,41
 56 177.548387097 56 177.548387097 56 417 c 0,42,43
 56 760.146666667 56 760.146666667 262 881 c 0,44,45
 337 925 337 925 447 925 c 0,46,47
 658.181818182 925 658.181818182 925 765 784 c 1,0,1
1277 311 m 256,48,49
 1277 397.387096774 1277 397.387096774 1233.5 446.5 c 0,50,51
 1218 464 1218 464 1195.5 464 c 0,52,53
 1156.75510204 464 1156.75510204 464 1137 403.5 c 0,54,55
 1123 360.625 1123 360.625 1123 311 c 256,56,57
 1123 222.285714286 1123 222.285714286 1159 176 c 0,58,59
 1173 158 1173 158 1195.5 158 c 0,60,61
 1234.71428571 158 1234.71428571 158 1255.85714286 209.8 c 128,-1,62
 1277 261.6 1277 261.6 1277 311 c 256,48,49
408 311 m 256,63,64
 408 398.428571429 408 398.428571429 371 446 c 0,65,66
 357 464 357 464 334.5 464 c 0,67,68
 296.285714286 464 296.285714286 464 275.142857143 412.2 c 128,-1,69
 254 360.4 254 360.4 254 311 c 256,70,71
 254 225.666666667 254 225.666666667 297 175.5 c 0,72,73
 312 158 312 158 334.5 158 c 0,74,75
 372.510204082 158 372.510204082 158 393.5 218.5 c 0,76,77
 408 260.294117647 408 260.294117647 408 311 c 256,63,64
EndSplineSet
EndChar

StartChar: uni0D0E
Encoding: 3342 3342 109
Width: 1484
Flags: W
LayerCount: 2
Fore
SplineSet
589 375.5 m 128,-1,1
 607 318 607 318 607 274.666666667 c 128,-1,2
 607 231.333333333 607 231.333333333 596 169 c 1,3,-1
 683 169 l 1,4,-1
 683 347 l 2,5,6
 683 640 683 640 790 787.5 c 128,-1,7
 897 935 897 935 1089 935 c 0,8,9
 1310.10493827 935 1310.10493827 935 1403.5 757 c 0,10,11
 1477 616.917647059 1477 616.917647059 1477 336.525490196 c 128,-1,12
 1477 56.1333333333 1477 56.1333333333 1391 -242 c 1,13,-1
 1199 -242 l 1,14,15
 1258.02594194 -69.4626312539 1258.02594194 -69.4626312539 1286 186.5 c 0,16,17
 1296 278 1296 278 1296 362 c 0,18,19
 1296 544.64 1296 544.64 1250 644 c 0,20,21
 1195.37037037 762 1195.37037037 762 1086.18518519 762 c 128,-1,22
 977 762 977 762 917.5 655 c 128,-1,23
 858 548 858 548 858 340 c 2,24,-1
 858 169 l 1,25,-1
 980 169 l 1,26,-1
 980 509 l 1,27,-1
 1164 509 l 1,28,-1
 1164 5 l 1,29,-1
 1162 5 l 1,30,31
 1162 -131.88 1162 -131.88 1128 -194.44 c 128,-1,32
 1094 -257 1094 -257 1050.5 -286 c 128,-1,33
 1007 -315 1007 -315 937 -315 c 0,34,35
 683 -315 683 -315 683 5 c 1,36,-1
 384 5 l 1,37,38
 392 42 392 42 400.5 72 c 128,-1,39
 409 102 409 102 419.5 148.038461539 c 128,-1,40
 430 194.076923077 430 194.076923077 430 236.538461538 c 0,41,42
 430 306.636363636 430 306.636363636 406.972222222 344.318181818 c 128,-1,43
 383.944444444 382 383.944444444 382 346.972222222 382 c 0,44,45
 286.6 382 286.6 382 261.3 339.833333334 c 128,-1,46
 236 297.666666667 236 297.666666667 236 253.333333333 c 128,-1,47
 236 209 236 209 240 180 c 128,-1,48
 244 151 244 151 250.5 124 c 128,-1,49
 257 97 257 97 266.5 68.5 c 128,-1,50
 276 40 276 40 287 5 c 1,51,-1
 103 5 l 1,52,53
 94 41 94 41 86 69 c 128,-1,54
 78 97 78 97 68.5 140.541666667 c 128,-1,55
 59 184.083333333 59 184.083333333 59 246.041666667 c 0,56,57
 59 378.47826087 59 378.47826087 132.64516129 477.739130435 c 128,-1,58
 206.290322581 577 206.290322581 577 333.44516129 577 c 128,-1,59
 460.6 577 460.6 577 536.5 478 c 0,60,0
 571 433 571 433 589 375.5 c 128,-1,1
932 -155 m 0,61,62
 993 -155 993 -155 993 -65 c 2,63,-1
 993 -54 l 1,64,-1
 992 5 l 1,65,-1
 858 5 l 1,66,-1
 858 -41 l 2,67,68
 858 -108.714285714 858 -108.714285714 898 -143 c 0,69,70
 912 -155 912 -155 932 -155 c 0,61,62
EndSplineSet
EndChar

StartChar: uni0D0F
Encoding: 3343 3343 110
Width: 1563
Flags: W
LayerCount: 2
Fore
SplineSet
993 -48.5 m 2,0,1
 993 -21 l 2,2,3
 993 -8 993 -8 992 5 c 1,4,-1
 858 5 l 1,5,-1
 858 -41 l 2,6,7
 858 -102.678571429 858 -102.678571429 899 -130.5 c 0,8,9
 913 -140 913 -140 931.5 -140 c 0,10,11
 993 -140 993 -140 993 -48.5 c 2,0,1
1455 208 m 1,12,13
 1553 135.789473684 1553 135.789473684 1553 -21 c 0,14,15
 1553 -140.71875 1553 -140.71875 1485.67142857 -214.359375 c 128,-1,16
 1418.34285714 -288 1418.34285714 -288 1314 -288 c 2,17,-1
 1213 -288 l 1,18,-1
 1213 -122 l 1,19,-1
 1265 -122 l 2,20,21
 1313.73333333 -122 1313.73333333 -122 1350.36666667 -89.6764705882 c 128,-1,22
 1387 -57.3529411765 1387 -57.3529411765 1387 -3.67647058824 c 128,-1,23
 1387 50 1387 50 1351.5 79.5 c 128,-1,24
 1316 109 1316 109 1265 109 c 2,25,-1
 1213 109 l 1,26,-1
 1213 281 l 1,27,-1
 1235 281 l 2,28,29
 1344.64197531 281 1344.64197531 281 1373.5 418.5 c 0,30,31
 1382 459 1382 459 1382 508.5 c 0,32,33
 1382 612 1382 612 1309 685 c 128,-1,34
 1236 758 1236 758 1132 758 c 0,35,36
 957.954545455 758 957.954545455 758 897.5 606 c 0,37,38
 864.359336393 522.67490293 864.359336393 522.67490293 861.179668196 450.337451465 c 128,-1,39
 858 378 858 378 858 340 c 2,40,-1
 858 169 l 1,41,-1
 980 169 l 1,42,-1
 980 509 l 1,43,-1
 1164 509 l 1,44,-1
 1164 5 l 1,45,-1
 1162 5 l 1,46,-1
 1162 1 l 2,47,48
 1162 -213.306818182 1162 -213.306818182 1049 -286.5 c 0,49,50
 1005 -315 1005 -315 934.5 -315 c 0,51,52
 800.395348837 -315 800.395348837 -315 741.697674419 -227.965517241 c 128,-1,53
 683 -140.931034483 683 -140.931034483 683 0 c 2,54,-1
 683 5 l 1,55,-1
 384 5 l 1,56,57
 398 68 398 68 414 130.5 c 128,-1,58
 430 193 430 193 430 236 c 0,59,60
 430 305 430 305 406.472222222 343.5 c 128,-1,61
 382.944444444 382 382.944444444 382 346.472222222 382 c 0,62,63
 287 382 287 382 261.5 339.5 c 128,-1,64
 236 297 236 297 236 231.52631579 c 128,-1,65
 236 166.052631579 236 166.052631579 287 5 c 1,66,-1
 103 5 l 1,67,68
 59 160.294117647 59 160.294117647 59 234.147058824 c 0,69,70
 59 378.171428571 59 378.171428571 133.827956989 477.585714286 c 128,-1,71
 208.655913978 577 208.655913978 577 334.00773227 577 c 128,-1,72
 459.359550562 577 459.359550562 577 533.179775281 481.782608696 c 128,-1,73
 607 386.565217391 607 386.565217391 607 258 c 0,74,75
 607 217.4 607 217.4 596 169 c 1,76,-1
 683 169 l 1,77,-1
 683 347 l 2,78,79
 683 931 683 931 1129 931 c 256,80,81
 1323.41818182 931 1323.41818182 931 1440.70909091 816.823008849 c 128,-1,82
 1558 702.646017699 1558 702.646017699 1558 509 c 0,83,84
 1558 398.739130435 1558 398.739130435 1536.1279336 328.368134193 c 128,-1,85
 1514.2558672 257.997137951 1514.2558672 257.997137951 1455 208 c 1,12,13
EndSplineSet
EndChar

StartChar: uni0D10
Encoding: 3344 3344 111
Width: 2320
Flags: W
LayerCount: 2
Fore
SplineSet
1430 375.5 m 128,-1,1
 1448 318 1448 318 1448 277.5 c 128,-1,2
 1448 237 1448 237 1436 169 c 1,3,-1
 1523 169 l 1,4,-1
 1523 347 l 2,5,6
 1523 640 1523 640 1630 787.5 c 128,-1,7
 1737 935 1737 935 1929 935 c 0,8,9
 2150.10493827 935 2150.10493827 935 2243.5 757 c 0,10,11
 2317 616.917647059 2317 616.917647059 2317 336.525490196 c 128,-1,12
 2317 56.1333333333 2317 56.1333333333 2231 -242 c 1,13,-1
 2039 -242 l 1,14,15
 2098.02594194 -69.4626312539 2098.02594194 -69.4626312539 2126 186.5 c 0,16,17
 2136 278 2136 278 2136 362 c 0,18,19
 2136 544.64 2136 544.64 2090 644 c 0,20,21
 2035.37037037 762 2035.37037037 762 1926.18518519 762 c 128,-1,22
 1817 762 1817 762 1757.5 655 c 128,-1,23
 1698 548 1698 548 1698 340 c 2,24,-1
 1698 169 l 1,25,-1
 1820 169 l 1,26,-1
 1820 509 l 1,27,-1
 2004 509 l 1,28,-1
 2004 5 l 1,29,-1
 2002 5 l 1,30,31
 2002 -131.88 2002 -131.88 1968 -194.44 c 128,-1,32
 1934 -257 1934 -257 1890.5 -286 c 128,-1,33
 1847 -315 1847 -315 1777 -315 c 0,34,35
 1523 -315 1523 -315 1523 5 c 1,36,-1
 1224 5 l 1,37,38
 1232 42 1232 42 1240.5 72 c 128,-1,39
 1249 102 1249 102 1259.5 148.038461539 c 128,-1,40
 1270 194.076923077 1270 194.076923077 1270 236.538461538 c 0,41,42
 1270 306.636363636 1270 306.636363636 1246.97222222 344.318181818 c 128,-1,43
 1223.94444444 382 1223.94444444 382 1186.97222222 382 c 0,44,45
 1126.6 382 1126.6 382 1101.3 339.833333334 c 128,-1,46
 1076 297.666666667 1076 297.666666667 1076 253.333333333 c 128,-1,47
 1076 209 1076 209 1080 180 c 128,-1,48
 1084 151 1084 151 1090.5 124 c 128,-1,49
 1097 97 1097 97 1106.5 68.5 c 128,-1,50
 1116 40 1116 40 1127 5 c 1,51,-1
 943 5 l 1,52,53
 934 41 934 41 926 69 c 128,-1,54
 918 97 918 97 908.5 140.541666667 c 128,-1,55
 899 184.083333333 899 184.083333333 899 246.041666667 c 0,56,57
 899 378.47826087 899 378.47826087 972.64516129 477.739130435 c 128,-1,58
 1046.29032258 577 1046.29032258 577 1173.14516129 577 c 128,-1,59
 1300 577 1300 577 1377 478 c 0,60,0
 1412 433 1412 433 1430 375.5 c 128,-1,1
261 593 m 1,61,62
 290.25 619 290.25 619 352.625 619 c 0,63,64
 470.469879518 619 470.469879518 619 525.234939759 534.824074074 c 128,-1,65
 580 450.648148148 580 450.648148148 580 322.594565878 c 128,-1,66
 580 194.540983607 580 194.540983607 515.48 88.7704918035 c 128,-1,67
 450.96 -17 450.96 -17 331 -17 c 0,68,69
 130.907216495 -17 130.907216495 -17 75 229.5 c 0,70,71
 56 313.272727273 56 313.272727273 56 412.636363636 c 0,72,73
 56 631.142857143 56 631.142857143 141.5 765.5 c 0,74,75
 243 925 243 925 450.442307692 925 c 128,-1,76
 657.884615385 925 657.884615385 925 758.442307692 792.954545455 c 128,-1,77
 859 660.909090909 859 660.909090909 859 463.298295455 c 128,-1,78
 859 265.6875 859 265.6875 781 0 c 1,79,-1
 591 0 l 1,80,81
 675 234.315789474 675 234.315789474 675 435.826434063 c 128,-1,82
 675 637.337078652 675 637.337078652 545.5 713 c 0,83,84
 501 739 501 739 456.5 739 c 0,85,86
 384.487804878 739 384.487804878 739 328.822706787 693.354619565 c 128,-1,87
 273.157608696 647.70923913 273.157608696 647.70923913 261 593 c 1,61,62
1772 -155 m 0,88,89
 1833 -155 1833 -155 1833 -65 c 2,90,-1
 1833 -54 l 1,91,-1
 1832 5 l 1,92,-1
 1698 5 l 1,93,-1
 1698 -41 l 2,94,95
 1698 -108.714285714 1698 -108.714285714 1738 -143 c 0,96,97
 1752 -155 1752 -155 1772 -155 c 0,88,89
407 294 m 256,98,99
 407 378.034482759 407 378.034482759 369.5 422 c 0,100,101
 355 439 355 439 332.5 439 c 0,102,103
 293.347826087 439 293.347826087 439 272.173913043 390.3 c 128,-1,104
 251 341.6 251 341.6 251 294 c 256,105,106
 251 211.806451613 251 211.806451613 294.5 165.5 c 0,107,108
 310 149 310 149 332.5 149 c 0,109,110
 372.173913043 149 372.173913043 149 389.586956522 199.0625 c 128,-1,111
 407 249.125 407 249.125 407 294 c 256,98,99
EndSplineSet
EndChar

StartChar: uni0D12
Encoding: 3346 3346 112
Width: 966
Flags: W
LayerCount: 2
Fore
SplineSet
243 573 m 1,0,1
 284.086956522 608 284.086956522 608 348.543478261 608 c 0,2,3
 466.564102564 608 466.564102564 608 523.782051282 526.854545454 c 128,-1,4
 581 445.709090909 581 445.709090909 581 330 c 0,5,6
 581 96.1041666667 581 96.1041666667 451 13.5 c 0,7,8
 403 -17 403 -17 336 -17 c 128,-1,9
 269 -17 269 -17 224.5 3.5 c 128,-1,10
 180 24 180 24 149.5 58 c 0,11,12
 95.4099474145 118.2971078 95.4099474145 118.2971078 76.7049737073 212.806448637 c 128,-1,13
 58 307.315789474 58 307.315789474 58 432.657894737 c 128,-1,14
 58 558 58 558 100 656 c 128,-1,15
 142 754 142 754 210.5 815 c 0,16,17
 340.762295082 931 340.762295082 931 525.168647541 931 c 128,-1,18
 709.575 931 709.575 931 834.2875 845.726495726 c 128,-1,19
 959 760.452991453 959 760.452991453 959 619 c 0,20,21
 959 530.555555556 959 530.555555556 907 467 c 0,22,23
 889 445 889 445 864 429 c 1,24,25
 959 371.321428571 959 371.321428571 959 250.35562954 c 128,-1,26
 959 129.389830508 959 129.389830508 896.972222222 53.694915254 c 128,-1,27
 834.944444444 -22 834.944444444 -22 719 -22 c 0,28,29
 680 -22 680 -22 636 -12 c 1,30,-1
 627 159 l 1,31,32
 662.105263158 130 662.105263158 130 695.052631579 130 c 128,-1,33
 728 130 728 130 740.5 141 c 128,-1,34
 753 152 753 152 765 176.75 c 128,-1,35
 777 201.5 777 201.5 777 232.75 c 0,36,37
 777 288.516129032 777 288.516129032 745.041666667 313.258064516 c 128,-1,38
 713.083333333 338 713.083333333 338 668 338 c 2,39,-1
 639 338 l 1,40,-1
 639 492 l 1,41,-1
 685 492 l 2,42,43
 722.545454545 492 722.545454545 492 740.772727272 525.416666667 c 128,-1,44
 759 558.833333333 759 558.833333333 759 599.916666667 c 0,45,46
 759 671.93442623 759 671.93442623 694.352941177 707.967213115 c 128,-1,47
 629.705882353 744 629.705882353 744 558.352941176 744 c 0,48,49
 432.58974359 744 432.58974359 744 355.435109813 704.921678997 c 128,-1,50
 278.280476037 665.843357993 278.280476037 665.843357993 243 573 c 1,0,1
368.5 423.5 m 0,51,52
 353 441 353 441 328.5 441 c 0,53,54
 286.191489362 441 286.191489362 441 263.595744681 390.428571428 c 128,-1,55
 241 339.857142857 241 339.857142857 241 308.428571429 c 0,56,57
 241 247.142857143 241 247.142857143 263.595744681 196.571428571 c 128,-1,58
 286.191489362 146 286.191489362 146 329 146 c 0,59,60
 389.38 146 389.38 146 404.5 254 c 0,61,62
 408 279 408 279 408 294 c 256,63,64
 408 378.903225806 408 378.903225806 368.5 423.5 c 0,51,52
EndSplineSet
EndChar

StartChar: uni0D13
Encoding: 3347 3347 113
Width: 1446
Flags: W
LayerCount: 2
Fore
SplineSet
986 850 m 1,0,1
 1021.71428571 925 1021.71428571 925 1177 925 c 0,2,3
 1216 925 1216 925 1259.5 904 c 128,-1,4
 1303 883 1303 883 1334.5 848 c 0,5,6
 1392.0044843 784.10612855 1392.0044843 784.10612855 1416.50224215 681.011397609 c 128,-1,7
 1441 577.916666667 1441 577.916666667 1441 500.458333333 c 128,-1,8
 1441 423 1441 423 1435.5 369 c 128,-1,9
 1430 315 1430 315 1417 261.5 c 0,10,11
 1387.1227154 138.543482627 1387.1227154 138.543482627 1322.31793665 62.7717413135 c 128,-1,12
 1257.51315789 -13 1257.51315789 -13 1143.05657895 -13 c 128,-1,13
 1028.6 -13 1028.6 -13 986 58 c 1,14,-1
 991 251 l 1,15,16
 1037.11111111 168 1037.11111111 168 1096.55555556 168 c 128,-1,17
 1156 168 1156 168 1185 199.5 c 0,18,19
 1253 273.362068966 1253 273.362068966 1253 463 c 0,20,21
 1253 735 1253 735 1123 735 c 0,22,23
 1085 735 1085 735 1048.5 711.5 c 128,-1,24
 1012 688 1012 688 991 646 c 1,25,-1
 986 850 l 1,0,1
243 573 m 1,26,27
 284.086956522 608 284.086956522 608 348.543478261 608 c 0,28,29
 466.564102564 608 466.564102564 608 523.782051282 526.854545454 c 128,-1,30
 581 445.709090909 581 445.709090909 581 330 c 0,31,32
 581 96.1041666667 581 96.1041666667 451 13.5 c 0,33,34
 403 -17 403 -17 336 -17 c 128,-1,35
 269 -17 269 -17 224.5 3.5 c 128,-1,36
 180 24 180 24 149.5 58 c 0,37,38
 95.4099474145 118.2971078 95.4099474145 118.2971078 76.7049737073 212.806448637 c 128,-1,39
 58 307.315789474 58 307.315789474 58 432.657894737 c 128,-1,40
 58 558 58 558 100 656 c 128,-1,41
 142 754 142 754 210.5 815 c 0,42,43
 340.762295082 931 340.762295082 931 525.168647541 931 c 128,-1,44
 709.575 931 709.575 931 834.2875 845.726495726 c 128,-1,45
 959 760.452991453 959 760.452991453 959 619 c 0,46,47
 959 530.555555556 959 530.555555556 907 467 c 0,48,49
 889 445 889 445 864 429 c 1,50,51
 959 371.321428571 959 371.321428571 959 250.35562954 c 128,-1,52
 959 129.389830508 959 129.389830508 896.972222222 53.694915254 c 128,-1,53
 834.944444444 -22 834.944444444 -22 719 -22 c 0,54,55
 680 -22 680 -22 636 -12 c 1,56,-1
 627 159 l 1,57,58
 662.105263158 130 662.105263158 130 695.052631579 130 c 128,-1,59
 728 130 728 130 740.5 141 c 128,-1,60
 753 152 753 152 765 176.75 c 128,-1,61
 777 201.5 777 201.5 777 232.75 c 0,62,63
 777 288.516129032 777 288.516129032 745.041666667 313.258064516 c 128,-1,64
 713.083333333 338 713.083333333 338 668 338 c 2,65,-1
 639 338 l 1,66,-1
 639 492 l 1,67,-1
 685 492 l 2,68,69
 722.545454545 492 722.545454545 492 740.772727272 525.416666667 c 128,-1,70
 759 558.833333333 759 558.833333333 759 599.916666667 c 0,71,72
 759 671.93442623 759 671.93442623 694.352941177 707.967213115 c 128,-1,73
 629.705882353 744 629.705882353 744 558.352941176 744 c 0,74,75
 432.58974359 744 432.58974359 744 355.435109813 704.921678997 c 128,-1,76
 278.280476037 665.843357993 278.280476037 665.843357993 243 573 c 1,26,27
368.5 423.5 m 0,77,78
 353 441 353 441 328.5 441 c 0,79,80
 286.191489362 441 286.191489362 441 263.595744681 390.428571428 c 128,-1,81
 241 339.857142857 241 339.857142857 241 308.428571429 c 0,82,83
 241 247.142857143 241 247.142857143 263.595744681 196.571428571 c 128,-1,84
 286.191489362 146 286.191489362 146 329 146 c 0,85,86
 389.38 146 389.38 146 404.5 254 c 0,87,88
 408 279 408 279 408 294 c 256,89,90
 408 378.903225806 408 378.903225806 368.5 423.5 c 0,77,78
EndSplineSet
EndChar

StartChar: uni0D14
Encoding: 3348 3348 114
Width: 1809
Flags: W
LayerCount: 2
Fore
SplineSet
243 573 m 1,0,1
 284.086956522 608 284.086956522 608 348.543478261 608 c 0,2,3
 466.564102564 608 466.564102564 608 523.782051282 526.854545454 c 128,-1,4
 581 445.709090909 581 445.709090909 581 330 c 0,5,6
 581 96.1041666667 581 96.1041666667 451 13.5 c 0,7,8
 403 -17 403 -17 336 -17 c 128,-1,9
 269 -17 269 -17 224.5 3.5 c 128,-1,10
 180 24 180 24 149.5 58 c 0,11,12
 95.4099474145 118.2971078 95.4099474145 118.2971078 76.7049737073 212.806448637 c 128,-1,13
 58 307.315789474 58 307.315789474 58 432.657894737 c 128,-1,14
 58 558 58 558 100 656 c 128,-1,15
 142 754 142 754 210.5 815 c 0,16,17
 340.762295082 931 340.762295082 931 525.168647541 931 c 128,-1,18
 709.575 931 709.575 931 834.2875 845.726495726 c 128,-1,19
 959 760.452991453 959 760.452991453 959 619 c 0,20,21
 959 530.555555556 959 530.555555556 907 467 c 0,22,23
 889 445 889 445 864 429 c 1,24,25
 959 371.321428571 959 371.321428571 959 250.35562954 c 128,-1,26
 959 129.389830508 959 129.389830508 896.972222222 53.694915254 c 128,-1,27
 834.944444444 -22 834.944444444 -22 719 -22 c 0,28,29
 680 -22 680 -22 636 -12 c 1,30,-1
 627 159 l 1,31,32
 662.105263158 130 662.105263158 130 695.052631579 130 c 128,-1,33
 728 130 728 130 740.5 141 c 128,-1,34
 753 152 753 152 765 176.75 c 128,-1,35
 777 201.5 777 201.5 777 232.75 c 0,36,37
 777 288.516129032 777 288.516129032 745.041666667 313.258064516 c 128,-1,38
 713.083333333 338 713.083333333 338 668 338 c 2,39,-1
 639 338 l 1,40,-1
 639 492 l 1,41,-1
 685 492 l 2,42,43
 722.545454545 492 722.545454545 492 740.772727272 525.416666667 c 128,-1,44
 759 558.833333333 759 558.833333333 759 599.916666667 c 0,45,46
 759 671.93442623 759 671.93442623 694.352941177 707.967213115 c 128,-1,47
 629.705882353 744 629.705882353 744 558.352941176 744 c 0,48,49
 432.58974359 744 432.58974359 744 355.435109813 704.921678997 c 128,-1,50
 278.280476037 665.843357993 278.280476037 665.843357993 243 573 c 1,0,1
368.5 423.5 m 0,51,52
 353 441 353 441 328.5 441 c 0,53,54
 286.191489362 441 286.191489362 441 263.595744681 390.428571428 c 128,-1,55
 241 339.857142857 241 339.857142857 241 308.428571429 c 0,56,57
 241 247.142857143 241 247.142857143 263.595744681 196.571428571 c 128,-1,58
 286.191489362 146 286.191489362 146 329 146 c 0,59,60
 389.38 146 389.38 146 404.5 254 c 0,61,62
 408 279 408 279 408 294 c 256,63,64
 408 378.903225806 408 378.903225806 368.5 423.5 c 0,51,52
1090 257 m 1,65,66
 1188.83928571 134 1188.83928571 134 1339 134 c 0,67,68
 1480.49494949 134 1480.49494949 134 1556.24747475 236.732876713 c 128,-1,69
 1632 339.465753425 1632 339.465753425 1632 474.732876713 c 128,-1,70
 1632 610 1632 610 1580 675 c 0,71,72
 1560 700 1560 700 1536 700 c 0,73,74
 1494.96428571 700 1494.96428571 700 1469.98214286 669.586956522 c 128,-1,75
 1445 639.173913043 1445 639.173913043 1445 601 c 2,76,-1
 1445 460 l 1,77,-1
 1295 460 l 1,78,-1
 1295 620 l 2,79,80
 1295 668.666666667 1295 668.666666667 1261.5 691 c 0,81,82
 1251 698 1251 698 1234 698 c 0,83,84
 1197.8 698 1197.8 698 1174.9 659.833333333 c 128,-1,85
 1152 621.666666667 1152 621.666666667 1152 574.833333333 c 128,-1,86
 1152 528 1152 528 1169 479 c 128,-1,87
 1186 430 1186 430 1203 378 c 1,88,-1
 1035 378 l 1,89,90
 1025 426 1025 426 1014.5 470 c 128,-1,91
 1004 514 1004 514 1004 568 c 128,-1,92
 1004 622 1004 622 1016 678.5 c 128,-1,93
 1028 735 1028 735 1056 779 c 128,-1,94
 1084 823 1084 823 1130.5 850 c 128,-1,95
 1177 877 1177 877 1251.91428571 877 c 128,-1,96
 1326.82857143 877 1326.82857143 877 1367 803 c 1,97,98
 1396.83712785 856.043782837 1396.83712785 856.043782837 1464.5 876.5 c 0,99,100
 1486 883 1486 883 1508 883 c 0,101,102
 1651.8 883 1651.8 883 1734 746 c 0,103,104
 1804 629.333333333 1804 629.333333333 1804 501.166666667 c 0,105,106
 1804 262.882352941 1804 262.882352941 1678.74242424 123.941176471 c 128,-1,107
 1553.48484848 -15 1553.48484848 -15 1358.4539627 -15 c 128,-1,108
 1163.42307692 -15 1163.42307692 -15 1090 68 c 1,109,-1
 1090 257 l 1,65,66
EndSplineSet
EndChar

StartChar: k1
Encoding: 3349 3349 115
Width: 1293
GlyphClass: 2
Flags: W
LayerCount: 2
Fore
SplineSet
1297 284 m 0,0,1
 1297 221 1297 221 1278.5 167.5 c 128,-1,2
 1260 114 1260 114 1224.5 75 c 128,-1,3
 1189 36 1189 36 1138 14 c 128,-1,4
 1087 -8 1087 -8 1022 -8 c 2,5,-1
 998 -8 l 1,6,-1
 998 150 l 1,7,-1
 1020 150 l 2,8,9
 1047 150 1047 150 1066.5 163.5 c 128,-1,10
 1086 177 1086 177 1098 197.5 c 128,-1,11
 1110 218 1110 218 1116 242.5 c 128,-1,12
 1122 267 1122 267 1122 290 c 0,13,14
 1122 312 1122 312 1116.5 335.5 c 128,-1,15
 1111 359 1111 359 1099 378.5 c 128,-1,16
 1087 398 1087 398 1068.5 411 c 128,-1,17
 1050 424 1050 424 1024 424 c 2,18,-1
 996 424 l 1,19,20
 993 371 993 371 985 317.5 c 128,-1,21
 977 264 977 264 962 215 c 128,-1,22
 947 166 947 166 922.5 123.5 c 128,-1,23
 898 81 898 81 862.5 49.5 c 128,-1,24
 827 18 827 18 778.5 0 c 128,-1,25
 730 -18 730 -18 666 -18 c 0,26,27
 624 -18 624 -18 582.5 -8 c 128,-1,28
 541 2 541 2 509 31 c 1,29,30
 478 5 478 5 439.5 -6.5 c 128,-1,31
 401 -18 401 -18 360 -18 c 0,32,33
 294 -18 294 -18 239 4 c 128,-1,34
 184 26 184 26 145 65.5 c 128,-1,35
 106 105 106 105 84.5 160 c 128,-1,36
 63 215 63 215 63 281 c 0,37,38
 63 345 63 345 83.5 402 c 128,-1,39
 104 459 104 459 142.5 501.5 c 128,-1,40
 181 544 181 544 235 568.5 c 128,-1,41
 289 593 289 593 355 593 c 1,42,43
 362 659 362 659 386 719.5 c 128,-1,44
 410 780 410 780 450.5 825.5 c 128,-1,45
 491 871 491 871 547.5 898 c 128,-1,46
 604 925 604 925 676 925 c 0,47,48
 745 925 745 925 801.5 897.5 c 128,-1,49
 858 870 858 870 899 824 c 128,-1,50
 940 778 940 778 964 718 c 128,-1,51
 988 658 988 658 992 593 c 1,52,-1
 1032 593 l 2,53,54
 1096 593 1096 593 1145.5 567 c 128,-1,55
 1195 541 1195 541 1229 498 c 128,-1,56
 1263 455 1263 455 1280 399 c 128,-1,57
 1297 343 1297 343 1297 284 c 0,0,1
813 593 m 1,58,59
 810 622 810 622 800 649.5 c 128,-1,60
 790 677 790 677 773 698.5 c 128,-1,61
 756 720 756 720 731.5 733 c 128,-1,62
 707 746 707 746 675 746 c 128,-1,63
 643 746 643 746 618 733 c 128,-1,64
 593 720 593 720 575.5 698.5 c 128,-1,65
 558 677 558 677 547.5 649.5 c 128,-1,66
 537 622 537 622 534 593 c 1,67,-1
 813 593 l 1,58,59
818 424 m 1,68,-1
 529 424 l 1,69,70
 530 400 530 400 532.5 371 c 128,-1,71
 535 342 535 342 540.5 312 c 128,-1,72
 546 282 546 282 556 254 c 128,-1,73
 566 226 566 226 582 204 c 128,-1,74
 598 182 598 182 621 168.5 c 128,-1,75
 644 155 644 155 676 155 c 0,76,77
 709 155 709 155 732 168.5 c 128,-1,78
 755 182 755 182 770.5 204 c 128,-1,79
 786 226 786 226 795.5 254 c 128,-1,80
 805 282 805 282 809.5 312 c 128,-1,81
 814 342 814 342 816 371 c 128,-1,82
 818 400 818 400 818 424 c 1,68,-1
398 158 m 1,83,84
 371 221 371 221 363 288.5 c 128,-1,85
 355 356 355 356 351 424 c 1,86,-1
 345 424 l 2,87,88
 317 424 317 424 297 410 c 128,-1,89
 277 396 277 396 264.5 375 c 128,-1,90
 252 354 252 354 246 328.5 c 128,-1,91
 240 303 240 303 240 280 c 128,-1,92
 240 257 240 257 245.5 234 c 128,-1,93
 251 211 251 211 263 192.5 c 128,-1,94
 275 174 275 174 294 162.5 c 128,-1,95
 313 151 313 151 339 151 c 0,96,97
 354 151 354 151 368.5 153.5 c 128,-1,98
 383 156 383 156 398 158 c 1,83,84
EndSplineSet
EndChar

StartChar: k2
Encoding: 3350 3350 116
Width: 1146
GlyphClass: 2
Flags: W
LayerCount: 2
Fore
SplineSet
848.5 644 m 128,-1,1
 874 560 874 560 874 446.5625 c 128,-1,2
 874 333.125 874 333.125 799 155 c 1,3,-1
 973 155 l 1,4,-1
 963 909 l 1,5,-1
 1142 909 l 1,6,-1
 1152 0 l 1,7,-1
 760 1 l 1,8,-1
 760 0 l 1,9,-1
 569 0 l 1,10,-1
 569 37 l 1,11,12
 652.409638554 176.016064257 652.409638554 176.016064257 681 355.5 c 0,13,14
 690 412 690 412 690 465.5 c 0,15,16
 690 587.527272727 690 587.527272727 634.139240507 667.763636364 c 128,-1,17
 578.278481013 748 578.278481013 748 461 748 c 0,18,19
 318.64556962 748 318.64556962 748 261 621.5 c 0,20,21
 243 582 243 582 236 534 c 1,22,23
 274.85 571 274.85 571 331.425 571 c 0,24,25
 438.975903614 571 438.975903614 571 498.987951807 483.614035088 c 128,-1,26
 559 396.228070175 559 396.228070175 559 281.53711201 c 128,-1,27
 559 166.846153846 559 166.846153846 488.454022989 72.423076923 c 128,-1,28
 417.908045977 -22 417.908045977 -22 308 -22 c 0,29,30
 53 -22 53 -22 53 411 c 0,31,32
 53 760.717948718 53 760.717948718 273 882 c 0,33,34
 351 925 351 925 458.5 925 c 128,-1,35
 566 925 566 925 643 889 c 128,-1,36
 720 853 720 853 771.5 790.5 c 128,-1,0
 823 728 823 728 848.5 644 c 128,-1,1
311 404 m 256,37,38
 253.181818182 404 253.181818182 404 237 315 c 0,39,40
 233 293 233 293 233 277 c 256,41,42
 233 202.266666667 233 202.266666667 274 164 c 0,43,44
 289 150 289 150 311 150 c 256,45,46
 368.818181818 150 368.818181818 150 385 239 c 0,47,48
 389 261 389 261 389 277 c 256,49,50
 389 353.6 389 353.6 348 390.5 c 0,51,52
 333 404 333 404 311 404 c 256,37,38
EndSplineSet
EndChar

StartChar: k3
Encoding: 3351 3351 117
Width: 1035
GlyphClass: 2
Flags: W
LayerCount: 2
Fore
SplineSet
414 620.095238095 m 0,0,1
 414 930 414 930 707.970873785 930 c 128,-1,2
 1001.94174757 930 1001.94174757 930 1028 594.5 c 0,3,4
 1032 543 1032 543 1032 504 c 128,-1,5
 1032 465 1032 465 1027.5 425 c 128,-1,6
 1023 385 1023 385 1015 338.5 c 0,7,8
 999.864864865 250.527027027 999.864864865 250.527027027 971.132432432 149.963513514 c 128,-1,9
 942.4 49.4 942.4 49.4 912 0 c 1,10,-1
 724 0 l 1,11,12
 790.542857143 117.428571429 790.542857143 117.428571429 831 345 c 0,13,14
 848 440.625 848 440.625 848 494 c 0,15,16
 848 746 848 746 710 746 c 0,17,18
 598 746 598 746 598 623 c 0,19,20
 598 550.347826087 598 550.347826087 619.5 481.173913043 c 128,-1,21
 641 412 641 412 651 373.5 c 128,-1,22
 661 335 661 335 661 280.5 c 0,23,24
 661 155.515625 661 155.515625 595.3 68.2578125 c 128,-1,25
 529.6 -19 529.6 -19 389 -19 c 0,26,27
 81.4953271028 -19 81.4953271028 -19 58.5 332.5 c 0,28,29
 55 386 55 386 55 432 c 0,30,31
 55 534.962962963 55 534.962962963 84.0131195335 677.879440665 c 128,-1,32
 113.026239067 820.795918367 113.026239067 820.795918367 164 910 c 1,33,-1
 354 910 l 1,34,35
 290.18957346 824.91943128 290.18957346 824.91943128 253 588.5 c 0,36,37
 239 499.5 239 499.5 239 430.75 c 0,38,39
 239 284.272727273 239 284.272727273 270.152173913 219.136363636 c 128,-1,40
 301.304347826 154 301.304347826 154 379 154 c 0,41,42
 426.974358974 154 426.974358974 154 454.141408342 196.380597015 c 128,-1,43
 481.308457711 238.76119403 481.308457711 238.76119403 477.154228856 281.880597015 c 128,-1,44
 473 325 473 325 462.5 364.5 c 128,-1,45
 452 404 452 404 433 479.095238095 c 128,-1,46
 414 554.19047619 414 554.19047619 414 620.095238095 c 0,0,1
EndSplineSet
EndChar

StartChar: k4
Encoding: 3352 3352 118
Width: 1602
GlyphClass: 2
Flags: W
LayerCount: 2
Fore
SplineSet
384 296 m 1,0,1
 430 498.941176471 430 498.941176471 430 547.970588235 c 0,2,3
 430 625.818181818 430 625.818181818 406.3 668.909090909 c 128,-1,4
 382.6 712 382.6 712 346.3 712 c 0,5,6
 237 712 237 712 237 538.005681818 c 0,7,8
 237 459.636363636 237 459.636363636 287 296 c 1,9,-1
 103 296 l 1,10,11
 61 455.157894737 61 455.157894737 61 540.078947368 c 0,12,13
 61 690.376811594 61 690.376811594 134.261627907 781.688405797 c 128,-1,14
 207.523255814 873 207.523255814 873 333.978495377 873 c 128,-1,15
 460.43373494 873 460.43373494 873 533.21686747 785.449275362 c 128,-1,16
 606 697.898550725 606 697.898550725 606 580 c 0,17,18
 606 526 606 526 596 456 c 1,19,-1
 673 456 l 1,20,21
 673 731.027027027 673 731.027027027 803 854 c 0,22,23
 883.342857143 930 883.342857143 930 992.171428571 930 c 128,-1,24
 1101 930 1101 930 1164.5 891.5 c 0,25,26
 1339 785.700787402 1339 785.700787402 1339 494 c 1,27,28
 1338 444 1338 444 1338 398.5 c 2,29,-1
 1338 296 l 1,30,-1
 857 296 l 1,31,-1
 857 159 l 1,32,-1
 1417 159 l 1,33,-1
 1407 909 l 1,34,-1
 1591 909 l 1,35,-1
 1601 0 l 1,36,-1
 673 0 l 1,37,-1
 673 296 l 1,38,39
 659.981981981 290.792792792 659.981981981 290.792792792 384 296 c 1,0,1
1154 456 m 1,40,41
 1154 746 1154 746 1005.5 746 c 128,-1,42
 857 746 857 746 857 456 c 1,43,-1
 1154 456 l 1,40,41
EndSplineSet
EndChar

StartChar: ng
Encoding: 3353 3353 119
Width: 1321
GlyphClass: 2
Flags: W
LayerCount: 2
Fore
SplineSet
308 -22 m 0,0,1
 50 -22 50 -22 50 412 c 0,2,3
 50 816.623931624 50 816.623931624 308.5 905 c 0,4,5
 367 925 367 925 424 925 c 0,6,7
 535.935483871 925 535.935483871 925 625.211284371 892.819188192 c 128,-1,8
 714.487084871 860.638376384 714.487084871 860.638376384 747 792 c 1,9,10
 772.780051151 863.815856777 772.780051151 863.815856777 847.162752848 897.907928389 c 128,-1,11
 921.545454545 932 921.545454545 932 999.772727273 932 c 0,12,13
 1150.27848101 932 1150.27848101 932 1240.63924051 848.994186046 c 128,-1,14
 1331 765.988372093 1331 765.988372093 1331 626 c 0,15,16
 1331 545.0625 1331 545.0625 1322.5 519.03125 c 0,17,18
 1304.25950197 463.169724771 1304.25950197 463.169724771 1237 426 c 1,19,20
 1318.19817471 391.949152542 1318.19817471 391.949152542 1328 307 c 0,21,22
 1331 281 1331 281 1331 240 c 0,23,24
 1331 141.5 1331 141.5 1274.84782608 69.75 c 128,-1,25
 1218.69565217 -2 1218.69565217 -2 1111 -2 c 2,26,-1
 1023 -2 l 1,27,-1
 1023 181 l 1,28,29
 1110.51724138 181 1110.51724138 181 1135.5 212.5 c 0,30,31
 1147 227 1147 227 1147 252 c 256,32,33
 1147 315.25 1147 315.25 1070 320.5 c 0,34,35
 1048 322 1048 322 1025 322 c 1,36,-1
 1025 505 l 1,37,-1
 1046 505 l 2,38,39
 1093.78378378 505 1093.78378378 505 1120.39189189 544.38 c 128,-1,40
 1147 583.76 1147 583.76 1147 625.38 c 0,41,42
 1147 744 1147 744 1008.3 744 c 0,43,44
 908.625 744 908.625 744 874.3125 689.1 c 128,-1,45
 840 634.2 840 634.2 840 535 c 2,46,-1
 840 0 l 1,47,-1
 657 0 l 1,48,-1
 657 519 l 2,49,50
 657 622 657 622 604 683 c 128,-1,51
 551 744 551 744 441 744 c 0,52,53
 267.465116279 744 267.465116279 744 239 540 c 1,54,55
 279.375 578 279.375 578 334.1875 578 c 0,56,57
 439.965517241 578 439.965517241 578 500.482758621 485.631578947 c 128,-1,58
 561 393.263157895 561 393.263157895 561 278 c 128,-1,59
 561 162.769230769 561 162.769230769 490.352941176 70.3846153845 c 128,-1,60
 419.705882353 -22 419.705882353 -22 308 -22 c 0,0,1
383 240 m 0,61,62
 387 261 387 261 387 277.5 c 0,63,64
 387 319.666666667 387 319.666666667 368 360.833333333 c 128,-1,65
 349 402 349 402 311 402 c 256,66,67
 255.093023256 402 255.093023256 402 239 315.5 c 0,68,69
 235 294 235 294 235 277.5 c 0,70,71
 235 236.333333333 235 236.333333333 254 195.166666667 c 128,-1,72
 273 154 273 154 311 154 c 256,73,74
 366.619047619 154 366.619047619 154 383 240 c 0,61,62
EndSplineSet
EndChar

StartChar: ch1
Encoding: 3354 3354 120
Width: 1152
GlyphClass: 2
Flags: W
LayerCount: 2
Fore
SplineSet
756 159 m 1,0,-1
 970 159 l 1,1,-1
 960 909 l 1,2,-1
 1144 909 l 1,3,-1
 1154 0 l 1,4,-1
 50 0 l 1,5,-1
 60 149 l 1,6,-1
 494 159 l 2,7,8
 556.817610063 160.903563941 556.817610063 160.903563941 599.908805031 226.092807612 c 128,-1,9
 643 291.282051282 643 291.282051282 643 357 c 0,10,11
 643 526 643 526 509.5 526 c 128,-1,12
 376 526 376 526 376 349 c 0,13,14
 376 274.6 376 274.6 412 226 c 1,15,-1
 228 226 l 1,16,17
 195 292 195 292 195 369 c 0,18,19
 195 526 195 526 275.215909091 616.5 c 128,-1,20
 355.431818182 707 355.431818182 707 505.444824754 707 c 128,-1,21
 655.457831325 707 655.457831325 707 743.228915662 620.273809524 c 128,-1,22
 831 533.547619048 831 533.547619048 831 394.350732601 c 128,-1,23
 831 255.153846154 831 255.153846154 756 159 c 1,0,-1
EndSplineSet
EndChar

StartChar: ch2
Encoding: 3355 3355 121
Width: 1628
GlyphClass: 2
Flags: W
LayerCount: 2
Fore
SplineSet
1251 744 m 0,0,1
 1031 744 1031 744 1031 430.629514964 c 0,2,3
 1031 284.631578947 1031 284.631578947 1135 0 c 1,4,-1
 50 0 l 1,5,-1
 60 149 l 1,6,-1
 464 159 l 2,7,8
 526.817610063 160.903563941 526.817610063 160.903563941 569.908805031 226.092807612 c 128,-1,9
 613 291.282051282 613 291.282051282 613 341.141025641 c 0,10,11
 613 526 613 526 479.5 526 c 128,-1,12
 346 526 346 526 346 349 c 0,13,14
 346 274.6 346 274.6 382 226 c 1,15,-1
 198 226 l 1,16,17
 165 292 165 292 165 369 c 0,18,19
 165 525.063291139 165 525.063291139 245.747191011 616.03164557 c 128,-1,20
 326.494382022 707 326.494382022 707 475.976106673 707 c 128,-1,21
 625.457831325 707 625.457831325 707 713.228915662 620.273809524 c 128,-1,22
 801 533.547619048 801 533.547619048 801 394.629072682 c 128,-1,23
 801 255.710526316 801 255.710526316 726 159 c 1,24,-1
 903 159 l 1,25,26
 848 347.571428571 848 347.571428571 848 452.785714286 c 0,27,28
 848 667.393939394 848 667.393939394 950.012 796.196969697 c 128,-1,29
 1052.024 925 1052.024 925 1253 925 c 0,30,31
 1632 925 1632 925 1632 454 c 0,32,33
 1632 164.948275862 1632 164.948275862 1552 61.5 c 0,34,35
 1488.97333333 -20 1488.97333333 -20 1365.14828283 -20 c 128,-1,36
 1241.32323232 -20 1241.32323232 -20 1181.16161616 82.6896551725 c 128,-1,37
 1121 185.379310345 1121 185.379310345 1121 322 c 0,38,39
 1121 550.222222222 1121 550.222222222 1236 632 c 0,40,41
 1281 664 1281 664 1345.38235294 664 c 128,-1,42
 1409.76470588 664 1409.76470588 664 1438 634 c 1,43,44
 1400.1875 744 1400.1875 744 1251 744 c 0,0,1
1446 321 m 256,45,46
 1446 413.032258065 1446 413.032258065 1403.5 466.5 c 0,47,48
 1388 486 1388 486 1365.5 486 c 0,49,50
 1326.55555556 486 1326.55555556 486 1309.77777778 429.375 c 128,-1,51
 1293 372.75 1293 372.75 1293 321 c 256,52,53
 1293 225.642857143 1293 225.642857143 1329 175.5 c 0,54,55
 1343 156 1343 156 1365.5 156 c 0,56,57
 1405.01886792 156 1405.01886792 156 1425.50943396 213.157894737 c 128,-1,58
 1446 270.315789474 1446 270.315789474 1446 321 c 256,45,46
EndSplineSet
EndChar

StartChar: ch3
Encoding: 3356 3356 122
Width: 1175
GlyphClass: 2
Flags: W
LayerCount: 2
Fore
SplineSet
1057 363 m 1,0,1
 1138 316.714285714 1138 316.714285714 1138 201 c 0,2,3
 1138 107.131147541 1138 107.131147541 1074.20535715 48.5655737705 c 128,-1,4
 1010.41071429 -10 1010.41071429 -10 911 -10 c 0,5,6
 775 -10 775 -10 716.5 83 c 0,7,8
 697 114 697 114 692 155 c 1,9,10
 656.729346486 67.751541307 656.729346486 67.751541307 561 21 c 0,11,12
 430.275882705 -42.842010772 430.275882705 -42.842010772 266 -7 c 0,13,14
 145.639696587 19.2604298357 145.639696587 19.2604298357 89 99.5 c 0,15,16
 59 142 59 142 59 192.5 c 0,17,18
 59 280.06 59 280.06 111.872093023 325.53 c 128,-1,19
 164.744186047 371 164.744186047 371 243 371 c 2,20,-1
 796 371 l 2,21,22
 879.538461538 371 879.538461538 371 924.269230769 438.61627907 c 128,-1,23
 969 506.23255814 969 506.23255814 969 596 c 0,24,25
 969 770 969 770 841 770 c 0,26,27
 793 770 793 770 762 746.5 c 128,-1,28
 731 723 731 723 731 673 c 2,29,-1
 731 406 l 1,30,-1
 542 406 l 1,31,32
 542 441 542 441 545.888535032 525.251592356 c 0,33,34
 553.670043416 693.850940664 553.670043416 693.850940664 500.153203526 736.925470332 c 128,-1,35
 446.636363636 780 446.636363636 780 387.318181818 780 c 0,36,37
 267.25 780 267.25 780 226 720 c 1,38,39
 261 744 261 744 299.5 744 c 0,40,41
 374.666666667 744 374.666666667 744 418.333333333 697.214285714 c 128,-1,42
 462 650.428571429 462 650.428571429 462 591.214285714 c 0,43,44
 462 487.169811321 462 487.169811321 407.173913043 439.58490566 c 128,-1,45
 352.347826087 392 352.347826087 392 280.173913043 392 c 0,46,47
 160.281690141 392 160.281690141 392 108.64084507 465.33 c 128,-1,48
 57 538.66 57 538.66 57 628.33 c 0,49,50
 57 786.522727273 57 786.522727273 147.698630137 861.761363636 c 128,-1,51
 238.397260274 937 238.397260274 937 388.167380137 937 c 128,-1,52
 537.9375 937 537.9375 937 629 844 c 1,53,54
 702.625 937 702.625 937 843.340589888 937 c 128,-1,55
 984.056179775 937 984.056179775 937 1067.52808989 844.1375 c 128,-1,56
 1151 751.275 1151 751.275 1151 622.415277778 c 0,57,58
 1151 438.923076923 1151 438.923076923 1057 363 c 1,0,1
897 274 m 256,59,60
 850.75 274 850.75 274 831.5 225 c 0,61,62
 826 211 826 211 826 189 c 128,-1,63
 826 167 826 167 844 145 c 128,-1,64
 862 123 862 123 892.5 123 c 128,-1,65
 923 123 923 123 945 144.5 c 128,-1,66
 967 166 967 166 967 188.5 c 0,67,68
 967 225.555555556 967 225.555555556 947.181818182 249.777777778 c 128,-1,69
 927.363636364 274 927.363636364 274 897 274 c 256,59,60
310.5 626.5 m 128,-1,71
 296 646 296 646 271.5 646 c 128,-1,72
 247 646 247 646 232 626.5 c 128,-1,73
 217 607 217 607 217 583.5 c 128,-1,74
 217 560 217 560 232 539.5 c 128,-1,75
 247 519 247 519 271.5 519 c 128,-1,76
 296 519 296 519 310.5 539.5 c 128,-1,77
 325 560 325 560 325 583.5 c 128,-1,70
 325 607 325 607 310.5 626.5 c 128,-1,71
246 200 m 0,78,79
 246 131 246 131 402.177419355 131 c 128,-1,80
 558.35483871 131 558.35483871 131 590 240 c 1,81,-1
 288 240 l 2,82,83
 271 240 271 240 258.5 228 c 128,-1,84
 246 216 246 216 246 200 c 0,78,79
EndSplineSet
EndChar

StartChar: ch4
Encoding: 3357 3357 123
Width: 2079
GlyphClass: 2
Flags: W
LayerCount: 2
Fore
SplineSet
2007 910 m 1,0,1
 2072 715 2072 715 2072 483 c 0,2,3
 2072 95.6310679612 2072 95.6310679612 1857.5 4 c 0,4,5
 1806 -18 1806 -18 1737 -18 c 0,6,7
 1617.85714286 -18 1617.85714286 -18 1530 87 c 1,8,9
 1446 -18 1446 -18 1310.68181818 -18 c 128,-1,10
 1175.36363636 -18 1175.36363636 -18 1098.18181818 62.310810811 c 128,-1,11
 1021 142.621621622 1021 142.621621622 1021 274 c 0,12,13
 1021 355 1021 355 1031.5 434 c 128,-1,14
 1042 513 1042 513 1042 594 c 256,15,16
 1042 675 1042 675 1004.5 716.5 c 128,-1,17
 967 758 967 758 882 758 c 0,18,19
 846 758 846 758 815 743 c 1,20,21
 953 614.857142857 953 614.857142857 953 405 c 0,22,23
 953 125.113043478 953 125.113043478 799.5 21 c 0,24,25
 742 -18 742 -18 669.5 -18 c 128,-1,26
 597 -18 597 -18 552 1 c 128,-1,27
 507 20 507 20 474 52 c 0,28,29
 355 167.393939394 355 167.393939394 355 393.196969697 c 128,-1,30
 355 619 355 619 478 742 c 1,31,-1
 428 744 l 1,32,33
 328.422300607 745.810503625 328.422300607 745.810503625 278.5 639 c 0,34,35
 240 556.627906977 240 556.627906977 240 443 c 0,36,37
 240 176.696969697 240 176.696969697 359 0 c 1,38,-1
 155 0 l 1,39,40
 56 225.97826087 56 225.97826087 56 433.642976589 c 128,-1,41
 56 641.307692308 56 641.307692308 143.5 774 c 0,42,43
 245.710144928 929 245.710144928 929 433 929 c 0,44,45
 551.862068966 929 551.862068966 929 641 874 c 1,46,47
 729.714285714 928 729.714285714 928 825.357142857 928 c 0,48,49
 1008.8375 928 1008.8375 928 1119.91875 844.948598131 c 128,-1,50
 1231 761.897196262 1231 761.897196262 1231 602 c 0,51,52
 1231 519 1231 519 1220.5 438 c 128,-1,53
 1210 357 1210 357 1210 291 c 0,54,55
 1210 163 1210 163 1312 163 c 0,56,57
 1371 163 1371 163 1402 201 c 128,-1,58
 1433 239 1433 239 1433 295 c 2,59,-1
 1433 905 l 1,60,-1
 1613 905 l 1,61,-1
 1613 295 l 2,62,63
 1613 206.534883721 1613 206.534883721 1678.5 171.5 c 0,64,65
 1700 160 1700 160 1741.5 160 c 128,-1,66
 1783 160 1783 160 1815.5 190 c 0,67,68
 1893 261.538461538 1893 261.538461538 1893 467.831730769 c 128,-1,69
 1893 674.125 1893 674.125 1819 910 c 1,70,-1
 2007 910 l 1,0,1
767.5 336 m 0,71,72
 769 379 769 379 769 412 c 0,73,74
 769 492.692307692 769 492.692307692 742.375 568.471153846 c 128,-1,75
 715.75 644.25 715.75 644.25 652 678 c 1,76,77
 567.148479428 627.61940966 567.148479428 627.61940966 545 485.5 c 0,78,79
 539 447 539 447 539 416.5 c 0,80,81
 539 326.56 539 326.56 559.5 258.5 c 0,82,83
 589.771084337 158 589.771084337 158 655 158 c 0,84,85
 761.290697674 158 761.290697674 158 767.5 336 c 0,71,72
EndSplineSet
EndChar

StartChar: nj
Encoding: 3358 3358 124
Width: 1826
GlyphClass: 2
Flags: W
LayerCount: 2
Fore
SplineSet
1221 874 m 1,0,1
 1312.03448276 929 1312.03448276 929 1426.01724138 929 c 0,2,3
 1636.28 929 1636.28 929 1732.64 802.210526316 c 128,-1,4
 1829 675.421052632 1829 675.421052632 1829 471.043859649 c 128,-1,5
 1829 266.666666667 1829 266.666666667 1729 0 c 1,6,-1
 1522 0 l 1,7,8
 1645 243.722222222 1645 243.722222222 1645 464 c 0,9,10
 1645 746.292307692 1645 746.292307692 1431 743 c 1,11,-1
 1395 743 l 1,12,13
 1465 679 1465 679 1499 589 c 128,-1,14
 1533 499 1533 499 1533 416 c 0,15,16
 1533 231.029411765 1533 231.029411765 1472 118 c 0,17,18
 1394.82539683 -25 1394.82539683 -25 1235.61037283 -25 c 128,-1,19
 1076.39534884 -25 1076.39534884 -25 997.5 122.5 c 0,20,21
 935 239.347826087 935 239.347826087 935 429.173913043 c 128,-1,22
 935 619 935 619 1058 742 c 1,23,24
 1032 744 1032 744 997.5 744 c 0,25,26
 921.150943396 744 921.150943396 744 876.075471698 688.441860465 c 128,-1,27
 831 632.88372093 831 632.88372093 831 545 c 2,28,-1
 831 0 l 1,29,-1
 647 0 l 1,30,-1
 647 553 l 2,31,32
 647 657 647 657 594 700.5 c 128,-1,33
 541 744 541 744 441 744 c 0,34,35
 267.465116279 744 267.465116279 744 239 540 c 1,36,37
 279.235294118 578 279.235294118 578 334.117647059 578 c 0,38,39
 439.965517241 578 439.965517241 578 500.482758621 485.631578947 c 128,-1,40
 561 393.263157895 561 393.263157895 561 278 c 128,-1,41
 561 162.769230769 561 162.769230769 490.352941176 70.3846153845 c 128,-1,42
 419.705882353 -22 419.705882353 -22 308 -22 c 0,43,44
 136.808510638 -22 136.808510638 -22 74 224 c 0,45,46
 51 314.083333333 51 314.083333333 51 388.541666667 c 128,-1,47
 51 463 51 463 61 525.5 c 128,-1,48
 71 588 71 588 92 646.5 c 0,49,50
 136.753066231 771.169255928 136.753066231 771.169255928 227.837059431 848.084627964 c 128,-1,51
 318.921052632 925 318.921052632 925 455.127192982 925 c 128,-1,52
 591.333333333 925 591.333333333 925 682 857 c 0,53,54
 714 833 714 833 732 799 c 1,55,56
 821.142857143 929 821.142857143 929 1013 929 c 0,57,58
 1131.86206897 929 1131.86206897 929 1221 874 c 1,0,1
1347 336.5 m 0,59,60
 1349 379 1349 379 1349 411 c 0,61,62
 1349 489.666666667 1349 489.666666667 1320.70089285 568.275297619 c 128,-1,63
 1292.40178571 646.883928571 1292.40178571 646.883928571 1232 678 c 1,64,65
 1150.09815951 631.588957055 1150.09815951 631.588957055 1125.5 484 c 0,66,67
 1119 445 1119 445 1119 415.5 c 0,68,69
 1119 329.52 1119 329.52 1140.5 259 c 0,70,71
 1171.29268293 158 1171.29268293 158 1235 158 c 0,72,73
 1338.6 158 1338.6 158 1347 336.5 c 0,59,60
349.5 389.5 m 0,74,75
 333 402 333 402 310.5 402 c 0,76,77
 270.189189189 402 270.189189189 402 247.594594595 362.190476191 c 128,-1,78
 225 322.380952381 225 322.380952381 225 278 c 256,79,80
 225 203.21875 225 203.21875 272 166.5 c 0,81,82
 288 154 288 154 310.5 154 c 0,83,84
 351.810810811 154 351.810810811 154 374.405405405 193.80952381 c 128,-1,85
 397 233.619047619 397 233.619047619 397 278 c 256,86,87
 397 353.515151515 397 353.515151515 349.5 389.5 c 0,74,75
EndSplineSet
EndChar

StartChar: t1
Encoding: 3359 3359 125
Width: 774
GlyphClass: 2
Flags: W
LayerCount: 2
Fore
SplineSet
779 280 m 0,0,1
 779 199 779 199 746.5 141 c 128,-1,2
 714 83 714 83 660.5 45 c 128,-1,3
 607 7 607 7 538.5 -11 c 128,-1,4
 470 -29 470 -29 398 -29 c 0,5,6
 354 -29 354 -29 312 -24.5 c 128,-1,7
 270 -20 270 -20 230 -9 c 128,-1,8
 190 2 190 2 153 21 c 128,-1,9
 116 40 116 40 82 69 c 1,10,-1
 90 310 l 1,11,12
 114 272 114 272 147.5 243.5 c 128,-1,13
 181 215 181 215 220.5 196 c 128,-1,14
 260 177 260 177 303.5 167.5 c 128,-1,15
 347 158 347 158 391 158 c 0,16,17
 412 158 412 158 444 161.5 c 128,-1,18
 476 165 476 165 506 175.5 c 128,-1,19
 536 186 536 186 557.5 204 c 128,-1,20
 579 222 579 222 579 251 c 0,21,22
 579 275 579 275 568 294 c 128,-1,23
 557 313 557 313 539 326 c 128,-1,24
 521 339 521 339 499 346 c 128,-1,25
 477 353 477 353 456 353 c 0,26,27
 418 353 418 353 381 348 c 128,-1,28
 344 343 344 343 306 343 c 0,29,30
 251 343 251 343 206 368 c 128,-1,31
 161 393 161 393 129.5 432.5 c 128,-1,32
 98 472 98 472 80.5 522.5 c 128,-1,33
 63 573 63 573 63 624 c 0,34,35
 63 705 63 705 96.5 762 c 128,-1,36
 130 819 130 819 184.5 856 c 128,-1,37
 239 893 239 893 307.5 910 c 128,-1,38
 376 927 376 927 447 927 c 0,39,40
 493 927 493 927 534.5 922.5 c 128,-1,41
 576 918 576 918 614.5 906.5 c 128,-1,42
 653 895 653 895 689 875 c 128,-1,43
 725 855 725 855 760 823 c 1,44,-1
 752 586 l 1,45,46
 729 626 729 626 695.5 655 c 128,-1,47
 662 684 662 684 621.5 703.5 c 128,-1,48
 581 723 581 723 536.5 732.5 c 128,-1,49
 492 742 492 742 448 742 c 0,50,51
 418 742 418 742 385.5 736 c 128,-1,52
 353 730 353 730 325.5 715.5 c 128,-1,53
 298 701 298 701 280.5 676.5 c 128,-1,54
 263 652 263 652 263 615 c 0,55,56
 263 574 263 574 284.5 550 c 128,-1,57
 306 526 306 526 348 526 c 0,58,59
 382 526 382 526 414 533 c 128,-1,60
 446 540 446 540 480 540 c 0,61,62
 537 540 537 540 591 522.5 c 128,-1,63
 645 505 645 505 687 472 c 128,-1,64
 729 439 729 439 754 390.5 c 128,-1,65
 779 342 779 342 779 280 c 0,0,1
EndSplineSet
EndChar

StartChar: t2
Encoding: 3360 3360 126
Width: 782
GlyphClass: 2
Flags: W
LayerCount: 2
Fore
SplineSet
420 -14 m 256,0,1
 224.186046512 -14 224.186046512 -14 132.5 128.5 c 0,2,3
 57 245.843373494 57 245.843373494 57 453 c 0,4,5
 57 780.471428571 57 780.471428571 244 890 c 0,6,7
 314 931 314 931 420 931 c 256,8,9
 614.169230769 931 614.169230769 931 705 787 c 0,10,11
 779 669.682926829 779 669.682926829 779 462 c 0,12,13
 779 133.431654676 779 133.431654676 595.5 26.5 c 0,14,15
 526 -14 526 -14 420 -14 c 256,0,1
246 448 m 0,16,17
 246 269.764705882 246 269.764705882 332 204 c 0,18,19
 366 178 366 178 420 178 c 256,20,21
 516.634146341 178 516.634146341 178 559.5 273 c 0,22,23
 591 342.810810811 591 342.810810811 591 454.572072072 c 0,24,25
 591 738 591 738 418.5 738 c 128,-1,26
 246 738 246 738 246 448 c 0,16,17
EndSplineSet
EndChar

StartChar: t3
Encoding: 3361 3361 127
Width: 1543
GlyphClass: 2
Flags: W
LayerCount: 2
Fore
SplineSet
185 -2 m 1,0,1
 55 165.142857142 55 165.142857142 55 469 c 0,2,3
 55 655.923076923 55 655.923076923 124 778 c 0,4,5
 211.608695652 933 211.608695652 933 407 933 c 0,6,7
 537.431818182 933 537.431818182 933 615.715909091 839.905405406 c 128,-1,8
 694 746.810810811 694 746.810810811 694 610 c 0,9,10
 694 553.285714286 694 553.285714286 676 453 c 128,-1,11
 658 352.714285714 658 352.714285714 658 311.857142857 c 0,12,13
 658 237.111111111 658 237.111111111 685.976744186 192.555555556 c 128,-1,14
 713.953488372 148 713.953488372 148 757.476744186 148 c 0,15,16
 827.270833333 148 827.270833333 148 858.135416667 199.086206897 c 128,-1,17
 889 250.172413793 889 250.172413793 889 312 c 2,18,-1
 889 897 l 1,19,-1
 1070 897 l 1,20,-1
 1070 312 l 2,21,22
 1070 252.111111111 1070 252.111111111 1098 215.555555556 c 0,23,24
 1148.21276596 150 1148.21276596 150 1206.60638298 150 c 0,25,26
 1308.91139241 150 1308.91139241 150 1342.5 241.5 c 0,27,28
 1362 294.620689655 1362 294.620689655 1362 418 c 0,29,30
 1362 649 1362 649 1233 907 c 1,31,-1
 1422 907 l 1,32,33
 1541 720.566666671 1541 720.566666671 1541 434.5 c 0,34,35
 1541 238.369863014 1541 238.369863014 1478.5 124.5 c 0,36,37
 1398.09022556 -22 1398.09022556 -22 1218.31930633 -22 c 128,-1,38
 1038.5483871 -22 1038.5483871 -22 977 84 c 1,39,40
 912.517241379 -26 912.517241379 -26 765.723326572 -26 c 128,-1,41
 618.929411765 -26 618.929411765 -26 545.464705883 61.9507042255 c 128,-1,42
 472 149.901408451 472 149.901408451 472 288 c 0,43,44
 472 339.142857143 472 339.142857143 491 445 c 128,-1,45
 510 550.857142857 510 550.857142857 510 590.428571429 c 0,46,47
 510 674.181818182 510 674.181818182 493 710.5 c 0,48,49
 468.425531915 763 468.425531915 763 411.212765957 763 c 0,50,51
 316.333333333 763 316.333333333 763 268.5 675.5 c 0,52,53
 231 606.902439024 231 606.902439024 231 510 c 0,54,55
 231 166.612244898 231 166.612244898 393 -2 c 1,56,-1
 185 -2 l 1,0,1
EndSplineSet
EndChar

StartChar: t4
Encoding: 3362 3362 128
Width: 1635
GlyphClass: 2
Flags: W
LayerCount: 2
Fore
SplineSet
982 124 m 1,0,1
 906.5625 -18 906.5625 -18 721.5 -18 c 0,2,3
 668 -18 668 -18 616.5 5 c 0,4,5
 467 71.7669902913 467 71.7669902913 467 288 c 0,6,7
 467 339.142857143 467 339.142857143 486 445 c 128,-1,8
 505 550.857142857 505 550.857142857 505 602 c 0,9,10
 505 763 505 763 392 763 c 0,11,12
 307.333333333 763 307.333333333 763 266.5 675.5 c 0,13,14
 236 610.142857143 236 610.142857143 236 510 c 0,15,16
 236 170.125 236 170.125 398 -2 c 1,17,-1
 190 -2 l 1,18,19
 60 174.944444444 60 174.944444444 60 455 c 0,20,21
 60 933 60 933 397 933 c 0,22,23
 528.494382022 933 528.494382022 933 608.747191011 837.766666666 c 128,-1,24
 689 742.533333333 689 742.533333333 689 610 c 0,25,26
 689 553.285714286 689 553.285714286 671 453 c 128,-1,27
 653 352.714285714 653 352.714285714 653 296 c 0,28,29
 653 158 653 158 749 158 c 0,30,31
 807.088888889 158 807.088888889 158 840.544444444 205.046875 c 128,-1,32
 874 252.09375 874 252.09375 874 312 c 2,33,-1
 874 897 l 1,34,-1
 1055 897 l 1,35,-1
 1055 442 l 2,36,37
 1055 303.714285714 1055 303.714285714 1113.61111111 228.357142857 c 128,-1,38
 1172.22222222 153 1172.22222222 153 1253 153 c 0,39,40
 1360.93670886 153 1360.93670886 153 1415.5 269.5 c 0,41,42
 1434 309 1434 309 1442 362 c 1,43,44
 1402.19047619 324 1402.19047619 324 1348.0952381 324 c 0,45,46
 1243.90697674 324 1243.90697674 324 1187.45348837 413.907407407 c 128,-1,47
 1131 503.814814815 1131 503.814814815 1131 625 c 256,48,49
 1131 743.5 1131 743.5 1197.19411765 834.25 c 128,-1,50
 1263.38823529 925 1263.38823529 925 1373 925 c 0,51,52
 1632 925 1632 925 1632 491 c 0,53,54
 1632 90.8739495798 1632 90.8739495798 1375.5 2.5 c 0,55,56
 1316 -18 1316 -18 1258 -18 c 0,57,58
 1159.40540541 -18 1159.40540541 -18 1089.28692021 20.7221485411 c 128,-1,59
 1019.16843501 59.4442970822 1019.16843501 59.4442970822 982 124 c 1,0,1
1371 748 m 256,60,61
 1327.35897436 748 1327.35897436 748 1306.17948718 706.7 c 128,-1,62
 1285 665.4 1285 665.4 1285 637.7 c 0,63,64
 1285 582.6 1285 582.6 1306.17948718 541.3 c 128,-1,65
 1327.35897436 500 1327.35897436 500 1371 500 c 256,66,67
 1414.64102564 500 1414.64102564 500 1435.82051282 541.3 c 128,-1,68
 1457 582.6 1457 582.6 1457 624 c 128,-1,69
 1457 665.4 1457 665.4 1435.82051282 706.7 c 128,-1,70
 1414.64102564 748 1414.64102564 748 1371 748 c 256,60,61
EndSplineSet
EndChar

StartChar: nh
Encoding: 3363 3363 129
Width: 1749
GlyphClass: 2
Flags: W
LayerCount: 2
Fore
SplineSet
1185 823 m 1,0,1
 1260.01639344 927 1260.01639344 927 1414.5 927 c 0,2,3
 1641.37623762 927 1641.37623762 927 1714 682.5 c 0,4,5
 1742 588.233333333 1742 588.233333333 1742 508.616666667 c 0,6,7
 1742 375.6 1742 375.6 1714.22680412 225.624742268 c 128,-1,8
 1686.45360825 75.6494845361 1686.45360825 75.6494845361 1652 1 c 1,9,-1
 1464 1 l 1,10,11
 1525.10775428 126.270896274 1525.10775428 126.270896274 1551 363 c 0,12,13
 1558 427 1558 427 1558 467.5 c 0,14,15
 1558 572.78125 1558 572.78125 1531 644.5 c 0,16,17
 1492.78823529 746 1492.78823529 746 1416.89411765 746 c 128,-1,18
 1341 746 1341 746 1307 715.5 c 128,-1,19
 1273 685 1273 685 1273 615 c 2,20,-1
 1273 1 l 1,21,-1
 1093 1 l 1,22,-1
 1093 615 l 2,23,24
 1093 674 1093 674 1063 710.5 c 128,-1,25
 1033 747 1033 747 971 747 c 128,-1,26
 909 747 909 747 875 711 c 128,-1,27
 841 675 841 675 841 615 c 2,28,-1
 841 1 l 1,29,-1
 657 1 l 1,30,-1
 657 531 l 2,31,32
 657 638 657 638 608.5 691 c 128,-1,33
 560 744 560 744 451 744 c 0,34,35
 277.465116279 744 277.465116279 744 249 540 c 1,36,37
 289.235294118 578 289.235294118 578 344.117647059 578 c 0,38,39
 448.24137931 578 448.24137931 578 504.620689655 487.166666666 c 128,-1,40
 561 396.333333333 561 396.333333333 561 277.708333333 c 128,-1,41
 561 159.083333333 561 159.083333333 497.441176471 69.0416666665 c 128,-1,42
 433.882352941 -21 433.882352941 -21 323 -21 c 0,43,44
 261.5625 -21 261.5625 -21 212.28125 10.5 c 0,45,46
 124.877518131 66.3674456084 124.877518131 66.3674456084 88.4387590653 175.683722804 c 128,-1,47
 52 285 52 285 52 377.5 c 128,-1,48
 52 470 52 470 62 532.5 c 128,-1,49
 72 595 72 595 93.5 652.5 c 0,50,51
 139.935488445 776.687934212 139.935488445 776.687934212 230.32585233 851.843967106 c 128,-1,52
 320.716216216 927 320.716216216 927 434.258108108 927 c 128,-1,53
 547.8 927 547.8 927 612.943257989 903.050272798 c 128,-1,54
 678.086515978 879.100545596 678.086515978 879.100545596 741 820 c 1,55,56
 794.03030303 881.515151515 794.03030303 881.515151515 839.515151515 904.257575758 c 128,-1,57
 885 927 885 927 960 927 c 0,58,59
 1124.61290323 927 1124.61290323 927 1185 823 c 1,0,1
316 402 m 256,60,61
 275.189189189 402 275.189189189 402 252.594594594 362.190476191 c 128,-1,62
 230 322.380952381 230 322.380952381 230 278 c 256,63,64
 230 203.21875 230 203.21875 277 166.5 c 0,65,66
 293 154 293 154 316 154 c 256,67,68
 356.810810811 154 356.810810811 154 379.405405406 193.80952381 c 128,-1,69
 402 233.619047619 402 233.619047619 402 278 c 256,70,71
 402 352.78125 402 352.78125 355 389.5 c 0,72,73
 339 402 339 402 316 402 c 256,60,61
EndSplineSet
EndChar

StartChar: th1
Encoding: 3364 3364 130
Width: 1251
GlyphClass: 2
Flags: W
LayerCount: 2
Fore
SplineSet
641 874 m 1,0,1
 729.709677419 929 729.709677419 929 844.85483871 929 c 0,2,3
 1056.28 929 1056.28 929 1152.64 802.210526316 c 128,-1,4
 1249 675.421052632 1249 675.421052632 1249 467.472431078 c 128,-1,5
 1249 259.523809524 1249 259.523809524 1149 0 c 1,6,-1
 942 0 l 1,7,8
 1065 246 1065 246 1065 455.298850575 c 128,-1,9
 1065 664.597701149 1065 664.597701149 951.5 722 c 0,10,11
 908 744 908 744 841 743 c 1,12,-1
 815 743 l 1,13,14
 953 616.5 953 616.5 953 405 c 0,15,16
 953 74.8021978022 953 74.8021978022 759.5 -6 c 0,17,18
 714 -25 714 -25 655 -25 c 256,19,20
 447.721649485 -25 447.721649485 -25 380.5 216.5 c 0,21,22
 355 308.111111111 355 308.111111111 355 413 c 0,23,24
 355 619 355 619 478 742 c 1,25,26
 458 744 458 744 416.5 744 c 128,-1,27
 375 744 375 744 339 712.5 c 128,-1,28
 303 681 303 681 271.5 615.852272728 c 128,-1,29
 240 550.704545455 240 550.704545455 240 443 c 0,30,31
 240 176.696969697 240 176.696969697 359 0 c 1,32,-1
 155 0 l 1,33,34
 56 228.8 56 228.8 56 436.312087912 c 128,-1,35
 56 643.824175824 56 643.824175824 142.5 775 c 0,36,37
 244.050724638 929 244.050724638 929 433 929 c 0,38,39
 551.862068966 929 551.862068966 929 641 874 c 1,0,1
653.055555556 158 m 0,40,41
 758.627906977 158 758.627906977 158 767 338 c 0,42,43
 769 381 769 381 769 412.5 c 0,44,45
 769 491.857142857 769 491.857142857 740.12993763 569.187667063 c 128,-1,46
 711.25987526 646.518191268 711.25987526 646.518191268 652 678 c 1,47,48
 572.394312796 636.82464455 572.394312796 636.82464455 546 486 c 0,49,50
 539 446 539 446 539 421 c 128,-1,51
 539 396 539 396 540.5 371 c 128,-1,52
 542 346 542 346 546.5 317.5 c 0,53,54
 571.684210526 158 571.684210526 158 653.055555556 158 c 0,40,41
EndSplineSet
EndChar

StartChar: th2
Encoding: 3365 3365 131
Width: 969
GlyphClass: 2
Flags: W
LayerCount: 2
Fore
SplineSet
664 932 m 0,0,1
 970 932 970 932 970 504 c 2,2,-1
 970 -1 l 1,3,-1
 58 0 l 1,4,-1
 66 908 l 1,5,-1
 251 908 l 1,6,-1
 241 159 l 1,7,-1
 356 158 l 1,8,-1
 356 504 l 2,9,10
 356 798.268907563 356 798.268907563 514.5 895.5 c 0,11,12
 574 932 574 932 664 932 c 0,0,1
664 757 m 0,13,14
 531 757 531 757 531 504 c 2,15,-1
 531 158 l 1,16,-1
 795 158 l 1,17,-1
 795 504 l 2,18,19
 795 610.833333333 795 610.833333333 781 656.916666667 c 0,20,21
 750.594936709 757 750.594936709 757 664 757 c 0,13,14
EndSplineSet
EndChar

StartChar: th3
Encoding: 3366 3366 132
Width: 765
GlyphClass: 2
Flags: W
LayerCount: 2
Fore
SplineSet
56 458 m 0,0,1
 56 934 56 934 424 934 c 0,2,3
 570.461538462 934 570.461538462 934 667.730769231 851.532608696 c 128,-1,4
 765 769.065217391 765 769.065217391 765 654.032608696 c 0,5,6
 765 496 765 496 637 436 c 1,7,8
 700 407 700 407 733 354.5 c 128,-1,9
 766 302 766 302 766 244.5 c 0,10,11
 766 127.955223881 766 127.955223881 695.808219178 51.4776119403 c 128,-1,12
 625.616438356 -25 625.616438356 -25 489 -25 c 0,13,14
 415.571428571 -25 415.571428571 -25 331 7 c 1,15,-1
 331 181 l 1,16,17
 396.875 147 396.875 147 458.4375 147 c 128,-1,18
 520 147 520 147 543.5 174 c 128,-1,19
 567 201 567 201 567 231.5 c 0,20,21
 567 285.433333333 567 285.433333333 534.790322581 318.716666667 c 128,-1,22
 502.580645161 352 502.580645161 352 455 352 c 2,23,-1
 389 352 l 1,24,-1
 389 520 l 1,25,26
 482.157894737 520 482.157894737 520 507.578947368 530.5 c 0,27,28
 559 551.739130435 559 551.739130435 559 614.969565218 c 128,-1,29
 559 678.2 559 678.2 516.090909091 713.6 c 128,-1,30
 473.181818182 749 473.181818182 749 412.090909091 749 c 0,31,32
 304.921348315 749 304.921348315 749 265 644.5 c 0,33,34
 240 579.058823529 240 579.058823529 240 459.029411765 c 128,-1,35
 240 339 240 339 249 226.5 c 128,-1,36
 258 114 258 114 260 0 c 1,37,-1
 76 0 l 1,38,39
 74 115 74 115 65 229 c 128,-1,40
 56 343 56 343 56 458 c 0,0,1
EndSplineSet
EndChar

StartChar: th4
Encoding: 3367 3367 133
Width: 1192
GlyphClass: 2
Flags: W
LayerCount: 2
Fore
SplineSet
245 466.5 m 0,0,1
 245 164 245 164 416 164 c 0,2,3
 545 164 545 164 545 305 c 2,4,-1
 545 900 l 1,5,-1
 721 900 l 1,6,-1
 721 306 l 2,7,8
 721 226.230769231 721 226.230769231 746.28125 195.115384616 c 128,-1,9
 771.5625 164 771.5625 164 825 164 c 0,10,11
 1003 164 1003 164 1003 437 c 0,12,13
 1003 626.510638298 1003 626.510638298 927.5 800 c 0,14,15
 904 854 904 854 877 910 c 1,16,-1
 1060 910 l 1,17,18
 1140.95145631 803.291262136 1140.95145631 803.291262136 1178 581 c 0,19,20
 1190 509 1190 509 1190 433.5 c 0,21,22
 1190 260.390243902 1190 260.390243902 1103.21969697 120.695121951 c 128,-1,23
 1016.43939394 -19 1016.43939394 -19 859 -19 c 0,24,25
 749.666666667 -19 749.666666667 -19 677 35.5 c 0,26,27
 651 55 651 55 625 82 c 1,28,29
 571.399535424 26.3379790941 571.399535424 26.3379790941 533.199767712 9.66898954704 c 0,30,31
 404.299533022 -46.5783855904 404.299533022 -46.5783855904 286 0.5 c 0,32,33
 151.298039216 54.1058823529 151.298039216 54.1058823529 91.5 233.5 c 0,34,35
 58 334 58 334 58 429 c 0,36,37
 58 580.394736842 58 580.394736842 99.386509636 712.178096473 c 128,-1,38
 140.773019272 843.961456103 140.773019272 843.961456103 187 910 c 1,39,-1
 372 910 l 1,40,41
 272.692732682 708.075223119 272.692732682 708.075223119 253.5 580.5 c 0,42,43
 245 524 245 524 245 466.5 c 0,0,1
EndSplineSet
EndChar

StartChar: n1
Encoding: 3368 3368 134
Width: 1170
GlyphClass: 2
Flags: W
LayerCount: 2
Fore
SplineSet
615 828 m 1,0,1
 696.245283019 909.245283019 696.245283019 909.245283019 785 924.5 c 0,2,3
 817 930 817 930 865 930 c 128,-1,4
 913 930 913 930 959 910.5 c 128,-1,5
 1005 891 1005 891 1040.5 858 c 0,6,7
 1105.75633528 797.339181287 1105.75633528 797.339181287 1138.87816764 691.763340643 c 128,-1,8
 1172 586.1875 1172 586.1875 1172 494.09375 c 0,9,10
 1172 333.2 1172 333.2 1139.72037422 196.5495842 c 128,-1,11
 1107.44074844 59.8991683992 1107.44074844 59.8991683992 1062 0 c 1,12,-1
 874 0 l 1,13,14
 988 223.928571429 988 223.928571429 988 474 c 0,15,16
 988 593.823529412 988 593.823529412 966.5 644.411764706 c 128,-1,17
 945 695 945 695 911.5 720.5 c 128,-1,18
 878 746 878 746 836 746 c 0,19,20
 765.322580645 746 765.322580645 746 739.161290323 715.962962963 c 128,-1,21
 713 685.925925926 713 685.925925926 713 605 c 2,22,-1
 713 10 l 1,23,-1
 533 10 l 1,24,-1
 533 605 l 2,25,26
 533 746 533 746 400 746 c 0,27,28
 261.201923077 746 261.201923077 746 244.5 553 c 0,29,30
 240 501 240 501 240 443.5 c 0,31,32
 240 321.75 240 321.75 265.606796116 225.724514563 c 128,-1,33
 291.213592233 129.699029126 291.213592233 129.699029126 355 0 c 1,34,-1
 165 0 l 1,35,36
 93.7647058824 101.764705882 93.7647058824 101.764705882 65 317.5 c 0,37,38
 56 385 56 385 56 447 c 128,-1,39
 56 509 56 509 62.5 566.5 c 128,-1,40
 69 624 69 624 84.5 677 c 0,41,42
 118.302020754 792.581103222 118.302020754 792.581103222 189.998836464 861.290551611 c 128,-1,43
 261.695652174 930 261.695652174 930 395.847826087 930 c 128,-1,44
 530 930 530 930 615 828 c 1,0,1
EndSplineSet
EndChar

StartChar: p1
Encoding: 3370 3370 135
Width: 952
GlyphClass: 2
Flags: W
LayerCount: 2
Fore
SplineSet
607 307 m 0,0,1
 607 246 607 246 596 169 c 1,2,-1
 765 169 l 1,3,-1
 765 909 l 1,4,-1
 949 909 l 1,5,-1
 949 5 l 1,6,-1
 384 5 l 1,7,8
 430 207.941176471 430 207.941176471 430 301.256302521 c 128,-1,9
 430 394.571428571 430 394.571428571 380.5 437 c 0,10,11
 363 452 363 452 336.5 452 c 0,12,13
 287.85106383 452 287.85106383 452 261.925531915 401.229166666 c 128,-1,14
 236 350.458333333 236 350.458333333 236 297 c 0,15,16
 236 171.909090909 236 171.909090909 287 5 c 1,17,-1
 103 5 l 1,18,19
 59 171.736842105 59 171.736842105 59 264.868421053 c 0,20,21
 59 429.826086957 59 429.826086957 132.14516129 528.413043478 c 128,-1,22
 205.290322581 627 205.290322581 627 333.44516129 627 c 128,-1,23
 461.6 627 461.6 627 534.3 532.173913043 c 128,-1,24
 607 437.347826087 607 437.347826087 607 307 c 0,0,1
EndSplineSet
EndChar

StartChar: p2
Encoding: 3371 3371 136
Width: 1291
GlyphClass: 2
Flags: W
LayerCount: 2
Fore
SplineSet
607 279.666666667 m 0,0,1
 607 221.333333333 607 221.333333333 596 159 c 1,2,-1
 681 162 l 1,3,-1
 681 508 l 2,4,5
 681 795.448275862 681 795.448275862 843 896 c 0,6,7
 901 932 901 932 987 932 c 0,8,9
 1147.23529412 932 1147.23529412 932 1224 801.5 c 0,10,11
 1289 691 1289 691 1289 508 c 2,12,-1
 1289 9 l 1,13,-1
 384 5 l 1,14,15
 392 42 392 42 400.5 75 c 128,-1,16
 409 108 409 108 419.5 160.5 c 128,-1,17
 430 213 430 213 430 255.5 c 0,18,19
 430 328 430 328 406.5 375 c 128,-1,20
 383 422 383 422 346.5 422 c 0,21,22
 288.255319149 422 288.255319149 422 259.627659574 370.25 c 128,-1,23
 231 318.5 231 318.5 231 273.75 c 128,-1,24
 231 229 231 229 235.5 197 c 128,-1,25
 240 165 240 165 248 134 c 128,-1,26
 256 103 256 103 266 72 c 128,-1,27
 276 41 276 41 287 5 c 1,28,-1
 103 5 l 1,29,30
 94 41 94 41 86 72.5 c 128,-1,31
 78 104 78 104 68.5 152.291666667 c 128,-1,32
 59 200.583333333 59 200.583333333 59 264.291666667 c 0,33,34
 59 401.867647059 59 401.867647059 130.338709677 499.433823529 c 128,-1,35
 201.677419355 597 201.677419355 597 329.838709677 597 c 128,-1,36
 458 597 458 597 532.5 501.214285714 c 128,-1,37
 607 405.428571429 607 405.428571429 607 279.666666667 c 0,0,1
1102 511 m 2,38,39
 1102 667.913043478 1102 667.913043478 1047 726.5 c 0,40,41
 1024 751 1024 751 988 751 c 0,42,43
 925.375 751 925.375 751 893.5 666 c 0,44,45
 870 603.333333333 870 603.333333333 870 511 c 2,46,-1
 870 162 l 1,47,-1
 1102 162 l 1,48,-1
 1102 511 l 2,38,39
EndSplineSet
EndChar

StartChar: p3
Encoding: 3372 3372 137
Width: 1613
GlyphClass: 2
Flags: W
LayerCount: 2
Fore
SplineSet
1250 159 m 1,0,-1
 1437 159 l 1,1,-1
 1427 909 l 1,2,-1
 1611 909 l 1,3,-1
 1621 0 l 1,4,-1
 988 0 l 1,5,-1
 988 33 l 1,6,7
 1088.59736308 130.802991886 1088.59736308 130.802991886 1127 378.5 c 0,8,9
 1137 443 1137 443 1137 490 c 0,10,11
 1137 596.317073171 1137 596.317073171 1095.25675675 671.658536585 c 128,-1,12
 1053.51351351 747 1053.51351351 747 955 747 c 0,13,14
 838.071428571 747 838.071428571 747 829.5 627 c 0,15,16
 827 592 827 592 827 554 c 2,17,-1
 827 0 l 1,18,-1
 645 0 l 1,19,-1
 645 535 l 2,20,21
 645 630 645 630 596 687 c 128,-1,22
 547 744 547 744 451 744 c 0,23,24
 315.84 744 315.84 744 261.5 620.5 c 0,25,26
 245 583 245 583 239 540 c 1,27,28
 279.235294118 578 279.235294118 578 334.117647059 578 c 0,29,30
 439.965517241 578 439.965517241 578 500.482758621 485.631578947 c 128,-1,31
 561 393.263157895 561 393.263157895 561 278 c 128,-1,32
 561 162.769230769 561 162.769230769 490.352941176 70.3846153845 c 128,-1,33
 419.705882353 -22 419.705882353 -22 308 -22 c 0,34,35
 133.936842105 -22 133.936842105 -22 74.5 223.5 c 0,36,37
 53 312.304347826 53 312.304347826 53 405.152173913 c 0,38,39
 53 614.15625 53 614.15625 146 758.5 c 0,40,41
 253.275167785 925 253.275167785 925 453 925 c 0,42,43
 588.085106383 925 588.085106383 925 680 857.5 c 0,44,45
 712 834 712 834 735 800 c 1,46,47
 805.520446097 928.951672862 805.520446097 928.951672862 953 931 c 0,48,49
 1141.09750102 932.862351495 1141.09750102 932.862351495 1234.5 801 c 0,50,51
 1314 688.764705882 1314 688.764705882 1314 501.882352941 c 128,-1,52
 1314 315 1314 315 1250 159 c 1,0,-1
311 406 m 256,53,54
 266.902439024 406 266.902439024 406 246.951219512 362.947368421 c 128,-1,55
 227 319.894736842 227 319.894736842 227 278 c 256,56,57
 227 203.636363636 227 203.636363636 269.5 165 c 0,58,59
 286 150 286 150 311 150 c 256,60,61
 355.097560976 150 355.097560976 150 375.048780488 193.052631579 c 128,-1,62
 395 236.105263158 395 236.105263158 395 278 c 256,63,64
 395 352.363636364 395 352.363636364 352.5 391 c 0,65,66
 336 406 336 406 311 406 c 256,53,54
EndSplineSet
EndChar

StartChar: p4
Encoding: 3373 3373 138
Width: 737
GlyphClass: 2
Flags: W
LayerCount: 2
Fore
SplineSet
525 635 m 1,0,1
 566 635 566 635 566 679.5 c 0,2,3
 566 720.666666667 566 720.666666667 525.7 741.333333333 c 128,-1,4
 485.4 762 485.4 762 430.7 762 c 0,5,6
 327.647887324 762 327.647887324 762 282.106030458 688.512003693 c 128,-1,7
 236.564173592 615.024007387 236.564173592 615.024007387 240.282086796 513.012003693 c 128,-1,8
 244 411 244 411 246 342 c 128,-1,9
 248 273 248 273 249 229 c 128,-1,10
 250 185 250 185 251.5 142.5 c 128,-1,11
 253 100 253 100 254 61.5 c 128,-1,12
 255 23 255 23 256 -7 c 1,13,-1
 71 -7 l 1,14,15
 70 24 70 24 69 64.5 c 128,-1,16
 68 105 68 105 66.5 150 c 128,-1,17
 65 195 65 195 64 241.5 c 128,-1,18
 63 288 63 288 61 361.5 c 128,-1,19
 59 435 59 435 56.5 530 c 0,20,21
 51.7074954296 712.115173675 51.7074954296 712.115173675 154.787081048 822.557586837 c 128,-1,22
 257.866666667 933 257.866666667 933 435 933 c 0,23,24
 562.272727273 933 562.272727273 933 647.136363636 863.851851852 c 128,-1,25
 732 794.703703704 732 794.703703704 732 667.541507024 c 128,-1,26
 732 540.379310345 732 540.379310345 651 491.5 c 0,27,28
 622 474 622 474 580 474 c 1,29,-1
 515 481 l 1,30,31
 484 481 484 481 484 437 c 128,-1,32
 484 393 484 393 507 393 c 1,33,-1
 565 396 l 1,34,35
 647.210526316 396 647.210526316 396 691.605263158 335.75 c 128,-1,36
 736 275.5 736 275.5 736 206.75 c 0,37,38
 736 86.4545454545 736 86.4545454545 669.111111111 31.7272727273 c 128,-1,39
 602.222222222 -23 602.222222222 -23 489 -23 c 0,40,41
 424.6 -23 424.6 -23 352 -1 c 1,42,-1
 352 168 l 1,43,44
 395.125 138 395.125 138 458 138 c 0,45,46
 554 138 554 138 554 192.5 c 0,47,48
 554 224.9375 554 224.9375 539.722222222 232.96875 c 128,-1,49
 525.444444444 241 525.444444444 241 498 241 c 2,50,-1
 460 240 l 1,51,52
 394.333333333 240 394.333333333 240 353.166666666 301.75 c 128,-1,53
 312 363.5 312 363.5 312 416.25 c 0,54,55
 312 510.441860465 312 510.441860465 358.847457627 574.720930233 c 128,-1,56
 405.694915254 639 405.694915254 639 481 639 c 1,57,-1
 525 635 l 1,0,1
EndSplineSet
EndChar

StartChar: m1
Encoding: 3374 3374 139
Width: 821
GlyphClass: 2
Flags: W
LayerCount: 2
Fore
SplineSet
818 8 m 1,0,-1
 56 8 l 1,1,-1
 56 444 l 2,2,3
 56 785.289655172 56 785.289655172 251.5 894.5 c 0,4,5
 324 935 324 935 431.5 935 c 0,6,7
 632.093023256 935 632.093023256 935 725.046511628 803.230769231 c 128,-1,8
 818 671.461538462 818 671.461538462 818 464 c 2,9,-1
 818 8 l 1,0,-1
489 165 m 1,10,-1
 638 165 l 1,11,-1
 638 464 l 2,12,13
 638 595.272727273 638 595.272727273 608 649.136363636 c 128,-1,14
 578 703 578 703 539.5 726 c 128,-1,15
 501 749 501 749 429 749 c 0,16,17
 284.307692308 749 284.307692308 749 249 587 c 1,18,19
 281.8125 612 281.8125 612 340.90625 612 c 0,20,21
 446.463768116 612 446.463768116 612 497.731884058 539.806122449 c 128,-1,22
 549 467.612244898 549 467.612244898 549 356.650950035 c 128,-1,23
 549 245.689655172 549 245.689655172 489 165 c 1,10,-1
383 353 m 0,24,25
 383 458 383 458 295 458 c 0,26,27
 260.666666667 458 260.666666667 458 235 416 c 1,28,-1
 235 165 l 1,29,-1
 296 165 l 1,30,31
 355.815013405 218.168900804 355.815013405 218.168900804 376.5 302.5 c 0,32,33
 383 329 383 329 383 353 c 0,24,25
EndSplineSet
EndChar

StartChar: y1
Encoding: 3375 3375 140
Width: 1251
GlyphClass: 2
Flags: W
LayerCount: 2
Fore
SplineSet
1077 441 m 0,0,1
 1077 642 1077 642 946 904 c 1,2,-1
 1147 904 l 1,3,4
 1227.11428571 690.361904762 1227.11428571 690.361904762 1241.55714286 595.680952381 c 128,-1,5
 1256 501 1256 501 1256 423 c 0,6,7
 1256 231.033333333 1256 231.033333333 1172 112.5 c 0,8,9
 1075.26771654 -24 1075.26771654 -24 872 -24 c 0,10,11
 724.333333333 -24 724.333333333 -24 662 42 c 1,12,13
 579.902439024 -24 579.902439024 -24 464.951219512 -24 c 0,14,15
 259.732394366 -24 259.732394366 -24 150 135 c 0,16,17
 54 274.102040816 54 274.102040816 54 478 c 0,18,19
 54 819.023255814 54 819.023255814 224 906 c 0,20,21
 267 928 267 928 326 928 c 0,22,23
 426.095238095 928 426.095238095 928 491 834 c 1,24,25
 567.511627907 928 567.511627907 928 685 928 c 0,26,27
 856.133333333 928 856.133333333 928 928 697 c 0,28,29
 955 610.214285714 955 610.214285714 955 542.607142857 c 0,30,31
 955 423.351351351 955 423.351351351 915.609308284 316.890022388 c 128,-1,32
 876.218616567 210.428693424 876.218616567 210.428693424 808 146 c 1,33,-1
 841 138 l 2,34,35
 1000.42217307 99.0301354714 1000.42217307 99.0301354714 1056 288.5 c 0,36,37
 1077 360.090909091 1077 360.090909091 1077 441 c 0,0,1
670 216 m 1,38,39
 773 340.205882353 773 340.205882353 773 534 c 0,40,41
 773 667.15 773 667.15 727 723.5 c 0,42,43
 707 748 707 748 672 748 c 0,44,45
 610.230769231 748 610.230769231 748 581 653 c 0,46,47
 562 591.25 562 591.25 562 529.125 c 0,48,49
 562 405.904761905 562 405.904761905 581.011225864 339.818119614 c 128,-1,50
 600.022451729 273.731477324 600.022451729 273.731477324 670 216 c 1,38,39
528 139 m 1,51,52
 385 283.932432432 385 283.932432432 385 492 c 1,53,-1
 392 600 l 1,54,55
 392 675.68 392 675.68 361.5 713.5 c 0,56,57
 349 729 349 729 329 729 c 256,58,59
 262.555555556 729 262.555555556 729 239 570 c 0,60,61
 232 522.75 232 522.75 232 486.875 c 128,-1,62
 232 451 232 451 238 409.5 c 128,-1,63
 244 368 244 368 257 325.5 c 0,64,65
 286.498839907 229.061484919 286.498839907 229.061484919 349.651166679 166.997991368 c 128,-1,66
 412.80349345 104.934497817 412.80349345 104.934497817 503 135 c 0,67,68
 510 137 510 137 528 139 c 1,51,52
EndSplineSet
EndChar

StartChar: r3
Encoding: 3376 3376 141
Width: 863
GlyphClass: 2
Flags: W
LayerCount: 2
Fore
SplineSet
135 0 m 1,0,1
 56 269.09375 56 269.09375 56 443 c 0,2,3
 56 781.210191083 56 781.210191083 278.5 887.5 c 0,4,5
 357 925 357 925 467.5 925 c 0,6,7
 672 925 672 925 773.5 765.5 c 0,8,9
 859 631.142857143 859 631.142857143 859 444.214285714 c 128,-1,10
 859 257.285714286 859 257.285714286 802 136.5 c 0,11,12
 729.561797753 -17 729.561797753 -17 585 -17 c 0,13,14
 465.04 -17 465.04 -17 400.52 88.7704918035 c 128,-1,15
 336 194.540983607 336 194.540983607 336 322 c 0,16,17
 336 544.337078652 336 544.337078652 451.5 623.5 c 0,18,19
 496 654 496 654 558.617647059 654 c 128,-1,20
 621.235294118 654 621.235294118 654 653 624 c 1,21,22
 635.631578947 676.105263158 635.631578947 676.105263158 585.315789473 707.552631579 c 128,-1,23
 535 739 535 739 474.5 739 c 0,24,25
 360.285714286 739 360.285714286 739 300.142857143 650.368421053 c 128,-1,26
 240 561.736842105 240 561.736842105 240 443 c 0,27,28
 240 237.105263158 240 237.105263158 325 0 c 1,29,-1
 135 0 l 1,0,1
662 311 m 256,30,31
 662 397.387096774 662 397.387096774 618.5 446.5 c 0,32,33
 603 464 603 464 580.5 464 c 0,34,35
 541.755102041 464 541.755102041 464 522 403.5 c 0,36,37
 508 360.625 508 360.625 508 311 c 256,38,39
 508 222.285714286 508 222.285714286 544 176 c 0,40,41
 558 158 558 158 580.5 158 c 0,42,43
 619.714285714 158 619.714285714 158 640.857142857 209.8 c 128,-1,44
 662 261.6 662 261.6 662 311 c 256,30,31
EndSplineSet
EndChar

StartChar: rh
Encoding: 3377 3377 142
Width: 759
GlyphClass: 2
Flags: W
LayerCount: 2
Fore
SplineSet
761 464 m 0,0,1
 761 279.782608696 761 279.782608696 706 0 c 1,2,-1
 526 0 l 1,3,4
 584 297.565217391 584 297.565217391 584 471.939325113 c 128,-1,5
 584 646.313432836 584 646.313432836 503.5 716 c 0,6,7
 470 745 470 745 412.5 745 c 0,8,9
 309.741935484 745 309.741935484 745 265 635.5 c 0,10,11
 234 559.631578947 234 559.631578947 234 444 c 0,12,13
 234 222 234 222 294 0 c 1,14,-1
 112 0 l 1,15,16
 58 232.615384615 58 232.615384615 58 444 c 0,17,18
 58 741.076923077 58 741.076923077 177 855.5 c 0,19,20
 261.76 937 261.76 937 411 937 c 0,21,22
 726.472727273 937 726.472727273 937 756.5 570 c 0,23,24
 761 515 761 515 761 464 c 0,0,1
EndSplineSet
EndChar

StartChar: l3
Encoding: 3378 3378 143
Width: 985
GlyphClass: 2
Flags: W
LayerCount: 2
Fore
SplineSet
984 0 m 1,0,-1
 56 0 l 1,1,-1
 56 473 l 2,2,3
 56 739.486486486 56 739.486486486 190 859 c 0,4,5
 269.606060606 930 269.606060606 930 390 930 c 0,6,7
 621.495145631 930 621.495145631 930 693 684.5 c 0,8,9
 721 588.366666667 721 588.366666667 721 468 c 2,10,-1
 721 296 l 1,11,-1
 240 296 l 1,12,-1
 240 159 l 1,13,-1
 800 159 l 1,14,-1
 790 909 l 1,15,-1
 974 909 l 1,16,-1
 984 0 l 1,0,-1
538 494 m 1,17,18
 538 658.068965517 538 658.068965517 467 720.5 c 0,19,20
 438 746 438 746 389 746 c 0,21,22
 304.4 746 304.4 746 266 638 c 0,23,24
 240 564.875 240 564.875 240 459 c 1,25,-1
 537 459 l 1,26,-1
 538 494 l 1,17,18
EndSplineSet
EndChar

StartChar: lh
Encoding: 3379 3379 144
Width: 967
GlyphClass: 2
Flags: W
LayerCount: 2
Fore
SplineSet
972 577 m 0,0,1
 972 441.333333333 972 441.333333333 856 364 c 1,2,3
 971 304.64516129 971 304.64516129 971 137 c 0,4,5
 971 16.2 971 16.2 891.607142857 -57.9 c 128,-1,6
 812.214285714 -132 812.214285714 -132 687 -132 c 2,7,-1
 290 -132 l 2,8,9
 273 -132 273 -132 262.5 -143 c 128,-1,10
 252 -154 252 -154 252 -169 c 256,11,12
 252 -184 252 -184 263.5 -198.5 c 128,-1,13
 275 -213 275 -213 290 -213 c 2,14,-1
 949 -213 l 1,15,-1
 949 -380 l 1,16,-1
 260 -380 l 2,17,18
 180.929824561 -380 180.929824561 -380 124.464912281 -318.105769231 c 128,-1,19
 68 -256.211538462 68 -256.211538462 68 -174.203808447 c 128,-1,20
 68 -92.1960784314 68 -92.1960784314 122.336363636 -33.5980392157 c 128,-1,21
 176.672727273 25 176.672727273 25 260 25 c 2,22,-1
 657 25 l 2,23,24
 713 25 713 25 747 55.5 c 128,-1,25
 781 86 781 86 781 142 c 128,-1,26
 781 198 781 198 753 232.5 c 128,-1,27
 725 267 725 267 670 267 c 2,28,-1
 641 267 l 1,29,-1
 641 456 l 1,30,-1
 651 455 l 1,31,-1
 669 455 l 2,32,33
 768 455 768 455 768 587 c 0,34,35
 768 672.298507463 768 672.298507463 697.25 716.649253732 c 128,-1,36
 626.5 761 626.5 761 552.75 761 c 0,37,38
 424.295454545 761 424.295454545 761 340.363331028 714.252994496 c 128,-1,39
 256.431207511 667.505988993 256.431207511 667.505988993 243 585 c 1,40,41
 281 617 281 617 333.5 617 c 0,42,43
 437.3125 617 437.3125 617 495.15625 532.863636364 c 128,-1,44
 553 448.727272727 553 448.727272727 553 361.863636364 c 0,45,46
 553 217 553 217 480 144 c 128,-1,47
 407 71 407 71 309 71 c 0,48,49
 140.572463768 71 140.572463768 71 79.5 267 c 0,50,51
 58 336 58 336 58 430.5 c 0,52,53
 58 648.384615385 58 648.384615385 150 774 c 0,54,55
 266.450704225 933 266.450704225 933 520 933 c 0,56,57
 717.644444444 933 717.644444444 933 844.822222222 839.180327869 c 128,-1,58
 972 745.360655738 972 745.360655738 972 577 c 0,0,1
311 445 m 256,59,60
 257.282051282 445 257.282051282 445 242 370.5 c 0,61,62
 238 351 238 351 238 334 c 256,63,64
 238 264.642857143 238 264.642857143 277 234 c 0,65,66
 291 223 291 223 311 223 c 256,67,68
 364.717948718 223 364.717948718 223 380 297.5 c 0,69,70
 384 317 384 317 384 334 c 256,71,72
 384 403.357142857 384 403.357142857 345 434 c 0,73,74
 331 445 331 445 311 445 c 256,59,60
EndSplineSet
EndChar

StartChar: zh
Encoding: 3380 3380 145
Width: 855
GlyphClass: 2
Flags: W
LayerCount: 2
Fore
SplineSet
409 434 m 1,0,1
 326 517 326 517 326 648.121428572 c 128,-1,2
 326 779.242857143 326 779.242857143 398.760273972 855.121428572 c 128,-1,3
 471.520547945 931 471.520547945 931 591.149884362 931 c 128,-1,4
 710.779220779 931 710.779220779 931 783.389610389 849.971014493 c 128,-1,5
 856 768.942028986 856 768.942028986 856 656.611639493 c 128,-1,6
 856 544.28125 856 544.28125 836.5 496.140625 c 0,7,8
 798.774334793 403.00538902 798.774334793 403.00538902 699 325 c 1,9,10
 749 271.153846154 749 271.153846154 749 205.076923077 c 0,11,12
 749 88.9452054795 749 88.9452054795 673.283018868 33.9726027397 c 128,-1,13
 597.566037736 -21 597.566037736 -21 466.283018868 -21 c 128,-1,14
 335 -21 335 -21 253 40.5 c 128,-1,15
 171 102 171 102 171 215 c 1,16,-1
 360 215 l 1,17,18
 360 158.025 360 158.025 431 138.5 c 0,19,20
 451 133 451 133 470 133 c 0,21,22
 508 133 508 133 535 151.692307692 c 128,-1,23
 562 170.384615385 562 170.384615385 562 204.292307693 c 128,-1,24
 562 238.2 562 238.2 533 273 c 1,25,26
 489 262 489 262 430 262 c 2,27,-1
 429 262 l 2,28,29
 252.042735043 262 252.042735043 262 153.021367521 385.25 c 128,-1,30
 54 508.5 54 508.5 54 679 c 0,31,32
 54 803 54 803 108 909 c 1,33,-1
 309 909 l 1,34,35
 240 822.75 240 822.75 240 665.8515625 c 128,-1,36
 240 508.953125 240 508.953125 331 453.5 c 0,37,38
 363 434 363 434 409 434 c 1,0,1
501 641.214285714 m 0,39,40
 501 470 501 470 593 470 c 0,41,42
 658.444444444 470 658.444444444 470 680 567 c 0,43,44
 686 594 686 594 686 622.5 c 0,45,46
 686 682.5 686 682.5 660.68292683 725.75 c 128,-1,47
 635.365853659 769 635.365853659 769 600.182926829 769 c 0,48,49
 543.292682927 769 543.292682927 769 522.146341463 727.714285714 c 128,-1,50
 501 686.428571429 501 686.428571429 501 641.214285714 c 0,39,40
EndSplineSet
EndChar

StartChar: v1
Encoding: 3381 3381 146
Width: 1044
GlyphClass: 2
Flags: W
LayerCount: 2
Fore
SplineSet
743 569.5 m 0,0,1
 747 515 747 515 747 433.636363636 c 128,-1,2
 747 352.272727273 747 352.272727273 719 169 c 1,3,-1
 844 169 l 1,4,-1
 844 910 l 1,5,-1
 1041 910 l 1,6,-1
 1041 0 l 1,7,-1
 504 0 l 1,8,9
 563 305.260869565 563 305.260869565 563 464 c 0,10,11
 563 743 563 743 404 743 c 0,12,13
 236 743 236 743 236 444 c 0,14,15
 236 224 236 224 296 0 c 1,16,-1
 111 0 l 1,17,18
 56 239.038461538 56 239.038461538 56 444 c 0,19,20
 56 742.986842105 56 742.986842105 169 854.5 c 0,21,22
 252.6 937 252.6 937 401 937 c 0,23,24
 716.027522936 937 716.027522936 937 743 569.5 c 0,0,1
EndSplineSet
EndChar

StartChar: z1
Encoding: 3382 3382 147
Width: 1233
GlyphClass: 2
Flags: W
LayerCount: 2
Fore
SplineSet
375 -25 m 0,0,1
 55 -25 55 -25 55 437 c 0,2,3
 55 617.022727273 55 617.022727273 124 800.5 c 0,4,5
 146 859 146 859 174 910 c 1,6,-1
 364 910 l 1,7,8
 270.925906869 768.978646771 270.925906869 768.978646771 246 521.5 c 0,9,10
 239 452 239 452 239 408 c 0,11,12
 239 310.857142857 239 310.857142857 264 243 c 0,13,14
 297.526315789 152 297.526315789 152 370 152 c 0,15,16
 414.090909091 152 414.090909091 152 441.045454545 187.58 c 128,-1,17
 468 223.16 468 223.16 468 262.58 c 0,18,19
 468 310.75 468 310.75 446 396 c 128,-1,20
 424 481.25 424 481.25 424 545.625 c 128,-1,21
 424 610 424 610 448 684.5 c 128,-1,22
 472 759 472 759 522 813.5 c 0,23,24
 629.798165138 931 629.798165138 931 827 931 c 0,25,26
 1074.14563107 931 1074.14563107 931 1168.5 760.5 c 0,27,28
 1240 631.298245614 1240 631.298245614 1240 403 c 0,29,30
 1240 248.88372093 1240 248.88372093 1180.5 128.5 c 0,31,32
 1106.11494253 -22 1106.11494253 -22 975.038603341 -22 c 128,-1,33
 843.962264151 -22 843.962264151 -22 775.5 101 c 0,34,35
 719 202.508474576 719 202.508474576 719 335 c 0,36,37
 719 547.91011236 719 547.91011236 838.5 632.5 c 0,38,39
 883 664 883 664 942.5 664 c 128,-1,40
 1002 664 1002 664 1038 634 c 1,41,42
 994.15625 756 994.15625 756 821 756 c 0,43,44
 715.444444444 756 715.444444444 756 661.722222222 692.141509434 c 128,-1,45
 608 628.283018868 608 628.283018868 608 523 c 0,46,47
 608 478.117647059 608 478.117647059 629.5 403.5 c 128,-1,48
 651 328.882352941 651 328.882352941 651 276.441176471 c 0,49,50
 651 150.369230769 651 150.369230769 584.726744186 62.6846153846 c 128,-1,51
 518.453488372 -25 518.453488372 -25 375 -25 c 0,0,1
1046 321 m 256,52,53
 1046 413.032258065 1046 413.032258065 1003.5 466.5 c 0,54,55
 988 486 988 486 965 486 c 256,56,57
 925.555555556 486 925.555555556 486 906 420 c 0,58,59
 893 376.125 893 376.125 893 340.0625 c 0,60,61
 893 265.875 893 265.875 906 222 c 0,62,63
 925.555555556 156 925.555555556 156 965 156 c 256,64,65
 1005.01886792 156 1005.01886792 156 1025.50943396 213.157894737 c 128,-1,66
 1046 270.315789474 1046 270.315789474 1046 321 c 256,52,53
EndSplineSet
EndChar

StartChar: sh
Encoding: 3383 3383 148
Width: 1364
GlyphClass: 2
Flags: W
LayerCount: 2
Fore
SplineSet
1362 0 m 1,0,-1
 382 0 l 1,1,2
 390 37 390 37 398.5 66.5 c 128,-1,3
 407 96 407 96 418 141.692307692 c 128,-1,4
 429 187.384615385 429 187.384615385 429 220.192307692 c 0,5,6
 429 277.727272727 429 277.727272727 405.763157895 317.863636364 c 128,-1,7
 382.526315789 358 382.526315789 358 344.763157895 358 c 0,8,9
 285.8 358 285.8 358 259.9 314.833333334 c 128,-1,10
 234 271.666666667 234 271.666666667 234 232.833333333 c 128,-1,11
 234 194 234 194 238 168.5 c 128,-1,12
 242 143 242 143 248.5 117.5 c 128,-1,13
 255 92 255 92 264.5 64 c 128,-1,14
 274 36 274 36 285 0 c 1,15,-1
 101 0 l 1,16,17
 92 36 92 36 83.5 65 c 128,-1,18
 75 94 75 94 65.5 136.75 c 128,-1,19
 56 179.5 56 179.5 56 234.25 c 0,20,21
 56 352 56 352 129.841463414 438.5 c 128,-1,22
 203.682926829 525 203.682926829 525 331.610694183 525 c 128,-1,23
 459.538461538 525 459.538461538 525 533.269230769 441.652173913 c 128,-1,24
 607 358.304347826 607 358.304347826 607 246 c 0,25,26
 607 221 607 221 603.153846154 207.538461539 c 128,-1,27
 599.307692308 194.076923077 599.307692308 194.076923077 594 164 c 1,28,-1
 840 164 l 1,29,-1
 850 390 l 1,30,31
 837 388 837 388 824.5 388 c 2,32,-1
 799 388 l 2,33,34
 675.383561644 388 675.383561644 388 589.191780822 465.679012345 c 128,-1,35
 503 543.358024691 503 543.358024691 503 663.406953522 c 128,-1,36
 503 783.455882353 503 783.455882353 574.717391304 856.227941177 c 128,-1,37
 646.434782609 929 646.434782609 929 761 929 c 256,38,39
 877.771428571 929 877.771428571 929 956.385714285 854.635135135 c 128,-1,40
 1035 780.27027027 1035 780.27027027 1035 663 c 2,41,-1
 1035 585 l 1,42,43
 1151.75 585 1151.75 585 1168 780 c 0,44,45
 1171.48648649 821.837837838 1171.48648649 821.837837838 1168 909 c 1,46,-1
 1352 909 l 1,47,-1
 1362 0 l 1,0,-1
693 678 m 0,48,49
 693 604.846153846 693 604.846153846 761.5 578.5 c 0,50,51
 781 571 781 571 803.5 571 c 128,-1,52
 826 571 826 571 850 573 c 1,53,-1
 850 663 l 2,54,55
 850 697 850 697 827 723.5 c 128,-1,56
 804 750 804 750 769.5 750 c 128,-1,57
 735 750 735 750 714 728 c 128,-1,58
 693 706 693 706 693 678 c 0,48,49
1178 164 m 1,59,-1
 1168 461 l 1,60,61
 1103.62697448 407.009720535 1103.62697448 407.009720535 1035 395 c 1,62,-1
 1025 164 l 1,63,-1
 1178 164 l 1,59,-1
EndSplineSet
EndChar

StartChar: s1
Encoding: 3384 3384 149
Width: 1502
GlyphClass: 2
Flags: W
LayerCount: 2
Fore
SplineSet
1225.38235294 -19 m 0,0,1
 871 -19 871 -19 871 297 c 0,2,3
 871 352.6 871 352.6 884 454 c 128,-1,4
 897 555.4 897 555.4 897 610 c 0,5,6
 897 753 897 753 800 753 c 0,7,8
 738.422222222 753 738.422222222 753 709.711111111 706.857142857 c 128,-1,9
 681 660.714285714 681 660.714285714 681 594 c 2,10,-1
 681 10 l 1,11,-1
 495 10 l 1,12,-1
 495 595 l 2,13,14
 495 753 495 753 400 753 c 0,15,16
 267.428571429 753 267.428571429 753 249 602.5 c 0,17,18
 241.667621777 542.618911175 241.667621777 542.618911175 242.333810888 509.309455587 c 128,-1,19
 243 476 243 476 243 442.5 c 0,20,21
 243 363.259259259 243 363.259259259 272.375 225.087962963 c 128,-1,22
 301.75 86.9166666667 301.75 86.9166666667 339 0 c 1,23,-1
 143 0 l 1,24,25
 54 251.294117647 54 251.294117647 54 425.68872549 c 128,-1,26
 54 600.083333333 54 600.083333333 69.5 668.541666667 c 0,27,28
 99.1469648563 799.482428115 99.1469648563 799.482428115 172.315906671 864.741214058 c 128,-1,29
 245.484848485 930 245.484848485 930 390 930 c 0,30,31
 460 930 460 930 507 908 c 128,-1,32
 554 886 554 886 590 826 c 1,33,34
 629 889 629 889 684 909.5 c 128,-1,35
 739 930 739 930 811.5 930 c 0,36,37
 950.493975904 930 950.493975904 930 1019.24698795 846.080882353 c 128,-1,38
 1088 762.161764706 1088 762.161764706 1088 618 c 0,39,40
 1088 571.2 1088 571.2 1074 462 c 128,-1,41
 1060 352.8 1060 352.8 1060 306 c 0,42,43
 1060 148 1060 148 1180 148 c 0,44,45
 1320.65909091 148 1320.65909091 148 1315.5 375 c 0,46,47
 1315 397 1315 397 1315 417 c 0,48,49
 1315 756.744680851 1315 756.744680851 1168 910 c 1,50,-1
 1383 910 l 1,51,52
 1504 752.7 1504 752.7 1504 422 c 0,53,54
 1504 173.738461538 1504 173.738461538 1390.5 55 c 0,55,56
 1319.76470588 -19 1319.76470588 -19 1225.38235294 -19 c 0,0,1
EndSplineSet
EndChar

StartChar: h1
Encoding: 3385 3385 150
Width: 1439
GlyphClass: 2
Flags: W
LayerCount: 2
Fore
SplineSet
380 0 m 1,0,1
 428 211.764705882 428 211.764705882 428 267.882352941 c 0,2,3
 428 352.523809524 428 352.523809524 405.418604651 398.761904762 c 128,-1,4
 382.837209302 445 382.837209302 445 346.418604651 445 c 0,5,6
 289 445 289 445 264 395 c 128,-1,7
 239 345 239 345 239 292 c 0,8,9
 239 165.043478261 239 165.043478261 291 0 c 1,10,-1
 101 0 l 1,11,12
 57 169.052631579 57 169.052631579 57 261.026315789 c 0,13,14
 57 426.5 57 426.5 131.327956989 525.25 c 128,-1,15
 205.655913978 624 205.655913978 624 334.244623655 624 c 128,-1,16
 462.833333333 624 462.833333333 624 536.416666666 528.021739131 c 128,-1,17
 610 432.043478261 610 432.043478261 610 300.9 c 0,18,19
 610 237.8 610 237.8 599 163 c 1,20,-1
 712 163 l 1,21,22
 706 196 706 196 698.5 231 c 128,-1,23
 691 266 691 266 680 326.076923077 c 128,-1,24
 669 386.153846154 669 386.153846154 669 458.576923077 c 128,-1,25
 669 531 669 531 691.5 618.5 c 128,-1,26
 714 706 714 706 761 776 c 0,27,28
 866.414285714 933 866.414285714 933 1054 933 c 0,29,30
 1297.65384615 933 1297.65384615 933 1397 687 c 0,31,32
 1439 583 1439 583 1439 459.428571428 c 128,-1,33
 1439 335.857142857 1439 335.857142857 1385 116 c 0,34,35
 1371 59 1371 59 1359 0 c 1,36,-1
 1166 0 l 1,37,38
 1179 60 1179 60 1193.5 117 c 128,-1,39
 1208 174 1208 174 1229 270.6 c 128,-1,40
 1250 367.2 1250 367.2 1250 437.1 c 0,41,42
 1250 568.666666667 1250 568.666666667 1202.76785715 656.833333333 c 128,-1,43
 1155.53571429 745 1155.53571429 745 1055.76236264 745 c 128,-1,44
 955.989010989 745 955.989010989 745 901.5 639.5 c 0,45,46
 858 555.276595745 858 555.276595745 858 471.138297872 c 0,47,48
 858 340.75 858 340.75 879.55 241.08125 c 128,-1,49
 901.1 141.4125 901.1 141.4125 943 0 c 1,50,-1
 380 0 l 1,0,1
EndSplineSet
EndChar

StartChar: uni0D3D
Encoding: 3389 3389 151
Width: 922
Flags: W
LayerCount: 2
Fore
SplineSet
641.5 1274.5 m 4,0,1
 700 1311 700 1311 770.636363636 1311 c 132,-1,2
 841.272727273 1311 841.272727273 1311 922 1287 c 5,3,-1
 922 1104 l 5,4,5
 871 1125 871 1125 817.5 1125 c 4,6,7
 725.076923077 1125 725.076923077 1125 685.5 1051.5 c 4,8,9
 657.458823529 999.423529412 657.458823529 999.423529412 650 895 c 5,10,-1
 849 895 l 5,11,-1
 849 723 l 5,12,-1
 635 723 l 5,13,14
 627 630 627 630 619.5 541 c 132,-1,15
 612 452 612 452 604 364 c 132,-1,16
 596 276 596 276 588 187 c 132,-1,17
 580 98 580 98 572.5 17.5 c 4,18,19
 558.373452247 -134.124945883 558.373452247 -134.124945883 477.917495354 -213.562472941 c 132,-1,20
 397.461538462 -293 397.461538462 -293 255 -293 c 4,21,22
 176 -293 176 -293 103 -269 c 5,23,-1
 103 -107 l 5,24,25
 157.6 -128 157.6 -128 231.3 -128 c 4,26,27
 369.666666667 -128 369.666666667 -128 387 28 c 4,28,29
 396 120 396 120 404.5 205.5 c 4,30,31
 419.225352113 353.61971831 419.225352113 353.61971831 451 723 c 5,32,-1
 271 723 l 5,33,-1
 271 895 l 5,34,-1
 466 895 l 5,35,36
 488.734796689 1179.18495862 488.734796689 1179.18495862 641.5 1274.5 c 4,0,1
EndSplineSet
EndChar

StartChar: uni0D3E
Encoding: 3390 3390 152
Width: 506
Flags: W
LayerCount: 2
Fore
SplineSet
51 850 m 1,0,1
 86.7142857142 925 86.7142857142 925 242 925 c 0,2,3
 281 925 281 925 324.5 904 c 128,-1,4
 368 883 368 883 399.5 848 c 0,5,6
 457.004484305 784.10612855 457.004484305 784.10612855 481.502242152 681.011397609 c 128,-1,7
 506 577.916666667 506 577.916666667 506 500.458333333 c 128,-1,8
 506 423 506 423 500.5 369 c 128,-1,9
 495 315 495 315 482 261.5 c 0,10,11
 452.122715405 138.543482627 452.122715405 138.543482627 387.31793665 62.7717413135 c 128,-1,12
 322.513157895 -13 322.513157895 -13 208.056578947 -13 c 128,-1,13
 93.6 -13 93.6 -13 51 58 c 1,14,-1
 56 251 l 1,15,16
 102.111111111 168 102.111111111 168 161.555555556 168 c 128,-1,17
 221 168 221 168 250 199.5 c 0,18,19
 318 273.362068966 318 273.362068966 318 463 c 0,20,21
 318 735 318 735 188 735 c 0,22,23
 150 735 150 735 113.5 711.5 c 128,-1,24
 77 688 77 688 56 646 c 1,25,-1
 51 850 l 1,0,1
EndSplineSet
EndChar

StartChar: uni0D3F
Encoding: 3391 3391 153
Width: 266
Flags: W
LayerCount: 2
Fore
SplineSet
-206 1056 m 1,0,-1
 -207 1074 l 1,1,2
 -207 1172 -207 1172 -138.75 1224.5 c 128,-1,4
 -70.5 1277 -70.5 1277 23.4166666665 1277 c 128,-1,6
 117.333333333 1277 117.333333333 1277 189.166666666 1223.125 c 128,-1,8
 261 1169.25 261 1169.25 261 1073 c 2,9,-1
 261 0 l 1,10,-1
 86 0 l 1,11,-1
 86 1046 l 2,12,13
 86 1078 86 1078 64.5 1094 c 128,-1,14
 43 1110 43 1110 19 1110 c 128,-1,15
 -5 1110 -5 1110 -23.5 1095.5 c 128,-1,16
 -42 1081 -42 1081 -42 1052 c 2,17,-1
 -42 1046 l 1,18,-1
 -40 1016 l 2,19,20
 -39 1005 -39 1005 -38.5 995 c 128,-1,21
 -38 985 -38 985 -37 984 c 1,22,-1
 -201 984 l 1,23,-1
 -206 1056 l 1,0,-1
EndSplineSet
EndChar

StartChar: uni0D40
Encoding: 3392 3392 154
Width: 288
Flags: W
LayerCount: 2
Fore
SplineSet
96 939 m 1,0,1
 69.6 917 69.6 917 21.3 917 c 0,2,3
 -66.0909090909 917 -66.0909090909 917 -122.545454545 963.86792453 c 128,-1,4
 -179 1010.73584906 -179 1010.73584906 -179 1073.86792453 c 0,5,6
 -179 1182.51724138 -179 1182.51724138 -117.942307692 1237.25862069 c 128,-1,7
 -56.8846153846 1292 -56.8846153846 1292 39 1292 c 0,8,9
 206.987654321 1292 206.987654321 1292 266 1172.5 c 0,10,11
 286 1132 286 1132 286 1078 c 2,12,-1
 286 -10 l 1,13,-1
 96 -10 l 1,14,-1
 96 939 l 1,0,1
120 1096 m 256,15,16
 120 1122 120 1122 101 1141 c 128,-1,17
 82 1160 82 1160 56 1160 c 256,18,19
 30 1160 30 1160 11 1141.5 c 128,-1,20
 -8 1123 -8 1123 -8 1096.5 c 128,-1,21
 -8 1070 -8 1070 11 1051 c 128,-1,22
 30 1032 30 1032 56 1032 c 256,23,24
 82 1032 82 1032 101 1051 c 128,-1,25
 120 1070 120 1070 120 1096 c 256,15,16
EndSplineSet
EndChar

StartChar: u1
Encoding: 3393 3393 155
Width: 478
GlyphClass: 2
Flags: W
LayerCount: 2
Fore
SplineSet
499 23.5 m 128,-1,1
 537 -37 537 -37 537 -108 c 0,2,3
 537 -237.013888889 537 -237.013888889 459.537974684 -322.006944444 c 128,-1,4
 382.075949367 -407 382.075949367 -407 268.5 -407 c 128,-1,5
 154.924050633 -407 154.924050633 -407 77.4620253165 -322.006944444 c 128,-1,6
 0 -237.013888889 0 -237.013888889 0 -122 c 0,7,8
 0 33.6875 0 33.6875 133 108.5 c 0,9,10
 173 131 173 131 220 139 c 1,11,12
 226.153846154 160.538461538 226.153846154 160.538461538 245.576923077 203.269230769 c 0,13,14
 414.002169197 573.804772234 414.002169197 573.804772234 165 909 c 1,15,-1
 349 909 l 1,16,17
 502.586339586 696.341991342 502.586339586 696.341991342 495.5 479.5 c 0,18,19
 490.674066599 331.826437941 490.674066599 331.826437941 436.5 208 c 0,20,21
 426 184 426 184 415.5 161 c 128,-1,22
 405 138 405 138 398 115 c 1,23,0
 461 84 461 84 499 23.5 c 128,-1,1
375 -112 m 256,24,25
 375 -38.7692307692 375 -38.7692307692 310.5 -9 c 0,26,27
 291 0 291 0 268 0 c 256,28,29
 198.317073171 0 198.317073171 0 169.5 -69.5 c 0,30,31
 161 -90 161 -90 161 -112.5 c 0,32,33
 161 -156.178571429 161 -156.178571429 191.629032258 -190.089285714 c 128,-1,34
 222.258064516 -224 222.258064516 -224 268 -224 c 256,35,36
 313.161290323 -224 313.161290323 -224 344.080645162 -190.948275862 c 128,-1,37
 375 -157.896551724 375 -157.896551724 375 -112 c 256,24,25
EndSplineSet
EndChar

StartChar: u2
Encoding: 3394 3394 156
Width: 478
GlyphClass: 2
Flags: W
LayerCount: 2
Fore
SplineSet
404 135 m 1,0,1
 569 64.6 569 64.6 569 -167 c 0,2,3
 569 -300.75 569 -300.75 483.642857143 -390.375 c 128,-1,4
 398.285714286 -480 398.285714286 -480 269 -480 c 256,5,6
 139.142857143 -480 139.142857143 -480 55.0714285715 -390.607594936 c 128,-1,7
 -29 -301.215189873 -29 -301.215189873 -29 -163.025505384 c 128,-1,8
 -29 -24.8358208955 -29 -24.8358208955 39.8544698545 60.4615074317 c 128,-1,9
 108.708939709 145.758835759 108.708939709 145.758835759 225 158 c 1,10,11
 229.457711443 179.174129353 229.457711443 179.174129353 247.228855721 216.587064677 c 0,12,13
 420.842696629 582.08988764 420.842696629 582.08988764 165 909 c 1,14,-1
 349 909 l 1,15,16
 506.531206334 697.96762925 506.531206334 697.96762925 498 479 c 0,17,18
 492.40822112 335.477675408 492.40822112 335.477675408 438 218.5 c 0,19,20
 411.703703704 161.962962963 411.703703704 161.962962963 404 135 c 1,0,1
194 0 m 1,21,22
 140 -41.5384615385 140 -41.5384615385 140 -121.783516484 c 128,-1,23
 140 -202.028571429 140 -202.028571429 167 -237.514285714 c 0,24,25
 214.543478261 -300 214.543478261 -300 269 -300 c 256,26,27
 323.456521739 -300 323.456521739 -300 360.728260869 -251.014285715 c 128,-1,28
 398 -202.028571429 398 -202.028571429 398 -123.86043956 c 128,-1,29
 398 -45.6923076923 398 -45.6923076923 344 0 c 1,30,-1
 340 0 l 1,31,32
 359 -29 359 -29 359 -56.5 c 0,33,34
 359 -106.083333333 359 -106.083333333 332.551724138 -138.041666667 c 128,-1,35
 306.103448276 -170 306.103448276 -170 267 -170 c 256,36,37
 228.896551724 -170 228.896551724 -170 202.448275862 -138.041666666 c 128,-1,38
 176 -106.083333333 176 -106.083333333 176 -67.5416666667 c 128,-1,39
 176 -29 176 -29 194 0 c 1,40,-1
 195 0 l 1,41,-1
 194 0 l 1,21,22
195 0 m 1,42,-1
 194 0 l 1,43,-1
 195 0 l 1,42,-1
EndSplineSet
EndChar

StartChar: r1
Encoding: 3395 3395 157
Width: 387
GlyphClass: 2
Flags: W
LayerCount: 2
Fore
SplineSet
63 -257 m 1,0,1
 10.1176470588 -195 10.1176470588 -195 -64.5364145656 -195 c 128,-1,2
 -139.19047619 -195 -139.19047619 -195 -162.095238095 -213.5 c 128,-1,3
 -185 -232 -185 -232 -185 -249 c 256,4,5
 -185 -302 -185 -302 -64.7215189873 -302 c 128,-1,6
 55.5569620253 -302 55.5569620253 -302 129.278481013 -219.971830986 c 128,-1,7
 203 -137.943661972 203 -137.943661972 203 -7 c 2,8,-1
 203 0 l 1,9,-1
 200 0 l 1,10,-1
 165 909 l 1,11,-1
 349 909 l 1,12,13
 349 762.2 349 762.2 368.5 445 c 128,-1,14
 388 127.8 388 127.8 388 11.4 c 0,15,16
 388 -206.491525424 388 -206.491525424 261.9296875 -343.245762712 c 128,-1,17
 135.859375 -480 135.859375 -480 -61.9036458335 -480 c 128,-1,18
 -259.666666667 -480 -259.666666667 -480 -339 -361 c 0,19,20
 -367 -319 -367 -319 -367 -260.5 c 0,21,22
 -367 -153.402298851 -367 -153.402298851 -274.145454546 -94.7011494253 c 128,-1,23
 -181.290909091 -36 -181.290909091 -36 -90.1454545455 -36 c 128,-1,24
 1 -36 1 -36 58 -59 c 128,-1,25
 115 -82 115 -82 168 -136 c 1,26,-1
 63 -257 l 1,0,1
EndSplineSet
EndChar

StartChar: uni0D46
Encoding: 3398 3398 158
Width: 863
Flags: W
LayerCount: 2
Fore
SplineSet
261 593 m 1,0,1
 290.25 619 290.25 619 352.625 619 c 0,2,3
 470.469879518 619 470.469879518 619 525.234939759 534.824074074 c 128,-1,4
 580 450.648148148 580 450.648148148 580 322.594565878 c 128,-1,5
 580 194.540983607 580 194.540983607 515.48 88.7704918035 c 128,-1,6
 450.96 -17 450.96 -17 331 -17 c 0,7,8
 130.907216495 -17 130.907216495 -17 75 229.5 c 0,9,10
 56 313.272727273 56 313.272727273 56 412.636363636 c 0,11,12
 56 631.142857143 56 631.142857143 141.5 765.5 c 0,13,14
 243 925 243 925 450.442307692 925 c 128,-1,15
 657.884615385 925 657.884615385 925 758.442307692 792.954545455 c 128,-1,16
 859 660.909090909 859 660.909090909 859 463.298295455 c 128,-1,17
 859 265.6875 859 265.6875 781 0 c 1,18,-1
 591 0 l 1,19,20
 675 234.315789474 675 234.315789474 675 435.826434063 c 128,-1,21
 675 637.337078652 675 637.337078652 545.5 713 c 0,22,23
 501 739 501 739 456.5 739 c 0,24,25
 384.487804878 739 384.487804878 739 328.822706787 693.354619565 c 128,-1,26
 273.157608696 647.70923913 273.157608696 647.70923913 261 593 c 1,0,1
407 294 m 256,27,28
 407 378.034482759 407 378.034482759 369.5 422 c 0,29,30
 355 439 355 439 332.5 439 c 0,31,32
 293.347826087 439 293.347826087 439 272.173913043 390.3 c 128,-1,33
 251 341.6 251 341.6 251 294 c 256,34,35
 251 211.806451613 251 211.806451613 294.5 165.5 c 0,36,37
 310 149 310 149 332.5 149 c 0,38,39
 372.173913043 149 372.173913043 149 389.586956522 199.0625 c 128,-1,40
 407 249.125 407 249.125 407 294 c 256,27,28
EndSplineSet
EndChar

StartChar: uni0D47
Encoding: 3399 3399 159
Width: 654
Flags: W
LayerCount: 2
Fore
SplineSet
453 486 m 0,0,1
 303.085106383 486 303.085106383 486 269 664 c 1,2,3
 230 576.25 230 576.25 230 465.125 c 128,-1,4
 230 354 230 354 270 257 c 1,5,6
 288 347 288 347 338 388 c 128,-1,7
 388 429 388 429 439.5 429 c 0,8,9
 532.943396226 429 532.943396226 429 591.971698113 372.118181818 c 128,-1,10
 651 315.236363636 651 315.236363636 651 222.618181818 c 128,-1,11
 651 130 651 130 581 60 c 128,-1,12
 511 -10 511 -10 377.5625 -10 c 128,-1,13
 244.125 -10 244.125 -10 147.5625 105.053191489 c 128,-1,14
 51 220.106382979 51 220.106382979 51 463.542553192 c 128,-1,15
 51 706.978723404 51 706.978723404 147.644859813 816.989361702 c 128,-1,16
 244.289719626 927 244.289719626 927 378.519859813 927 c 128,-1,17
 512.75 927 512.75 927 581.875 859.969696969 c 128,-1,18
 651 792.939393939 651 792.939393939 651 699 c 128,-1,19
 651 605 651 605 591.5 545.5 c 128,-1,20
 532 486 532 486 453 486 c 0,0,1
481 681 m 1,21,-1
 481 688 l 1,22,23
 480 715 480 715 466 737.5 c 128,-1,24
 452 760 452 760 426 760 c 128,-1,25
 400 760 400 760 386.5 740 c 128,-1,26
 373 720 373 720 373 692 c 128,-1,27
 373 664 373 664 386.5 639.5 c 128,-1,28
 400 615 400 615 426 615 c 128,-1,29
 452 615 452 615 467 635.5 c 128,-1,30
 482 656 482 656 481 681 c 1,21,-1
481 226 m 1,31,-1
 481 233 l 1,32,33
 480 260 480 260 466 282.5 c 128,-1,34
 452 305 452 305 426 305 c 128,-1,35
 400 305 400 305 386.5 285 c 128,-1,36
 373 265 373 265 373 237 c 128,-1,37
 373 209 373 209 386.5 184.5 c 128,-1,38
 400 160 400 160 426 160 c 128,-1,39
 452 160 452 160 467 180.5 c 128,-1,40
 482 201 482 201 481 226 c 1,31,-1
EndSplineSet
EndChar

StartChar: uni0D48
Encoding: 3400 3400 160
Width: 1707
Flags: W
LayerCount: 2
Fore
SplineSet
1111 593 m 1,0,1
 1140.25 619 1140.25 619 1202.625 619 c 0,2,3
 1320.46987952 619 1320.46987952 619 1375.23493976 534.824074074 c 128,-1,4
 1430 450.648148148 1430 450.648148148 1430 322.594565878 c 128,-1,5
 1430 194.540983607 1430 194.540983607 1365.48 88.7704918035 c 128,-1,6
 1300.96 -17 1300.96 -17 1181 -17 c 0,7,8
 980.907216495 -17 980.907216495 -17 925 229.5 c 0,9,10
 906 313.272727273 906 313.272727273 906 412.636363636 c 0,11,12
 906 631.142857143 906 631.142857143 991.5 765.5 c 0,13,14
 1093 925 1093 925 1300.44230769 925 c 128,-1,15
 1507.88461538 925 1507.88461538 925 1608.44230769 792.954545455 c 128,-1,16
 1709 660.909090909 1709 660.909090909 1709 463.298295455 c 128,-1,17
 1709 265.6875 1709 265.6875 1631 0 c 1,18,-1
 1441 0 l 1,19,20
 1525 234.315789474 1525 234.315789474 1525 435.826434063 c 128,-1,21
 1525 637.337078652 1525 637.337078652 1395.5 713 c 0,22,23
 1351 739 1351 739 1306.5 739 c 0,24,25
 1234.48780488 739 1234.48780488 739 1178.82270679 693.354619565 c 128,-1,26
 1123.1576087 647.70923913 1123.1576087 647.70923913 1111 593 c 1,0,1
261 593 m 1,27,28
 290.25 619 290.25 619 352.625 619 c 0,29,30
 470.469879518 619 470.469879518 619 525.234939759 534.824074074 c 128,-1,31
 580 450.648148148 580 450.648148148 580 322.594565878 c 128,-1,32
 580 194.540983607 580 194.540983607 515.48 88.7704918035 c 128,-1,33
 450.96 -17 450.96 -17 331 -17 c 0,34,35
 130.907216495 -17 130.907216495 -17 75 229.5 c 0,36,37
 56 313.272727273 56 313.272727273 56 412.636363636 c 0,38,39
 56 631.142857143 56 631.142857143 141.5 765.5 c 0,40,41
 243 925 243 925 450.442307692 925 c 128,-1,42
 657.884615385 925 657.884615385 925 758.442307692 792.954545455 c 128,-1,43
 859 660.909090909 859 660.909090909 859 463.298295455 c 128,-1,44
 859 265.6875 859 265.6875 781 0 c 1,45,-1
 591 0 l 1,46,47
 675 234.315789474 675 234.315789474 675 435.826434063 c 128,-1,48
 675 637.337078652 675 637.337078652 545.5 713 c 0,49,50
 501 739 501 739 456.5 739 c 0,51,52
 384.487804878 739 384.487804878 739 328.822706787 693.354619565 c 128,-1,53
 273.157608696 647.70923913 273.157608696 647.70923913 261 593 c 1,27,28
1257 294 m 256,54,55
 1257 378.034482759 1257 378.034482759 1219.5 422 c 0,56,57
 1205 439 1205 439 1182.5 439 c 0,58,59
 1143.34782609 439 1143.34782609 439 1122.17391304 390.3 c 128,-1,60
 1101 341.6 1101 341.6 1101 294 c 256,61,62
 1101 211.806451613 1101 211.806451613 1144.5 165.5 c 0,63,64
 1160 149 1160 149 1182.5 149 c 0,65,66
 1222.17391304 149 1222.17391304 149 1239.58695652 199.0625 c 128,-1,67
 1257 249.125 1257 249.125 1257 294 c 256,54,55
407 294 m 256,68,69
 407 378.034482759 407 378.034482759 369.5 422 c 0,70,71
 355 439 355 439 332.5 439 c 0,72,73
 293.347826087 439 293.347826087 439 272.173913043 390.3 c 128,-1,74
 251 341.6 251 341.6 251 294 c 256,75,76
 251 211.806451613 251 211.806451613 294.5 165.5 c 0,77,78
 310 149 310 149 332.5 149 c 0,79,80
 372.173913043 149 372.173913043 149 389.586956522 199.0625 c 128,-1,81
 407 249.125 407 249.125 407 294 c 256,68,69
EndSplineSet
EndChar

StartChar: uni0D4A
Encoding: 3402 3402 161
Width: 2310
Flags: W
LayerCount: 2
Fore
SplineSet
458 371.5 m 128,-1,1
 458 315 458 315 500 272.5 c 128,-1,2
 542 230 542 230 596.5 230 c 128,-1,3
 651 230 651 230 692.5 269 c 128,-1,4
 734 308 734 308 734 363.5 c 128,-1,5
 734 419 734 419 696 461.5 c 128,-1,6
 658 504 658 504 600.111111111 504 c 128,-1,7
 542.222222222 504 542.222222222 504 500.111111111 466 c 128,-1,0
 458 428 458 428 458 371.5 c 128,-1,1
1246 510 m 0,8,9
 1246 302 1246 302 1008 124 c 1,10,-1
 914 162 l 1,11,12
 1090 287 1090 287 1090 484 c 0,13,14
 1090 614 1090 614 997 707 c 128,-1,15
 904 800 904 800 767.5 800 c 128,-1,16
 631 800 631 800 537.5 704.5 c 128,-1,17
 444 609 444 609 426 472 c 1,18,-1
 432 464 l 1,19,20
 516 582 516 582 632 582 c 0,21,22
 722 582 722 582 790 509.5 c 128,-1,23
 858 437 858 437 858 342.5 c 128,-1,24
 858 248 858 248 798 192 c 128,-1,25
 738 136 738 136 623.5 136 c 128,-1,26
 509 136 509 136 437.5 223 c 128,-1,27
 366 310 366 310 366 442 c 0,28,29
 366 626 366 626 491 758 c 128,-1,30
 616 890 616 890 794 890 c 128,-1,31
 972 890 972 890 1109 783.5 c 128,-1,32
 1246 677 1246 677 1246 510 c 0,8,9
1492 530 m 1,33,-1
 1492 446 l 1,34,-1
 1316 446 l 1,35,-1
 1316 530 l 1,36,-1
 1492 530 l 1,33,-1
2092 524 m 0,37,38
 2092 136 2092 136 1818 136 c 0,39,40
 1688 136 1688 136 1628 195.5 c 128,-1,41
 1568 255 1568 255 1568 386 c 2,42,-1
 1568 390 l 1,43,-1
 1630 390 l 1,44,45
 1640 334 1640 334 1650.5 306 c 0,46,47
 1676 238 1676 238 1774 238 c 0,48,49
 1830 238 1830 238 1867.5 263 c 128,-1,50
 1905 288 1905 288 1923.48759542 344.202290076 c 0,51,52
 1946 412.639999999 1946 412.639999999 1946 526 c 0,53,54
 1946 812 1946 812 1796 812 c 0,55,56
 1698.90909091 812 1698.90909091 812 1669.28131711 754.440944882 c 128,-1,57
 1639.65354331 696.881889764 1639.65354331 696.881889764 1630 610 c 1,58,-1
 1568 610 l 1,59,-1
 1568 614 l 2,60,61
 1568 757.185185185 1568 757.185185185 1619 823.592592593 c 128,-1,62
 1670 890 1670 890 1804 890 c 0,63,64
 2092 890 2092 890 2092 524 c 0,37,38
2222 282 m 2,65,-1
 2222 788 l 2,66,67
 2222 914 2222 914 2134 1002 c 256,68,69
 2046 1090 2046 1090 1922 1090 c 2,70,-1
 550 1090 l 2,71,72
 424.044444444 1090 424.044444444 1090 338.022222222 1002.5 c 128,-1,73
 252 915 252 915 252 788 c 2,74,-1
 252 282 l 2,75,76
 252 159 252 159 337.533333333 72 c 128,-1,77
 423.066666667 -15 423.066666667 -15 550 -15 c 2,78,-1
 1922 -15 l 2,79,80
 2047 -15 2047 -15 2134.5 72.5 c 128,-1,81
 2222 160 2222 160 2222 282 c 2,65,-1
2310 876 m 2,82,-1
 2310 190 l 2,83,84
 2310 66 2310 66 2222 -21.5 c 128,-1,85
 2134 -109 2134 -109 2008 -109 c 2,86,-1
 464 -109 l 2,87,88
 340 -109 340 -109 252 -21 c 256,89,90
 164 67 164 67 164 190 c 2,91,-1
 164 876 l 2,92,93
 164 1000 164 1000 252 1088 c 256,94,95
 340 1176 340 1176 464 1176 c 2,96,-1
 2008 1176 l 2,97,98
 2133 1176 2133 1176 2221.5 1088 c 128,-1,99
 2310 1000 2310 1000 2310 876 c 2,82,-1
EndSplineSet
EndChar

StartChar: uni0D4B
Encoding: 3403 3403 162
Width: 2126
Flags: W
LayerCount: 2
Fore
SplineSet
978 340 m 0,0,1
 978 372 978 372 954.5 395 c 128,-1,2
 931 418 931 418 898 418 c 0,3,4
 828 418 828 418 828 334 c 128,-1,5
 828 250 828 250 884 218 c 1,6,7
 978 242 978 242 978 340 c 0,0,1
898 606 m 0,8,9
 978 606 978 606 978 701 c 128,-1,10
 978 796 978 796 884 812 c 1,11,12
 845.866666667 792.933333333 845.866666667 792.933333333 832 734 c 0,13,14
 828 717 828 717 828 702 c 0,15,16
 828 606 828 606 898 606 c 0,8,9
1038 336 m 0,17,18
 1038 236 1038 236 942 188 c 256,19,20
 846 140 846 140 734 140 c 0,21,22
 560 140 560 140 466 242.5 c 128,-1,23
 372 345 372 345 372 518 c 128,-1,24
 372 691 372 691 468 792 c 1,25,26
 565 892 565 892 730.691489361 892 c 128,-1,27
 896.382978723 892 896.382978723 892 986 814 c 0,28,29
 1038 769.703703704 1038 769.703703704 1038 698 c 0,30,31
 1038 550 1038 550 898 550 c 0,32,33
 827 550 827 550 778 586 c 0,34,35
 730 622 730 622 730 702 c 128,-1,36
 730 782 730 782 786 824 c 1,37,38
 768 836 768 836 724 836 c 0,39,40
 510 836 510 836 510 515 c 128,-1,41
 510 194 510 194 724 194 c 0,42,43
 757 194 757 194 786 206 c 1,44,45
 730 242 730 242 730 321 c 128,-1,46
 730 400 730 400 779.5 436 c 128,-1,47
 829 472 829 472 893 472 c 128,-1,48
 957 472 957 472 997.5 435 c 128,-1,49
 1038 398 1038 398 1038 336 c 0,17,18
1290 528 m 1,50,-1
 1290 446 l 1,51,-1
 1112 446 l 1,52,-1
 1112 528 l 1,53,-1
 1290 528 l 1,50,-1
1888 522 m 0,54,55
 1888 132 1888 132 1616 132 c 0,56,57
 1484 132 1484 132 1425 192.5 c 128,-1,58
 1366 253 1366 253 1366 386 c 2,59,-1
 1366 390 l 1,60,-1
 1426 390 l 1,61,62
 1439.58273381 315.294964029 1439.58273381 315.294964029 1466 278 c 1,63,64
 1488.85714286 238 1488.85714286 238 1575 238 c 0,65,66
 1617 238 1617 238 1651 256.5 c 128,-1,67
 1685 275 1685 275 1697.5 296 c 0,68,69
 1742 370.76 1742 370.76 1742 524 c 0,70,71
 1742 808 1742 808 1590 808 c 0,72,73
 1540 808 1540 808 1509 795 c 0,74,75
 1453.14745763 771.577966102 1453.14745763 771.577966102 1433.5 656.5 c 0,76,77
 1430 636 1430 636 1426 608 c 1,78,-1
 1366 608 l 1,79,-1
 1366 614 l 2,80,81
 1366 751 1366 751 1416 820.5 c 128,-1,82
 1466 890 1466 890 1602 890 c 0,83,84
 1888 890 1888 890 1888 522 c 0,54,55
2056 258 m 2,85,-1
 2056 788 l 2,86,87
 2056 914 2056 914 1968 1002 c 0,88,89
 1879 1090 1879 1090 1754 1090 c 2,90,-1
 558 1090 l 2,91,92
 434 1090 434 1090 346 1002 c 256,93,94
 258 914 258 914 258 788 c 2,95,-1
 258 258 l 2,96,97
 258 136 258 136 346 48.5 c 128,-1,98
 434 -39 434 -39 558 -39 c 2,99,-1
 1754 -39 l 2,100,101
 1878 -39 1878 -39 1968 48 c 1,102,103
 2056 136 2056 136 2056 258 c 2,85,-1
2128 876 m 2,104,-1
 2128 190 l 2,105,106
 2128 67 2128 67 2040 -21 c 256,107,108
 1952 -109 1952 -109 1828 -109 c 2,109,-1
 464 -109 l 2,110,111
 340 -109 340 -109 252 -21 c 256,112,113
 164 67 164 67 164 190 c 2,114,-1
 164 876 l 2,115,116
 164 1000 164 1000 252 1088 c 256,117,118
 340 1176 340 1176 464 1176 c 2,119,-1
 1828 1176 l 2,120,121
 1952 1176 1952 1176 2040 1088 c 256,122,123
 2128 1000 2128 1000 2128 876 c 2,104,-1
EndSplineSet
EndChar

StartChar: uni0D4C
Encoding: 3404 3404 163
Width: 860
Flags: W
LayerCount: 2
Fore
SplineSet
140 257 m 1,0,1
 238.839285714 134 238.839285714 134 389 134 c 0,2,3
 530.494949495 134 530.494949495 134 606.247474747 236.732876713 c 128,-1,4
 682 339.465753425 682 339.465753425 682 474.732876713 c 128,-1,5
 682 610 682 610 630 675 c 0,6,7
 610 700 610 700 586 700 c 0,8,9
 544.964285714 700 544.964285714 700 519.982142857 669.586956522 c 128,-1,10
 495 639.173913043 495 639.173913043 495 601 c 2,11,-1
 495 460 l 1,12,-1
 345 460 l 1,13,-1
 345 620 l 2,14,15
 345 668.666666667 345 668.666666667 311.5 691 c 0,16,17
 301 698 301 698 284 698 c 0,18,19
 247.8 698 247.8 698 224.9 659.833333333 c 128,-1,20
 202 621.666666667 202 621.666666667 202 574.833333333 c 128,-1,21
 202 528 202 528 219 479 c 128,-1,22
 236 430 236 430 253 378 c 1,23,-1
 85 378 l 1,24,25
 75 426 75 426 64.5 470 c 128,-1,26
 54 514 54 514 54 568 c 128,-1,27
 54 622 54 622 66 678.5 c 128,-1,28
 78 735 78 735 106 779 c 128,-1,29
 134 823 134 823 180.5 850 c 128,-1,30
 227 877 227 877 301.914285714 877 c 128,-1,31
 376.828571429 877 376.828571429 877 417 803 c 1,32,33
 446.837127846 856.043782837 446.837127846 856.043782837 514.5 876.5 c 0,34,35
 536 883 536 883 558 883 c 0,36,37
 701.8 883 701.8 883 784 746 c 0,38,39
 854 629.333333333 854 629.333333333 854 501.166666667 c 0,40,41
 854 262.882352941 854 262.882352941 728.742424242 123.941176471 c 128,-1,42
 603.484848485 -15 603.484848485 -15 408.453962704 -15 c 128,-1,43
 213.423076923 -15 213.423076923 -15 140 68 c 1,44,-1
 140 257 l 1,0,1
EndSplineSet
EndChar

StartChar: xx
Encoding: 3405 3405 164
Width: 41
GlyphClass: 4
Flags: W
LayerCount: 2
Fore
SplineSet
238 1279 m 5,0,1
 245 1234.66666667 245 1234.66666667 245 1189.33333333 c 132,-1,2
 245 1144 245 1144 225 1096.5 c 132,-1,3
 205 1049 205 1049 173 1018 c 4,4,5
 109 956 109 956 14.5158730158 956 c 4,6,7
 -79.9682539683 956 -79.9682539683 956 -150.984126984 1022.77611941 c 4,8,9
 -222 1089.55223881 -222 1089.55223881 -222 1206 c 4,10,11
 -222 1241 -222 1241 -214 1279 c 5,12,-1
 -27 1279 l 5,13,14
 -38 1248.2 -38 1248.2 -38 1204.6 c 132,-1,15
 -38 1161 -38 1161 -22.5 1141.5 c 132,-1,16
 -7 1122 -7 1122 13 1122 c 260,17,18
 33 1122 33 1122 50.5 1143 c 132,-1,19
 68 1164 68 1164 68 1208.5 c 132,-1,20
 68 1253 68 1253 58 1279 c 5,21,-1
 238 1279 l 5,0,1
EndSplineSet
EndChar

StartChar: uni0D57
Encoding: 3415 3415 165
Width: 860
Flags: W
LayerCount: 2
Fore
SplineSet
140 257 m 1,0,1
 238.839285714 134 238.839285714 134 389 134 c 0,2,3
 530.494949495 134 530.494949495 134 606.247474747 236.732876713 c 128,-1,4
 682 339.465753425 682 339.465753425 682 474.732876713 c 128,-1,5
 682 610 682 610 630 675 c 0,6,7
 610 700 610 700 586 700 c 0,8,9
 544.964285714 700 544.964285714 700 519.982142857 669.586956522 c 128,-1,10
 495 639.173913043 495 639.173913043 495 601 c 2,11,-1
 495 460 l 1,12,-1
 345 460 l 1,13,-1
 345 620 l 2,14,15
 345 668.666666667 345 668.666666667 311.5 691 c 0,16,17
 301 698 301 698 284 698 c 0,18,19
 247.8 698 247.8 698 224.9 659.833333333 c 128,-1,20
 202 621.666666667 202 621.666666667 202 574.833333333 c 128,-1,21
 202 528 202 528 219 479 c 128,-1,22
 236 430 236 430 253 378 c 1,23,-1
 85 378 l 1,24,25
 75 426 75 426 64.5 470 c 128,-1,26
 54 514 54 514 54 568 c 128,-1,27
 54 622 54 622 66 678.5 c 128,-1,28
 78 735 78 735 106 779 c 128,-1,29
 134 823 134 823 180.5 850 c 128,-1,30
 227 877 227 877 301.914285714 877 c 128,-1,31
 376.828571429 877 376.828571429 877 417 803 c 1,32,33
 446.837127846 856.043782837 446.837127846 856.043782837 514.5 876.5 c 0,34,35
 536 883 536 883 558 883 c 0,36,37
 701.8 883 701.8 883 784 746 c 0,38,39
 854 629.333333333 854 629.333333333 854 501.166666667 c 0,40,41
 854 262.882352941 854 262.882352941 728.742424242 123.941176471 c 128,-1,42
 603.484848485 -15 603.484848485 -15 408.453962704 -15 c 128,-1,43
 213.423076923 -15 213.423076923 -15 140 68 c 1,44,-1
 140 257 l 1,0,1
EndSplineSet
EndChar

StartChar: uni0d60
Encoding: 3424 3424 166
Width: 930
Flags: W
LayerCount: 2
Fore
SplineSet
299 543 m 1,0,1
 379.0625 482 379.0625 482 495.453125 482 c 128,-1,2
 611.84375 482 611.84375 482 690 543 c 1,3,4
 612.956120092 541.073903002 612.956120092 541.073903002 564.478060046 598.170284834 c 128,-1,5
 516 655.266666667 516 655.266666667 516 714.633333333 c 0,6,7
 516 819.941176471 516 819.941176471 569.433962264 875.470588235 c 128,-1,8
 622.867924528 931 622.867924528 931 694.433962264 931 c 0,9,10
 815.095890411 931 815.095890411 931 873.047945205 854.081818182 c 128,-1,11
 931 777.163636364 931 777.163636364 931 671.806818182 c 128,-1,12
 931 566.45 931 566.45 873 492.5 c 0,13,14
 853 467 853 467 826 449 c 1,15,16
 901 404 901 404 901 293 c 0,17,18
 901 146.4 901 146.4 765 66.5 c 0,19,20
 648.404255319 -2 648.404255319 -2 494.431294326 -2 c 128,-1,21
 340.458333333 -2 340.458333333 -2 224.5 67 c 0,22,23
 85 150.008264463 85 150.008264463 85 294 c 0,24,25
 85 402.8 85 402.8 162 449 c 1,26,27
 56 519.666666667 56 519.666666667 56 666 c 0,28,29
 56 773.888888889 56 773.888888889 112.56 852.444444445 c 128,-1,30
 169.12 931 169.12 931 274 931 c 0,31,32
 410.888888889 931 410.888888889 931 456 815 c 0,33,34
 470 779 470 779 470 740 c 0,35,36
 470 661 470 661 422.8 602 c 128,-1,37
 375.6 543 375.6 543 299 543 c 1,0,1
764 725 m 256,38,39
 764 767.368421053 764 767.368421053 734.5 786 c 0,40,41
 725 792 725 792 713 792 c 256,42,43
 678.434782609 792 678.434782609 792 665.5 749.5 c 0,44,45
 662 738 662 738 662 726 c 256,46,47
 662 681.736842105 662 681.736842105 691.5 660 c 0,48,49
 701 653 701 653 714 653 c 256,50,51
 750.153846154 653 750.153846154 653 761 700 c 0,52,53
 764 713 764 713 764 725 c 256,38,39
330 725 m 256,54,55
 330 766.736842105 330 766.736842105 299.5 786 c 0,56,57
 290 792 290 792 278 792 c 256,58,59
 243.434782609 792 243.434782609 792 230.5 749.5 c 0,60,61
 227 738 227 738 227 726 c 256,62,63
 227 681.736842105 227 681.736842105 256.5 660 c 0,64,65
 266 653 266 653 279 653 c 256,66,67
 316.153846154 653 316.153846154 653 327 700 c 0,68,69
 330 713 330 713 330 725 c 256,54,55
467 269 m 2,70,71
 467 283 467 283 443.5 283 c 128,-1,72
 420 283 420 283 411 274.5 c 128,-1,73
 402 266 402 266 402 259.333333333 c 128,-1,74
 402 252.666666667 402 252.666666667 428 218 c 1,75,-1
 351 218 l 1,76,77
 336 248 336 248 336 265.5 c 128,-1,78
 336 283 336 283 360.5 302.5 c 128,-1,79
 385 322 385 322 430.944444444 322 c 128,-1,80
 476.888888889 322 476.888888889 322 500 306 c 1,81,82
 524.555555556 323 524.555555556 323 560.777777778 323 c 0,83,84
 626.375 323 626.375 323 661.1875 297.681818182 c 128,-1,85
 696 272.363636364 696 272.363636364 696 240 c 0,86,87
 696 237 696 237 695.5 234 c 128,-1,88
 695 231 695 231 695 228 c 1,89,90
 708 251 708 251 708 277.5 c 0,91,92
 708 336.64 708 336.64 652 368 c 1,93,94
 572.545454545 345 572.545454545 345 494.045454545 345 c 128,-1,95
 415.545454545 345 415.545454545 345 334 368 c 1,96,97
 279 335.916666667 279 335.916666667 279 284.458333333 c 128,-1,98
 279 233 279 233 307 207.5 c 128,-1,99
 335 182 335 182 375 168 c 1,100,-1
 375 197 l 1,101,102
 430.384615385 173 430.384615385 173 475.692307692 173 c 0,103,104
 551.8 173 551.8 173 584.9 193.6875 c 128,-1,105
 618 214.375 618 214.375 618 242 c 0,106,107
 618 283 618 283 572 283 c 0,108,109
 555 283 555 283 544.5 276.5 c 128,-1,110
 534 270 534 270 534 265 c 2,111,-1
 534 235 l 1,112,-1
 467 235 l 1,113,-1
 467 269 l 2,70,71
EndSplineSet
EndChar

StartChar: l2
Encoding: 3425 3425 167
Width: 1788
Flags: W
LayerCount: 2
Fore
SplineSet
765 784 m 1,0,1
 873.75 929 873.75 929 1081 929 c 0,2,3
 1203.63888889 929 1203.63888889 929 1311.22028832 853.797468354 c 128,-1,4
 1418.80168776 778.594936709 1418.80168776 778.594936709 1460 655 c 1,5,6
 1619.3291827 620.446683269 1619.3291827 620.446683269 1703.16459135 492.106057684 c 128,-1,7
 1787 363.765432099 1787 363.765432099 1787 195 c 0,8,9
 1787 -42.4814814815 1787 -42.4814814815 1642.5 -213.740740741 c 128,-1,10
 1498 -385 1498 -385 1264 -385 c 0,11,12
 1146.84 -385 1146.84 -385 1026 -332 c 1,13,-1
 1026 -121 l 1,14,15
 1138.16216216 -204 1138.16216216 -204 1238.08108108 -204 c 0,16,17
 1412.27927928 -204 1412.27927928 -204 1506.63963964 -86.3146067415 c 128,-1,18
 1601 31.3707865169 1601 31.3707865169 1601 192 c 0,19,20
 1601 401.171428571 1601 401.171428571 1484 458 c 1,21,-1
 1485 410 l 2,22,23
 1494.64444445 -24 1494.64444445 -24 1216 -24 c 0,24,25
 1094.29032258 -24 1094.29032258 -24 1021.14516129 74.5869565215 c 128,-1,26
 948 173.173913043 948 173.173913043 948 308.276829939 c 128,-1,27
 948 443.379746835 948 443.379746835 1030.60823721 540.627418479 c 128,-1,28
 1113.21647441 637.875090123 1113.21647441 637.875090123 1252 660 c 1,29,30
 1197.33333333 742 1197.33333333 742 1096.89269406 742 c 128,-1,31
 996.452054795 742 996.452054795 742 927.226027398 663.0390625 c 128,-1,32
 858 584.078125 858 584.078125 858 478 c 2,33,-1
 858 0 l 1,34,-1
 673 0 l 1,35,-1
 673 478 l 2,36,37
 673 584.066666667 673 584.066666667 609.328767124 661.533333333 c 128,-1,38
 545.657534247 739 545.657534247 739 446.68923224 739 c 128,-1,39
 347.720930233 739 347.720930233 739 290.5 672.5 c 0,40,41
 272 651 272 651 262 624 c 1,42,43
 295.75 654 295.75 654 357.375 654 c 0,44,45
 474.958333333 654 474.958333333 654 534 545 c 0,46,47
 580 460.076923077 580 460.076923077 580 327.071248423 c 128,-1,48
 580 194.06557377 580 194.06557377 514.974747474 88.532786885 c 128,-1,49
 449.949494949 -17 449.949494949 -17 341.665923945 -17 c 128,-1,50
 233.382352941 -17 233.382352941 -17 165 58 c 0,51,52
 56 177.548387097 56 177.548387097 56 417 c 0,53,54
 56 760.146666667 56 760.146666667 262 881 c 0,55,56
 337 925 337 925 447 925 c 0,57,58
 657.394736842 925 657.394736842 925 765 784 c 1,0,1
1220 165 m 0,59,60
 1314.96774194 165 1314.96774194 165 1306 443 c 0,61,62
 1305 474 1305 474 1305 492 c 1,63,64
 1188.09367494 477.012009608 1188.09367494 477.012009608 1150.5 367.5 c 0,65,66
 1139 334 1139 334 1139 306 c 0,67,68
 1139 250.263157895 1139 250.263157895 1158.75609756 207.631578947 c 128,-1,69
 1178.51219512 165 1178.51219512 165 1220 165 c 0,59,60
408 311 m 256,70,71
 408 398.428571429 408 398.428571429 371 446 c 0,72,73
 357 464 357 464 334.5 464 c 0,74,75
 296.285714286 464 296.285714286 464 275.142857143 412.2 c 128,-1,76
 254 360.4 254 360.4 254 311 c 256,77,78
 254 225.666666667 254 225.666666667 297 175.5 c 0,79,80
 312 158 312 158 334.5 158 c 0,81,82
 372.510204082 158 372.510204082 158 393.5 218.5 c 0,83,84
 408 260.294117647 408 260.294117647 408 311 c 256,70,71
EndSplineSet
EndChar

StartChar: uni0D66
Encoding: 3430 3430 168
Width: 830
Flags: W
LayerCount: 2
Fore
SplineSet
441 -17 m 0,0,1
 56 -17 56 -17 56 457 c 0,2,3
 56 930 56 930 440.5 930 c 0,4,5
 823 930 823 930 823 457.75 c 4,6,7
 823 -17 823 -17 441 -17 c 0,0,1
632 423 m 0,8,9
 632 746 632 746 442.457142857 746 c 0,10,11
 249.55 746 249.55 746 250.5 461 c 0,12,13
 251.503333333 160 251.503333333 160 442.5 160 c 0,14,15
 632 160 632 160 632 423 c 0,8,9
EndSplineSet
EndChar

StartChar: uni0D67
Encoding: 3431 3431 169
Width: 1269
Flags: W
LayerCount: 2
Fore
SplineSet
608 -318 m 1,0,-1
 360 -328 l 1,1,2
 203 -328 203 -328 117 -238 c 0,3,4
 60 -178 60 -178 60 -93 c 0,5,6
 60 33 60 33 161 102 c 0,7,8
 235 153 235 153 379 153 c 0,9,10
 405 153 405 153 437 152 c 1,11,-1
 437 153 l 1,12,-1
 670 155 l 1,13,-1
 670 497 l 2,14,15
 670 780 670 780 830 880 c 0,16,17
 887 916 887 916 972 915 c 0,18,19
 1130 915 1130 915 1200 796 c 128,-1,21
 1270 677 1270 677 1270 497 c 2,22,-1
 1270 4 l 1,23,-1
 604 1 l 1,24,-1
 448 2 l 1,25,26
 409 2 l 2,27,28
 280 2 280 2 245.5 -21.5 c 128,-1,29
 211 -45 211 -45 211 -81.5 c 128,-1,30
 211 -118 211 -118 234 -142.5 c 128,-1,31
 257 -167 257 -167 291 -172 c 128,-1,32
 325 -177 325 -177 363 -177 c 1,33,-1
 603 -168 l 1,34,-1
 608 -318 l 1,0,-1
973 737 m 0,35,36
 911 737 911 737 880 653 c 0,37,38
 856 591 856 591 856 500 c 2,39,-1
 856 155 l 1,40,-1
 1085 155 l 1,41,-1
 1085 500 l 2,42,43
 1085 655 1085 655 1031 712 c 0,44,45
 1009 737 1009 737 973 737 c 0,35,36
EndSplineSet
EndChar

